SplineFontDB: 3.0
FontName: MeeraTamil
FullName: Meera Tamil
FamilyName: Meera Tamil
Weight: Medium
Copyright: Copyright 2012 Meera Tamil project contributors.\n\nDesigned by Hussain KH (Typography), Santhosh Thottingal (Featuring), Anilan NG (Calligraphy) and AKM Kutty (Linguistics).\n\nDedicated to Wikipedia and Tamil People (Tamil Pesum Nallulakam).\n\nLicensed under the SIL Open Font License 1.1 (see file OFL.txt)
UComments: "2012-6-9: Created." 
Version: 1.0
ItalicAngle: 0
UnderlinePosition: -204
UnderlineWidth: 102
Ascent: 1638
Descent: 410
LayerCount: 2
Layer: 0 0 "Back"  1
Layer: 1 0 "Fore"  0
XUID: [1021 393 960756424 6214922]
FSType: 0
OS2Version: 0
OS2_WeightWidthSlopeOnly: 0
OS2_UseTypoMetrics: 1
CreationTime: 1339233494
ModificationTime: 1378010112
OS2TypoAscent: 0
OS2TypoAOffset: 1
OS2TypoDescent: 0
OS2TypoDOffset: 1
OS2TypoLinegap: 184
OS2WinAscent: 0
OS2WinAOffset: 1
OS2WinDescent: 0
OS2WinDOffset: 1
HheadAscent: 0
HheadAOffset: 1
HheadDescent: 0
HheadDOffset: 1
OS2Vendor: 'PfEd'
Lookup: 4 0 0 "'akhn' Akhand in Tamil lookup 1"  {"'akhn' Akhand in Tamil lookup 1-1"  } ['akhn' ('DFLT' <'dflt' > 'taml' <'TAM ' 'dflt' > 'tml2' <'dflt' > ) ]
Lookup: 4 0 0 "'half' form Substitution lookup 5"  {"'half' form Substitution lookup 5-1"  } ['half' ('DFLT' <'dflt' > 'taml' <'TAM ' 'dflt' > 'tml2' <'dflt' > ) ]
Lookup: 4 2 0 "'abvs' Above Base Substitutions in Tamil lookup 0"  {"'abvs' Above Base Substitutions in Tamil lookup 0-1"  } ['abvs' ('DFLT' <'dflt' > 'taml' <'dflt' > 'tml2' <'dflt' > ) ]
Lookup: 4 0 0 "'psts' Post Base Substitutions lookup 6"  {"'psts' Post Base Substitutions lookup 6-1"  } ['psts' ('DFLT' <'dflt' > 'taml' <'TAM ' 'dflt' > 'tml2' <'dflt' > ) ]
Lookup: 4 0 0 "'haln' Halant Forms in Tamil lookup 4"  {"'haln' Halant Forms in Tamil lookup 4-1"  } ['haln' ('DFLT' <'dflt' > 'taml' <'TAM ' 'dflt' > 'tml2' <'dflt' > ) ]
MarkAttachClasses: 1
DEI: 91125
LangName: 1033 
Encoding: Custom
Compacted: 1
UnicodeInterp: none
NameList: Adobe Glyph List

StartChar: ta_a
Encoding: 44 2949 0
Width: 2446
VWidth: 2096
Flags: HW
HStem: -316 148<670 1420> 176 160<390 1846 2078 2288> 396 158<1222 1412> 780 112<1262 1398> 940 168<1292 1692>
VStem: 218 170<2 174> 1042 168<566 770> 1424 168<566 754> 1920 172<338 694> 2288 178<-382 176 338 1084>
LayerCount: 2
Fore
SplineSet
2446 -402 m 1
 2270 -402 l 1
 2270 156 l 1
 2024 156 l 1
 1968 16 1856 -100 1686 -192 c 1
 1504 -288 1284 -336 1034 -336 c 0
 818 -336 634 -308 486 -248 c 0
 296 -172 200 -56 200 98 c 0
 200 154 220 202 260 248 c 0
 300 294 348 316 406 316 c 2
 1882 316 l 1
 1894 360 1902 406 1902 444 c 0
 1902 576 1862 686 1780 780 c 0
 1698 874 1594 920 1472 920 c 0
 1368 920 1292 894 1244 842 c 1
 1266 862 1296 872 1334 872 c 0
 1398 872 1454 852 1502 808 c 0
 1550 764 1574 708 1574 640 c 0
 1574 558 1546 496 1496 448 c 0
 1446 400 1380 376 1304 376 c 0
 1224 376 1154 404 1102 462 c 0
 1050 520 1024 592 1024 678 c 0
 1024 820 1074 928 1172 998 c 0
 1256 1058 1368 1088 1504 1088 c 0
 1664 1088 1800 1028 1910 906 c 0
 2020 784 2074 632 2074 452 c 0
 2074 406 2070 360 2060 316 c 1
 2270 318 l 1
 2270 1064 l 1
 2446 1064 l 1
 2446 -402 l 1
1406 648 m 0
 1406 682 1396 704 1374 726 c 0
 1352 748 1326 760 1294 760 c 0
 1224 760 1192 724 1192 650 c 0
 1192 576 1228 534 1300 534 c 0
 1370 534 1406 574 1406 648 c 0
1828 156 m 1
 436 156 l 2
 392 156 370 132 370 84 c 0
 370 10 444 -58 590 -114 c 0
 722 -162 860 -188 1002 -188 c 0
 1180 -188 1340 -160 1482 -108 c 0
 1642 -48 1758 40 1828 156 c 1
EndSplineSet
EndChar

StartChar: ta_aa
Encoding: 45 2950 1
Width: 3128
VWidth: 2096
Flags: HW
HStem: -712 144<1848 2558> -362 146<1724 2082> -316 148<680 1420> 70 184<2606 2918> 176 160<398 1848 2084 2344> 396 158<1236 1416> 780 112<1268 1404> 940 168<1298 1698>
VStem: 224 170<-2 174> 1046 168<580 766> 1428 168<564 754> 1548 176<-482 -370> 1924 170<338 698> 2344 178<-380 -8 124 176 336 1084> 2974 178<-284 18>
LayerCount: 2
Fore
SplineSet
3128 -132 m 4x97ee
 3128 -338 3018 -498 2794 -608 c 4
 2618 -692 2418 -734 2192 -734 c 4
 2034 -734 1894 -712 1772 -674 c 5
 1608 -618 1524 -536 1524 -426 c 4
 1524 -362 1560 -310 1634 -276 c 4
 1692 -250 1758 -238 1832 -238 c 4
 2016 -238 2150 -288 2230 -384 c 5
 2124 -488 l 5
 2056 -418 1960 -384 1836 -384 c 4
 1744 -384 1700 -398 1700 -432 c 4
 1700 -482 1760 -522 1882 -554 c 4
 1976 -578 2068 -590 2164 -590 c 4
 2344 -590 2510 -556 2656 -492 c 5
 2850 -408 2950 -286 2950 -126 c 4
 2950 -70 2928 -26 2890 2 c 4
 2852 30 2804 48 2746 48 c 4xd7de
 2678 48 2620 28 2572 -10 c 5
 2522 -54 2498 -106 2498 -170 c 6
 2498 -402 l 5
 2320 -402 l 5
 2320 154 l 5
 2024 154 l 5
 1956 -12 1818 -140 1606 -228 c 4
 1430 -302 1238 -338 1030 -338 c 4
 830 -338 658 -312 512 -260 c 4
 304 -186 200 -68 200 96 c 4
 200 152 222 200 262 246 c 4
 302 292 348 314 404 314 c 6
 1880 314 l 5
 1894 352 1900 398 1900 442 c 4
 1900 570 1864 678 1784 772 c 4
 1700 870 1596 918 1468 918 c 4
 1368 918 1292 892 1244 840 c 5
 1264 860 1292 870 1330 870 c 4
 1394 870 1452 848 1500 804 c 4
 1548 760 1572 702 1572 638 c 4
 1572 558 1546 496 1496 448 c 4
 1446 400 1384 374 1304 374 c 4
 1220 374 1152 402 1100 460 c 4
 1048 518 1022 592 1022 676 c 4
 1022 812 1070 918 1164 990 c 4
 1248 1054 1360 1086 1502 1086 c 4
 1670 1086 1808 1022 1918 892 c 4
 2022 770 2072 622 2072 450 c 4
 2072 402 2068 358 2060 314 c 5
 2320 314 l 5xafee
 2320 1062 l 5
 2498 1062 l 5
 2498 102 l 5
 2570 188 2658 232 2758 232 c 4
 2864 232 2952 200 3022 130 c 4
 3092 60 3128 -26 3128 -132 c 4x97ee
1404 646 m 4x87ee
 1404 678 1394 702 1372 724 c 4
 1350 746 1326 758 1294 758 c 260
 1262 758 1240 746 1220 724 c 4
 1200 702 1190 680 1190 648 c 4
 1190 614 1200 588 1220 566 c 4
 1240 544 1264 532 1298 532 c 4
 1368 532 1404 572 1404 646 c 4x87ee
1824 154 m 5xafce
 434 154 l 6
 390 154 370 130 370 82 c 4
 370 -2 454 -72 626 -128 c 4
 758 -168 882 -190 998 -190 c 4
 1166 -190 1320 -166 1456 -118 c 4
 1628 -58 1752 32 1824 154 c 5xafce
EndSplineSet
EndChar

StartChar: ta_i
Encoding: 46 2951 2
Width: 2064
VWidth: 2096
Flags: HW
HStem: -588 170<422 818> -556 168<1264 1700> 164 160<836 1412> 418 152<972 1162> 770 122<1014 1158> 950 166<1048 1396> 1552 184<1004 1548>
VStem: 200 192<-384 -142> 366 190<422 1092> 796 168<578 762> 1170 166<578 756> 1514 184<294 820> 1756 176<-334 -42> 1884 180<148 1184>
LayerCount: 2
Fore
SplineSet
2064 148 m 1xbef4
 1884 148 l 1
 1884 868 l 2xbef4
 1884 1068 1832 1230 1734 1354 c 0
 1628 1486 1480 1552 1290 1552 c 0
 1072 1552 896 1480 760 1334 c 0
 624 1188 556 1006 556 792 c 0
 556 600 596 410 680 226 c 1
 834 290 1008 324 1202 324 c 0
 1286 324 1380 314 1476 290 c 1
 1502 400 1514 486 1514 554 c 0
 1514 818 1418 950 1228 950 c 0
 1134 950 1062 922 1012 864 c 1
 1040 884 1072 892 1104 892 c 0
 1168 892 1222 872 1268 828 c 0
 1314 784 1336 732 1336 668 c 0
 1336 594 1312 534 1262 488 c 0
 1212 442 1148 418 1074 418 c 0
 992 418 924 444 872 502 c 0
 820 560 796 628 796 712 c 0
 796 828 836 924 920 1000 c 0
 1004 1076 1102 1116 1218 1116 c 0
 1362 1116 1478 1068 1566 970 c 0
 1654 872 1698 748 1698 600 c 0
 1698 456 1676 332 1638 226 c 1
 1722 186 1792 124 1848 48 c 0
 1904 -34 1932 -120 1932 -212 c 0
 1932 -328 1888 -416 1800 -478 c 0
 1726 -534 1626 -556 1504 -556 c 0x7ef8
 1340 -556 1194 -518 1060 -444 c 1
 892 -540 726 -588 566 -588 c 0
 466 -588 380 -568 316 -530 c 0
 240 -484 200 -416 200 -320 c 0xbf78
 200 -236 234 -150 302 -58 c 0
 360 18 428 84 512 134 c 1
 414 360 366 576 366 780 c 0
 366 1052 446 1276 604 1454 c 0
 772 1644 994 1738 1266 1738 c 0
 1516 1738 1710 1662 1852 1514 c 0
 1994 1366 2064 1164 2064 910 c 2
 2064 148 l 1xbef4
1170 670 m 0
 1170 698 1162 720 1140 740 c 0
 1118 760 1092 770 1064 770 c 0
 996 770 964 738 964 670 c 256
 964 602 1000 568 1070 568 c 0
 1138 568 1170 602 1170 670 c 0
1756 -196 m 0x7e78
 1756 -140 1740 -88 1704 -40 c 0
 1668 8 1626 46 1576 72 c 1
 1490 -86 1376 -218 1244 -326 c 1
 1328 -366 1418 -388 1514 -388 c 0
 1678 -388 1756 -324 1756 -196 c 0x7e78
1416 134 m 1
 1336 154 1260 164 1180 164 c 0
 1026 164 888 138 760 82 c 1
 842 -52 948 -160 1080 -244 c 1
 1222 -146 1334 -22 1416 134 c 1
882 -336 m 1
 766 -248 666 -140 584 -12 c 1
 456 -100 392 -188 392 -280 c 0
 392 -372 460 -418 596 -418 c 0xbf70
 670 -418 766 -392 882 -336 c 1
EndSplineSet
EndChar

StartChar: ta_ii
Encoding: 47 2952 3
Width: 1434
VWidth: 2096
Flags: HW
HStem: 0 50G<200 376 836 1008> 368 272<512 696 1138 1322> 914 168<376 836 1008 1434>
VStem: 200 176<0 914> 474 260<406 596> 836 170<0 914> 1100 260<406 596>
LayerCount: 2
Fore
SplineSet
1360 504 m 0
 1360 466 1348 432 1324 406 c 0
 1300 380 1268 368 1230 368 c 256
 1192 368 1160 380 1136 406 c 0
 1112 432 1100 466 1100 504 c 0
 1100 540 1112 572 1136 598 c 0
 1160 624 1192 638 1230 638 c 256
 1268 638 1300 626 1324 600 c 0
 1348 574 1360 542 1360 504 c 0
1434 914 m 1
 1008 914 l 1
 1008 0 l 1
 836 0 l 1
 836 914 l 1
 376 914 l 1
 376 0 l 1
 200 0 l 1
 200 1082 l 1
 1434 1082 l 1
 1434 914 l 1
734 504 m 0
 734 466 722 432 698 406 c 0
 674 380 642 368 604 368 c 256
 566 368 534 380 510 406 c 0
 486 432 474 466 474 504 c 0
 474 540 486 572 510 598 c 0
 534 624 566 638 604 638 c 256
 642 638 674 626 698 600 c 0
 722 574 734 542 734 504 c 0
EndSplineSet
EndChar

StartChar: ta_u
Encoding: 48 2953 4
Width: 2014
VWidth: 2096
Flags: HW
HStem: -2 152<390 2014> 250 148<390 942> 454 146<376 562> 790 116<422 558> 950 158<436 876>
VStem: 200 190<150 248> 214 156<608 784> 568 160<606 776> 1032 168<486 812>
LayerCount: 2
Fore
SplineSet
2014 -2 m 1xfd80
 410 -2 l 2
 354 -2 308 20 264 58 c 0
 220 96 200 144 200 200 c 256xfd80
 200 256 224 302 264 340 c 0
 304 378 352 398 410 398 c 2
 784 398 l 2
 856 398 916 422 962 468 c 0
 1008 514 1032 574 1032 646 c 0
 1032 746 988 824 904 880 c 0
 830 928 744 950 638 950 c 0
 532 950 458 928 420 880 c 1
 448 896 476 904 504 904 c 0
 564 904 618 882 662 842 c 0
 706 802 730 752 730 692 c 0
 730 622 704 564 656 520 c 0
 608 476 548 454 476 454 c 0
 396 454 334 484 286 536 c 0
 238 588 214 654 214 734 c 0xfb80
 214 854 262 948 358 1018 c 0
 444 1078 550 1108 674 1108 c 0
 818 1108 942 1070 1042 994 c 0
 1148 910 1200 794 1200 652 c 0
 1200 534 1162 438 1082 364 c 0
 1002 290 902 250 782 250 c 2
 454 250 l 2
 410 250 388 236 388 204 c 0
 388 168 410 148 454 148 c 2
 2014 148 l 1
 2014 -2 l 1xfd80
568 694 m 0
 568 722 560 740 538 760 c 0
 516 780 494 790 466 790 c 0
 402 790 370 758 370 696 c 0xfb80
 370 632 402 600 470 600 c 0
 534 600 568 632 568 694 c 0
EndSplineSet
EndChar

StartChar: ta_uu
Encoding: 49 2954 5
Width: 2824
VWidth: 2096
Flags: HW
HStem: -2 140<390 2824> 190 142<1626 1794> 250 148<390 942> 454 146<376 562> 544 132<1626 1794> 790 116<422 558> 914 136<2176 2422 2568 2794> 932 142<1612 1956> 950 158<436 876>
VStem: 200 190<138 248> 214 156<608 784> 568 160<606 776> 1032 168<486 812> 1344 134<444 790> 1516 100<404 536> 1802 140<338 538> 2036 142<214 856> 2422 146<214 914>
LayerCount: 2
Fore
SplineSet
2794 914 m 1x861fc0
 2568 914 l 1
 2568 214 l 1
 2422 214 l 1
 2422 914 l 1
 2176 914 l 1x861fc0
 2176 214 l 1
 2036 214 l 1
 2036 720 l 2
 2036 784 2012 838 1956 878 c 0
 1908 914 1848 932 1780 932 c 0
 1692 932 1620 900 1562 832 c 0
 1504 764 1478 690 1478 598 c 0
 1478 542 1492 490 1520 442 c 1
 1518 452 1516 462 1516 466 c 0
 1516 526 1536 576 1572 616 c 0
 1608 656 1658 676 1718 676 c 0
 1786 676 1842 652 1882 604 c 0
 1922 556 1942 500 1942 432 c 0
 1942 360 1920 302 1874 256 c 0
 1828 210 1772 190 1702 190 c 0
 1592 190 1500 234 1432 322 c 0
 1372 402 1344 498 1344 614 c 0
 1344 746 1384 856 1460 944 c 0
 1536 1032 1638 1072 1766 1072 c 0xcd1fc0
 1888 1072 1978 1030 2036 946 c 1
 2036 1052 l 1
 2794 1052 l 1
 2794 914 l 1x861fc0
2824 -2 m 1
 410 -2 l 2
 354 -2 308 20 264 58 c 0
 220 96 200 144 200 200 c 256xb4dfc0
 200 256 224 302 264 340 c 0
 304 378 352 398 410 398 c 2
 784 398 l 2
 856 398 916 422 962 468 c 0
 1008 514 1032 574 1032 646 c 0
 1032 746 988 824 904 880 c 0
 830 928 744 950 638 950 c 0
 532 950 458 928 420 880 c 1
 448 896 476 904 504 904 c 0
 564 904 618 882 662 842 c 0
 706 802 730 752 730 692 c 0
 730 622 704 564 656 520 c 0
 608 476 548 454 476 454 c 0
 396 454 334 484 286 536 c 0
 238 588 214 654 214 734 c 0xb4bfc0
 214 854 262 948 358 1018 c 0
 444 1078 550 1108 674 1108 c 0
 818 1108 942 1070 1042 994 c 0
 1148 910 1200 794 1200 652 c 0
 1200 534 1162 438 1082 364 c 0
 1002 290 902 250 782 250 c 2
 454 250 l 2
 410 250 388 230 388 192 c 0xb4dfc0
 388 156 410 136 454 136 c 2
 2824 136 l 1
 2824 -2 l 1
1802 440 m 0
 1802 510 1770 544 1708 544 c 0
 1648 544 1618 510 1618 440 c 0
 1618 368 1648 332 1708 332 c 0xcc1fc0
 1770 332 1802 368 1802 440 c 0
568 694 m 0
 568 722 560 740 538 760 c 0
 516 780 494 790 466 790 c 0
 402 790 370 758 370 696 c 0
 370 632 402 600 470 600 c 0x943fc0
 534 600 568 632 568 694 c 0
EndSplineSet
EndChar

StartChar: ta_e
Encoding: 50 2958 6
Width: 1786
VWidth: 2096
Flags: HW
HStem: -26 166<574 772> 2 50G<1224 1398> 432 156<576 772> 912 168<562 1224 1398 1786>
VStem: 200 166<294 714> 430 116<264 400> 802 168<166 398> 1224 172<2 912>
LayerCount: 2
Fore
SplineSet
1786 912 m 1xbf
 1398 912 l 1
 1398 2 l 1
 1224 2 l 1x7f
 1224 912 l 1
 776 912 l 2
 656 912 556 872 480 796 c 0
 404 720 366 624 366 506 c 0
 366 412 390 334 438 264 c 1
 434 292 430 310 430 322 c 0
 430 398 452 464 500 514 c 0
 548 564 610 588 684 588 c 0
 770 588 842 556 894 496 c 0
 946 436 970 364 970 278 c 0
 970 186 942 116 884 58 c 0
 826 0 754 -26 662 -26 c 0
 522 -26 410 30 322 142 c 0
 242 246 200 370 200 512 c 0
 200 688 258 824 374 928 c 0
 484 1028 632 1080 810 1080 c 2
 1786 1080 l 1
 1786 912 l 1xbf
802 288 m 256
 802 328 792 364 768 392 c 0
 744 420 712 432 674 432 c 0
 634 432 602 420 578 392 c 0
 554 364 546 328 546 288 c 256
 546 248 554 214 578 188 c 1
 602 156 634 140 674 140 c 0xbf
 712 140 744 156 768 188 c 1
 792 214 802 248 802 288 c 256
EndSplineSet
EndChar

StartChar: ta_ee
Encoding: 51 2959 7
Width: 1786
VWidth: 2096
Flags: HW
HStem: -26 166<578 772> 432 156<576 772> 910 170<564 1250 1422 1786>
VStem: 200 168<296 716> 430 116<266 396> 802 168<166 398> 1250 170<80 910>
LayerCount: 2
Fore
SplineSet
1786 910 m 1
 1422 910 l 1
 1422 -2 l 1
 1312 -36 1214 -94 1138 -168 c 0
 1062 -242 1004 -330 966 -434 c 1
 816 -334 l 1
 860 -228 922 -136 998 -62 c 0
 1072 8 1156 66 1250 106 c 1
 1250 910 l 1
 776 910 l 2
 654 910 554 870 480 794 c 0
 406 718 368 622 368 502 c 0
 368 414 392 334 440 264 c 1
 432 296 430 314 430 322 c 0
 430 398 452 464 500 514 c 0
 548 564 610 588 684 588 c 0
 770 588 842 556 894 496 c 0
 946 436 970 364 970 278 c 0
 970 186 942 116 884 58 c 0
 826 0 754 -26 662 -26 c 0
 522 -26 410 30 324 140 c 0
 242 244 200 366 200 508 c 0
 200 680 258 820 370 924 c 0
 482 1028 630 1080 810 1080 c 2
 1786 1080 l 1
 1786 910 l 1
802 288 m 256
 802 328 792 364 768 392 c 0
 744 420 712 432 674 432 c 0
 634 432 602 416 578 388 c 0
 554 360 546 326 546 288 c 256
 546 250 554 212 578 184 c 0
 602 156 634 140 674 140 c 0
 712 140 744 156 768 188 c 1
 792 214 802 248 802 288 c 256
EndSplineSet
EndChar

StartChar: ta_ai
Encoding: 52 2960 8
Width: 1788
VWidth: 2096
Flags: HW
HStem: -592 168<494 828 1216 1542> 148 170<498 1470> 376 156<402 572> 742 128<432 580> 928 172<468 874 1190 1518>
VStem: 200 170<-304 22 556 718> 596 178<554 726> 944 182<-314 80 408 860> 1618 170<-354 -84 462 826>
LayerCount: 2
Fore
SplineSet
1788 -230 m 0
 1788 -336 1746 -422 1664 -490 c 0
 1582 -558 1486 -592 1380 -592 c 0
 1214 -592 1102 -538 1040 -428 c 1
 944 -538 814 -592 648 -592 c 0
 524 -592 418 -548 332 -456 c 0
 246 -364 200 -258 200 -130 c 0
 200 -2 248 104 344 190 c 0
 440 276 550 320 680 320 c 2
 1284 320 l 2
 1380 320 1460 350 1522 410 c 0
 1584 470 1616 548 1616 644 c 0
 1616 724 1596 790 1552 842 c 0
 1504 900 1444 928 1364 928 c 0
 1206 928 1126 856 1126 710 c 2
 1126 408 l 1
 944 408 l 1
 944 710 l 2
 944 858 850 934 662 934 c 0
 562 934 488 902 432 842 c 1
 464 862 494 868 528 868 c 0
 596 868 652 848 700 802 c 0
 748 756 772 702 772 634 c 0
 772 558 746 494 694 446 c 0
 642 398 574 376 494 376 c 0
 410 376 342 406 286 466 c 0
 230 526 204 598 204 684 c 0
 204 806 252 906 344 986 c 0
 430 1060 534 1100 662 1100 c 0
 826 1100 946 1054 1022 968 c 1
 1092 1056 1206 1102 1352 1102 c 0
 1476 1102 1580 1056 1664 968 c 0
 1748 880 1788 772 1788 648 c 0
 1788 506 1748 392 1668 298 c 0
 1584 200 1470 148 1330 148 c 2
 676 148 l 2
 592 148 520 122 460 64 c 0
 400 6 370 -60 370 -142 c 0
 370 -222 398 -288 458 -344 c 0
 518 -400 588 -424 668 -424 c 0
 742 -424 806 -398 862 -346 c 0
 918 -294 944 -226 944 -152 c 2
 944 80 l 1
 1126 80 l 1
 1126 -178 l 2
 1126 -250 1150 -310 1198 -356 c 0
 1246 -402 1306 -424 1376 -424 c 0
 1438 -424 1494 -408 1544 -372 c 0
 1594 -336 1618 -286 1618 -226 c 0
 1618 -120 1568 -58 1464 -36 c 1
 1544 112 l 1
 1708 54 1788 -58 1788 -230 c 0
596 636 m 0
 596 664 584 688 562 710 c 0
 540 732 512 742 484 742 c 0
 452 742 428 732 408 712 c 0
 388 692 380 668 380 636 c 0
 380 608 388 582 410 562 c 0
 432 542 458 532 490 532 c 0
 518 532 542 542 564 562 c 0
 586 582 596 604 596 636 c 0
EndSplineSet
EndChar

StartChar: ta_o
Encoding: 53 2962 9
Width: 1836
VWidth: 2096
Flags: HW
HStem: -602 168<696 1040> -188 188<696 858 1292 1670> 2 166<510 686> 104 166<1444 1640> 434 168<508 686> 920 180<720 1344>
VStem: 200 170<376 634> 384 100<374 410> 488 172<-396 -216> 714 188<200 402> 1020 166<88 368> 1244 164<306 376> 1674 160<314 650>
LayerCount: 2
Fore
SplineSet
1836 452 m 0xeff8
 1836 354 1814 272 1766 208 c 0
 1710 138 1636 104 1540 104 c 0
 1460 104 1394 128 1334 180 c 0
 1274 232 1246 296 1244 376 c 1
 1206 336 1184 288 1184 240 c 0
 1184 176 1206 120 1250 72 c 0
 1294 24 1346 0 1408 0 c 2
 1670 0 l 1
 1670 -188 l 1
 1374 -188 l 2
 1324 -188 1284 -232 1256 -320 c 0
 1222 -424 1180 -496 1132 -536 c 0
 1076 -580 992 -602 880 -602 c 0
 772 -602 684 -580 614 -540 c 0
 530 -490 488 -412 488 -312 c 0
 488 -230 520 -162 580 -104 c 0
 640 -46 710 -16 792 -16 c 0
 814 -16 834 -20 858 -24 c 1
 858 -192 l 1
 842 -184 826 -182 806 -182 c 0
 768 -182 732 -194 704 -218 c 0
 676 -242 662 -274 662 -310 c 0
 662 -354 688 -386 744 -410 c 0
 784 -426 830 -434 882 -434 c 0
 964 -434 1022 -412 1056 -364 c 0
 1060 -360 1080 -302 1124 -194 c 0
 1144 -148 1166 -110 1194 -82 c 1
 1078 -34 1020 70 1020 228 c 0
 1020 328 1052 416 1122 490 c 0
 1192 564 1276 602 1376 602 c 0
 1416 602 1458 596 1496 584 c 1
 1436 550 1408 490 1408 398 c 0
 1408 362 1422 330 1448 304 c 0
 1474 278 1506 268 1540 268 c 0xdff8
 1584 268 1620 288 1644 326 c 0
 1664 360 1674 398 1674 444 c 0
 1674 600 1602 722 1460 808 c 0
 1340 882 1200 920 1034 920 c 0
 862 920 712 882 588 802 c 0
 444 710 372 584 372 420 c 0
 372 406 376 390 384 374 c 1
 384 444 404 500 448 540 c 0
 492 580 548 602 612 602 c 0
 696 602 764 574 820 514 c 0
 876 454 902 380 902 296 c 0
 902 208 872 134 812 82 c 0
 752 30 678 2 590 2 c 0
 472 2 376 46 302 134 c 0
 234 216 200 316 200 436 c 0
 200 648 288 814 464 936 c 0
 620 1044 808 1100 1026 1100 c 0
 1242 1100 1428 1046 1580 940 c 1
 1750 820 1836 658 1836 452 c 0xeff8
714 300 m 0
 714 334 706 366 684 394 c 0
 662 422 634 434 600 434 c 256
 566 434 540 422 518 394 c 0
 496 366 484 334 484 300 c 0
 484 266 496 236 518 208 c 0
 540 180 566 168 600 168 c 256xeff8
 634 168 662 180 684 208 c 0
 706 236 714 266 714 300 c 0
EndSplineSet
EndChar

StartChar: ta_oo
Encoding: 54 2963 10
Width: 1836
VWidth: 2096
Flags: HW
HStem: -604 140<856 1006> -202 160<646 818> -188 188<1302 1670> 2 176<506 692> 104 166<1436 1640> 428 176<506 692> 920 180<716 1342>
VStem: 200 170<376 638> 384 100<374 402> 472 154<-392 -222> 714 188<198 406> 830 120<-392 -214> 1020 166<86 368> 1244 164<296 376> 1674 160<314 650>
LayerCount: 2
Fore
SplineSet
1836 452 m 0x97ae
 1836 356 1812 272 1764 208 c 0
 1708 138 1634 104 1540 104 c 0
 1460 104 1394 128 1334 180 c 0
 1274 232 1246 296 1244 376 c 1
 1206 336 1184 288 1184 240 c 0
 1184 176 1206 120 1250 72 c 0
 1294 24 1346 0 1408 0 c 2
 1670 0 l 1
 1670 -188 l 1
 1386 -188 l 2xafae
 1342 -188 1310 -214 1288 -266 c 1
 1274 -310 1258 -352 1244 -396 c 1
 1182 -536 1052 -604 858 -604 c 0
 752 -604 664 -578 592 -528 c 0
 512 -470 472 -392 472 -292 c 0
 472 -220 492 -160 536 -112 c 0
 580 -64 636 -40 708 -40 c 0
 778 -40 834 -64 880 -110 c 0
 926 -156 950 -210 950 -280 c 0
 950 -360 918 -422 856 -466 c 1
 960 -466 1034 -418 1080 -324 c 1
 1094 -280 1108 -236 1124 -192 c 0
 1144 -140 1170 -104 1206 -82 c 1
 1082 -30 1020 74 1020 228 c 0
 1020 328 1054 416 1124 490 c 0
 1194 564 1278 602 1376 602 c 0
 1416 602 1458 596 1496 584 c 1
 1436 550 1408 486 1408 398 c 0
 1408 364 1422 334 1448 308 c 0
 1474 282 1506 268 1540 268 c 0xcf5e
 1584 268 1620 288 1644 326 c 0
 1664 360 1674 398 1674 444 c 0
 1674 600 1602 722 1460 808 c 0
 1338 882 1198 920 1034 920 c 0
 862 920 712 882 588 802 c 0
 444 710 372 584 372 420 c 0
 372 406 376 390 384 374 c 1
 384 442 404 494 448 538 c 0
 492 582 548 602 612 602 c 0
 696 602 764 574 820 514 c 0
 876 454 902 380 902 296 c 0
 902 210 872 140 812 84 c 0
 752 28 678 2 590 2 c 0
 474 2 378 46 304 134 c 0
 234 218 200 318 200 436 c 0
 200 644 290 814 468 936 c 0
 624 1044 808 1100 1026 1100 c 0
 1242 1100 1428 1046 1580 940 c 1
 1750 820 1836 658 1836 452 c 0x97ae
714 302 m 0
 714 334 704 362 680 388 c 0
 656 414 632 428 600 428 c 256
 568 428 542 414 518 388 c 0
 494 362 484 334 484 302 c 0
 484 268 494 242 518 216 c 0
 542 190 568 178 600 178 c 256x97ae
 632 178 656 190 680 216 c 0
 704 242 714 268 714 302 c 0
830 -302 m 0xc75e
 830 -274 820 -250 798 -230 c 0
 776 -210 754 -202 726 -202 c 0
 700 -202 676 -210 654 -230 c 0
 632 -250 626 -274 626 -302 c 0
 626 -366 658 -400 726 -400 c 0
 796 -400 830 -366 830 -302 c 0xc75e
EndSplineSet
EndChar

StartChar: ta_au
Encoding: 55 2964 11
Width: 3676
VWidth: 2096
Flags: HW
HStem: -604 140<856 1006> -202 160<646 818> -188 188<1302 1670> 2 176<506 692> 104 166<1436 1640 2320 2498> 428 176<506 692> 506 144<2322 2496> 936 152<766 1294 2952 3248 3412 3676> 956 158<2306 2686>
VStem: 200 170<376 638> 384 100<374 402> 472 154<-392 -222> 714 188<198 406> 830 120<-392 -214> 1020 166<86 368> 1244 164<296 376> 1674 160<314 650> 1984 148<378 772> 2186 112<366 480> 2520 160<280 480> 2796 156<120 854> 3248 164<120 936>
LayerCount: 2
Fore
SplineSet
3676 936 m 1x8143fc
 3412 936 l 1
 3412 120 l 1
 3248 120 l 1
 3248 936 l 1
 2952 936 l 1x8143fc
 2952 120 l 1
 2796 120 l 1
 2796 706 l 2
 2796 782 2764 844 2700 892 c 0
 2640 936 2572 956 2492 956 c 0
 2386 956 2302 916 2234 840 c 0
 2166 764 2132 668 2132 562 c 0
 2132 488 2156 422 2196 364 c 1
 2190 376 l 1
 2188 390 2186 402 2186 410 c 0
 2186 480 2206 538 2250 584 c 0
 2294 630 2348 650 2418 650 c 0
 2498 650 2560 628 2608 572 c 0
 2656 516 2680 452 2680 372 c 0
 2680 290 2652 222 2600 170 c 0
 2548 118 2482 94 2400 94 c 0
 2270 94 2166 144 2090 244 c 0
 2020 336 1984 452 1984 584 c 0
 1984 736 2028 860 2116 960 c 0
 2204 1060 2326 1114 2474 1114 c 0x82c3fc
 2626 1114 2732 1062 2796 958 c 1
 2796 1088 l 1
 3676 1088 l 1
 3676 936 l 1x8143fc
1836 452 m 0
 1836 356 1812 272 1764 208 c 0
 1708 138 1634 104 1540 104 c 0
 1460 104 1394 128 1334 180 c 0
 1274 232 1246 296 1244 376 c 1
 1206 336 1184 288 1184 240 c 0
 1184 176 1206 120 1250 72 c 0
 1294 24 1346 0 1408 0 c 2
 1670 0 l 1
 1670 -188 l 1
 1386 -188 l 2xa96bfc
 1342 -188 1310 -214 1288 -266 c 1
 1274 -310 1258 -352 1244 -396 c 1
 1182 -536 1052 -604 858 -604 c 0
 752 -604 664 -578 592 -528 c 0
 512 -470 472 -392 472 -292 c 0
 472 -220 492 -160 536 -112 c 0
 580 -64 636 -40 708 -40 c 0
 778 -40 834 -64 880 -110 c 0
 926 -156 950 -210 950 -280 c 0
 950 -360 918 -422 856 -466 c 1
 960 -466 1034 -418 1080 -324 c 1
 1094 -280 1108 -236 1124 -192 c 0
 1144 -140 1170 -104 1206 -82 c 1
 1082 -30 1020 74 1020 228 c 0
 1020 328 1054 416 1124 490 c 0
 1194 564 1278 602 1376 602 c 0
 1416 602 1458 596 1496 584 c 1
 1436 550 1408 486 1408 398 c 0
 1408 364 1422 334 1448 308 c 0
 1474 282 1506 268 1540 268 c 0xcc57fc
 1584 268 1620 288 1644 326 c 0
 1664 360 1674 398 1674 444 c 0
 1674 600 1602 722 1460 808 c 0
 1338 882 1198 920 1034 920 c 0
 862 920 712 882 588 802 c 0
 444 710 372 584 372 420 c 0
 372 406 376 390 384 374 c 1
 384 442 404 494 448 538 c 0
 492 582 548 602 612 602 c 0
 696 602 764 574 820 514 c 0
 876 454 902 380 902 296 c 0
 902 210 872 140 812 84 c 0
 752 28 678 2 590 2 c 0x946bfc
 474 2 378 46 304 134 c 0
 234 218 200 318 200 436 c 0
 200 644 290 814 468 936 c 0
 624 1044 808 1100 1026 1100 c 0
 1242 1100 1428 1046 1580 940 c 1
 1750 820 1836 658 1836 452 c 0
2520 380 m 0
 2520 416 2510 446 2490 470 c 0
 2470 494 2442 506 2408 506 c 256x8243fc
 2374 506 2348 494 2328 470 c 0
 2308 446 2298 416 2298 380 c 0
 2298 346 2308 314 2328 290 c 0
 2348 266 2374 252 2408 252 c 256
 2442 252 2470 266 2490 290 c 0
 2510 314 2520 346 2520 380 c 0
714 302 m 0x946bfc
 714 334 704 362 680 388 c 0
 656 414 632 428 600 428 c 256
 568 428 542 414 518 388 c 0
 494 362 484 334 484 302 c 0
 484 268 494 242 518 216 c 0
 542 190 568 178 600 178 c 256
 632 178 656 190 680 216 c 0
 704 242 714 268 714 302 c 0x946bfc
830 -302 m 0xc057fc
 830 -274 820 -250 798 -230 c 0
 776 -210 754 -202 726 -202 c 0
 700 -202 676 -210 654 -230 c 0
 632 -250 626 -274 626 -302 c 0
 626 -366 658 -400 726 -400 c 0
 796 -400 830 -366 830 -302 c 0xc057fc
EndSplineSet
EndChar

StartChar: ta_ka
Encoding: 56 2965 12
Width: 1484
VWidth: 2096
Flags: HW
HStem: -28 152<546 874 1152 1344> 456 176<440 526 696 938 1104 1344> 908 170<696 938 1104 1418>
VStem: 252 170<230 438> 526 170<632 908> 938 166<186 456 632 908> 1368 168<142 432>
LayerCount: 2
Fore
SplineSet
1484 300 m 4
 1484 82 1390 -28 1206 -28 c 4
 1148 -28 1098 -20 1052 2 c 5
 1114 146 l 5
 1142 130 1170 122 1198 122 c 4
 1278 122 1316 180 1316 292 c 4
 1316 402 1274 456 1182 456 c 6
 1052 456 l 5
 1052 326 l 6
 1052 210 1016 122 942 58 c 5
 872 0 778 -28 660 -28 c 4
 548 -28 446 8 352 80 c 4
 252 156 200 248 200 356 c 4
 200 540 292 634 474 632 c 5
 474 1078 l 5
 1366 1078 l 5
 1366 908 l 5
 1052 908 l 5
 1052 632 l 5
 1194 632 l 6
 1290 632 1362 600 1414 536 c 5
 1460 476 1484 398 1484 300 c 4
886 632 m 5
 886 908 l 5
 644 908 l 5
 644 632 l 5
 886 632 l 5
886 320 m 5
 886 322 l 5
 886 456 l 5
 522 456 l 6
 422 456 370 422 370 352 c 4
 370 290 404 238 468 192 c 4
 528 152 592 130 660 130 c 4
 802 130 878 192 886 320 c 5
EndSplineSet
EndChar

StartChar: ta_nga
Encoding: 57 2969 13
Width: 1666
VWidth: 2096
Flags: HW
HStem: 0 158<636 1054 1208 1490> 506 170<836 1068> 900 178<372 636 804 1192>
VStem: 200 172<0 900> 636 168<254 472 596 900> 1112 184<216 462> 1490 176<158 1072>
LayerCount: 2
Fore
SplineSet
1666 0 m 1
 636 0 l 1
 636 158 l 1
 928 158 l 2
 976 158 1020 176 1056 214 c 0
 1092 252 1112 296 1112 344 c 0
 1112 390 1096 426 1068 458 c 0
 1040 490 1002 506 956 506 c 0
 920 506 884 494 852 468 c 0
 820 442 804 410 804 376 c 2
 804 254 l 1
 636 254 l 1
 636 900 l 1
 372 900 l 1
 372 0 l 1
 200 0 l 1
 200 1078 l 1
 1192 1078 l 1
 1192 900 l 1
 804 900 l 1
 804 596 l 1
 850 652 912 676 986 676 c 0
 1082 676 1156 648 1212 588 c 0
 1268 528 1296 456 1296 364 c 0
 1296 284 1268 218 1208 158 c 1
 1490 158 l 1
 1490 1072 l 1
 1666 1072 l 1
 1666 0 l 1
EndSplineSet
EndChar

StartChar: ta_cha
Encoding: 58 2970 14
Width: 1364
VWidth: 2096
Flags: HW
HStem: -28 158<478 818> 456 176<386 462 632 874 1040 1364> 908 170<632 874 1040 1342>
VStem: 200 170<226 438> 462 170<632 908> 874 166<186 456 632 908>
LayerCount: 2
Fore
SplineSet
1364 456 m 1
 1040 456 l 1
 1040 326 l 2
 1040 210 1004 122 930 58 c 1
 860 0 766 -28 648 -28 c 0
 536 -28 436 8 344 80 c 0
 248 154 200 246 200 356 c 0
 200 540 290 634 462 632 c 1
 462 1078 l 1
 1342 1078 l 1
 1342 908 l 1
 1040 908 l 1
 1040 632 l 1
 1364 632 l 1
 1364 456 l 1
874 632 m 1
 874 908 l 1
 632 908 l 1
 632 632 l 1
 874 632 l 1
874 320 m 1
 874 322 l 1
 874 456 l 1
 508 456 l 2
 416 456 370 422 370 352 c 0
 370 288 402 236 464 192 c 0
 520 152 580 130 648 130 c 0
 790 130 866 192 874 320 c 1
EndSplineSet
EndChar

StartChar: ta_ja
Encoding: 59 2972 15
Width: 1788
VWidth: 2096
Flags: HW
HStem: -592 168<486 822 1328 1572> -38 164<1270 1562> 148 170<492 1474> 376 156<402 572> 742 128<432 580> 928 172<468 874 1190 1518>
VStem: 200 170<-310 26 556 718> 596 178<554 726> 944 182<408 860> 1128 176<-394 -302> 1620 168<-372 -96 466 822>
LayerCount: 2
Fore
SplineSet
1788 -226 m 0
 1788 -324 1760 -410 1700 -480 c 1
 1640 -554 1564 -592 1472 -592 c 256
 1380 -592 1300 -566 1236 -514 c 0
 1166 -456 1128 -386 1128 -302 c 1
 1304 -302 l 1
 1304 -338 1316 -368 1348 -392 c 0
 1380 -416 1416 -428 1456 -428 c 0
 1504 -428 1542 -408 1574 -370 c 0
 1606 -332 1620 -284 1620 -232 c 0
 1620 -184 1604 -138 1570 -98 c 0
 1536 -58 1500 -38 1456 -38 c 0
 1340 -38 1246 -86 1172 -182 c 1
 1112 -270 1048 -356 988 -448 c 1
 906 -544 798 -592 658 -592 c 0
 530 -592 422 -548 334 -456 c 0
 246 -364 200 -260 200 -132 c 0
 200 -8 246 100 334 188 c 0
 422 276 532 320 656 320 c 2
 1284 320 l 2
 1380 320 1460 350 1522 410 c 0
 1584 470 1616 548 1616 644 c 0
 1616 724 1596 790 1552 842 c 0
 1504 900 1444 928 1364 928 c 0
 1206 928 1126 856 1126 710 c 2
 1126 408 l 1
 944 408 l 1
 944 710 l 2
 944 858 850 934 662 934 c 0
 562 934 488 902 432 842 c 1
 464 862 494 868 528 868 c 0
 596 868 652 848 700 802 c 0
 748 756 772 702 772 634 c 0
 772 558 746 494 694 446 c 0
 642 398 574 376 494 376 c 0
 410 376 342 406 286 466 c 0
 230 526 204 598 204 684 c 0
 204 806 252 906 344 986 c 0
 430 1060 534 1100 662 1100 c 0
 826 1100 946 1054 1022 968 c 1
 1092 1056 1206 1102 1352 1102 c 0
 1476 1102 1580 1056 1664 968 c 0
 1748 880 1788 772 1788 648 c 0
 1788 506 1748 392 1666 298 c 0
 1582 200 1466 148 1330 148 c 2
 662 148 l 2
 582 148 514 122 456 64 c 0
 398 6 370 -60 370 -140 c 256
 370 -220 396 -288 452 -344 c 0
 508 -400 576 -424 658 -424 c 0
 758 -424 840 -380 910 -284 c 0
 1004 -152 1002 -148 1096 -16 c 1
 1188 80 1308 124 1456 124 c 0
 1548 124 1626 92 1690 22 c 0
 1754 -48 1788 -130 1788 -226 c 0
596 636 m 0
 596 664 584 688 562 710 c 0
 540 732 512 742 484 742 c 0
 452 742 428 732 408 712 c 0
 388 692 380 668 380 636 c 0
 380 608 388 582 410 562 c 0
 432 542 458 532 490 532 c 0
 518 532 542 542 564 562 c 0
 586 582 596 604 596 636 c 0
EndSplineSet
EndChar

StartChar: ta_nja
Encoding: 60 2974 16
Width: 2292
VWidth: 2096
Flags: HW
HStem: -610 152<970 1672> -26 166<930 1118> 432 156<926 1120> 500 172<1754 2020> 910 170<918 1562 1728 2174>
VStem: 200 160<108 764> 554 166<286 710> 780 116<264 398> 1154 166<178 396> 1562 166<14 474 580 910> 2116 176<-50 398>
LayerCount: 2
Fore
SplineSet
2292 188 m 0xdfe0
 2292 76 2264 -34 2214 -140 c 0
 2138 -304 2012 -424 1842 -504 c 0
 1694 -574 1520 -610 1320 -610 c 0
 1004 -610 738 -516 530 -334 c 0
 312 -144 200 108 200 422 c 0
 200 734 284 962 444 1104 c 1
 560 992 l 1
 428 870 362 680 362 430 c 0
 362 162 454 -54 642 -220 c 0
 822 -378 1048 -458 1320 -458 c 0
 1676 -458 1916 -336 2046 -86 c 0
 2092 6 2116 96 2116 190 c 0
 2116 274 2098 342 2060 400 c 0
 2016 464 1954 500 1874 500 c 0
 1840 500 1808 490 1776 470 c 0
 1744 450 1728 422 1728 388 c 2
 1728 14 l 1
 1562 14 l 1
 1562 910 l 1
 1120 910 l 2
 1004 910 908 868 834 792 c 0
 760 716 720 618 720 500 c 0xdfe0
 720 416 740 338 784 264 c 1
 782 284 780 302 780 322 c 0
 780 398 804 464 852 514 c 0
 900 564 962 588 1036 588 c 0xefe0
 1120 588 1190 556 1242 496 c 0
 1294 436 1320 364 1320 278 c 0
 1320 186 1290 116 1232 58 c 0
 1174 0 1104 -26 1012 -26 c 0
 870 -26 758 26 672 136 c 0
 592 236 554 362 554 506 c 0
 554 674 604 814 710 920 c 0
 816 1026 952 1080 1122 1080 c 2
 2174 1080 l 1
 2174 910 l 1
 1728 910 l 1
 1728 580 l 1
 1762 640 1816 672 1896 672 c 0
 2020 672 2118 618 2192 518 c 0
 2256 426 2292 320 2292 188 c 0xdfe0
1154 288 m 256
 1154 326 1142 360 1118 388 c 0
 1094 416 1062 432 1024 432 c 0xefe0
 986 432 954 420 930 392 c 0
 906 364 894 328 894 288 c 0
 894 250 906 212 930 184 c 0
 954 156 986 140 1024 140 c 0
 1062 140 1094 156 1118 184 c 0
 1142 212 1154 250 1154 288 c 256
EndSplineSet
EndChar

StartChar: ta_ta
Encoding: 61 2975 17
Width: 1486
VWidth: 2096
Flags: HW
HStem: -2 172<372 1486>
VStem: 200 172<170 1082>
LayerCount: 2
Fore
SplineSet
1486 -2 m 1
 200 -2 l 1
 200 1082 l 1
 372 1082 l 1
 372 170 l 1
 1486 170 l 1
 1486 -2 l 1
EndSplineSet
EndChar

StartChar: ta_nna
Encoding: 62 2979 18
Width: 3118
VWidth: 2096
Flags: W
HStem: -26 178<548.428 742.086 1249.83 1428.95 2023.16 2190.1> 432 156<550.794 737.185> 914 168<2253.09 2602 2782 3118> 944 162<683.323 1120.8 1520.28 1933.99>
VStem: 200 170<286.697 673.175> 404 114<273.54 392.962> 774 168<180.708 391.717> 1030 172<200.342 661.1> 1478 182<203.797 627.888> 1804 172<198.183 657.418> 2238 184<198.154 649.927> 2602 180<-2 914>
LayerCount: 2
Fore
SplineSet
3118 914 m 1xeff0
 2782 914 l 1
 2782 -2 l 1
 2602 -2 l 1
 2602 914 l 1
 2394 914 l 2xeff0
 2332 914 2282 898 2246 866 c 1
 2364 738 2422 588 2422 406 c 0
 2422 118 2326 -26 2126 -26 c 0
 2014 -26 1928 24 1870 128 c 0
 1826 210 1804 310 1804 432 c 0
 1804 612 1862 760 1974 876 c 1
 1906 922 1820 944 1720 944 c 0
 1610 944 1528 916 1472 866 c 1
 1596 730 1660 578 1660 406 c 0
 1660 288 1638 190 1598 116 c 1
 1542 20 1462 -26 1352 -26 c 0
 1240 -26 1154 24 1098 128 c 0
 1052 210 1030 310 1030 432 c 0
 1030 602 1084 746 1192 868 c 1
 1106 914 1010 938 904 938 c 0
 762 938 640 898 536 818 c 0
 426 734 370 622 370 482 c 0
 370 396 388 328 422 272 c 1
 412 300 404 324 404 346 c 0
 404 416 430 474 478 520 c 0
 526 566 586 588 656 588 c 0
 740 588 810 556 862 496 c 0
 914 436 942 364 942 278 c 0
 942 186 914 116 856 58 c 0
 798 0 726 -26 634 -26 c 0
 502 -26 398 22 316 122 c 0
 242 214 200 330 200 464 c 0
 200 664 268 818 404 936 c 1
 536 1046 702 1104 904 1104 c 0
 1056 1104 1192 1064 1314 984 c 1
 1436 1066 1566 1106 1706 1106 c 0xdff0
 1852 1106 1986 1068 2104 988 c 1
 2106 988 l 1
 2188 1050 2284 1082 2394 1082 c 2
 3118 1082 l 1
 3118 914 l 1xeff0
2238 418 m 0
 2238 570 2194 692 2110 780 c 1
 2018 700 1976 582 1976 418 c 0
 1976 240 2018 152 2110 152 c 0
 2194 152 2238 240 2238 418 c 0
1478 418 m 0
 1478 554 1428 676 1330 780 c 1
 1246 706 1202 584 1202 418 c 0
 1202 240 1246 152 1338 152 c 0
 1432 152 1478 240 1478 418 c 0
774 288 m 256
 774 326 762 360 738 388 c 0
 714 416 684 432 646 432 c 0
 608 432 574 416 550 388 c 0
 526 360 518 326 518 288 c 256
 518 250 526 212 550 184 c 0
 574 156 608 140 646 140 c 0
 684 140 714 156 738 184 c 0
 762 212 774 250 774 288 c 256
EndSplineSet
EndChar

StartChar: ta_tha
Encoding: 63 2980 19
Width: 1516
VWidth: 2096
Flags: HW
HStem: -272 158<404 1176> -28 158<506 846> 456 176<414 490 660 902 1068 1264> 908 170<660 902 1068 1382>
VStem: 200 172<-484 -292> 228 170<226 438> 490 170<632 908> 902 166<186 456 632 908> 1340 178<42 382>
LayerCount: 2
Fore
SplineSet
1516 214 m 0xf780
 1516 68 1462 -50 1356 -142 c 0
 1256 -226 1132 -272 984 -272 c 2
 478 -272 l 2
 450 -272 426 -278 404 -298 c 0
 382 -318 372 -342 372 -374 c 0
 372 -418 390 -444 428 -456 c 1
 314 -568 l 1
 238 -520 200 -452 200 -360 c 0
 200 -290 226 -232 276 -184 c 0
 326 -136 388 -112 458 -112 c 2
 988 -112 l 2
 1084 -112 1166 -80 1236 -16 c 0
 1306 48 1340 128 1340 224 c 0
 1340 294 1320 350 1276 394 c 0
 1232 438 1176 456 1104 456 c 1
 1096 458 1088 458 1068 456 c 1
 1068 326 l 2
 1068 210 1032 122 960 62 c 0
 888 2 794 -28 676 -28 c 0
 564 -28 464 8 372 80 c 0xfb80
 276 156 228 248 228 356 c 0
 228 540 318 634 490 632 c 1
 490 1078 l 1
 1382 1078 l 1
 1382 908 l 1
 1068 908 l 1
 1068 632 l 1
 1148 632 l 2
 1258 632 1350 590 1420 506 c 1
 1484 426 1516 330 1516 214 c 0xf780
902 632 m 1
 902 908 l 1
 660 908 l 1
 660 632 l 1
 902 632 l 1
902 320 m 1
 902 322 l 1
 902 456 l 1
 536 456 l 2
 444 456 398 422 398 352 c 0xf780
 398 288 430 236 492 192 c 0
 548 152 608 130 676 130 c 0
 818 130 894 192 902 320 c 1
EndSplineSet
EndChar

StartChar: ta_na
Encoding: 64 2984 20
Width: 1424
VWidth: 2096
Flags: HW
HStem: -272 158<404 1080> 500 172<900 1152> 908 178<436 694 862 1284>
VStem: 200 172<-484 -292> 260 178<8 908> 694 168<8 470 586 908> 1244 180<44 400>
LayerCount: 2
Fore
SplineSet
1424 206 m 0xee
 1424 62 1368 -52 1260 -144 c 0
 1160 -228 1034 -272 886 -272 c 2
 478 -272 l 2
 450 -272 426 -278 404 -298 c 0
 382 -318 372 -342 372 -374 c 0
 372 -418 390 -444 428 -456 c 1
 314 -568 l 1
 238 -520 200 -452 200 -360 c 0xf6
 200 -290 226 -232 276 -184 c 0
 326 -136 386 -112 456 -112 c 2
 890 -112 l 2
 982 -112 1064 -80 1136 -16 c 0
 1208 48 1244 122 1244 214 c 0
 1244 290 1222 354 1184 410 c 0
 1140 470 1082 500 1010 500 c 0
 972 500 940 490 908 470 c 0
 876 450 862 422 862 388 c 2
 862 8 l 1
 694 8 l 1
 694 908 l 1
 436 908 l 1
 436 8 l 1
 260 8 l 1
 260 1084 l 1
 1284 1084 l 1
 1284 908 l 1
 862 908 l 1
 862 586 l 1
 900 644 960 672 1040 672 c 0
 1150 672 1244 626 1316 532 c 0
 1388 438 1424 330 1424 206 c 0xee
EndSplineSet
EndChar

StartChar: ta_nnna
Encoding: 65 2985 21
Width: 2260
VWidth: 2096
Flags: HW
HStem: -26 166<548 744 1254 1426> 432 156<548 746> 914 166<1486 1830 2008 2260> 938 166<642 1158>
VStem: 200 170<274 686> 774 168<168 406> 1030 170<190 662> 1478 182<190 660> 1830 178<8 914>
LayerCount: 2
Fore
SplineSet
2260 914 m 1xef80
 2008 914 l 1
 2008 8 l 1
 1830 8 l 1
 1830 914 l 1
 1618 914 l 2xef80
 1560 914 1518 898 1484 866 c 1
 1548 796 1596 728 1622 658 c 0
 1648 588 1660 504 1660 406 c 0
 1660 288 1638 190 1598 116 c 1
 1542 20 1462 -26 1352 -26 c 0
 1240 -26 1154 24 1098 128 c 0
 1052 210 1030 310 1030 432 c 0
 1030 602 1084 746 1192 868 c 1
 1104 914 1008 938 904 938 c 0
 752 938 624 894 524 808 c 0
 424 722 370 614 370 482 c 0
 370 398 388 328 422 272 c 1
 418 284 412 300 410 328 c 0
 406 400 424 464 472 514 c 0
 520 564 582 588 656 588 c 0
 740 588 810 556 862 496 c 0
 914 436 942 364 942 278 c 0
 942 186 914 116 856 58 c 0
 798 0 726 -26 634 -26 c 0
 502 -26 396 22 316 122 c 0
 242 216 200 332 200 464 c 0
 200 656 264 808 394 926 c 0
 524 1044 692 1104 904 1104 c 0xdf80
 1056 1104 1192 1066 1314 986 c 1
 1398 1046 1494 1078 1600 1080 c 1
 1600 1080 1598 1080 1618 1080 c 2
 2260 1080 l 1
 2260 914 l 1xef80
1478 418 m 0
 1478 560 1434 680 1342 776 c 1
 1248 696 1202 576 1202 418 c 0
 1202 240 1246 152 1338 152 c 0
 1432 152 1478 240 1478 418 c 0
774 288 m 256
 774 326 762 360 738 388 c 0
 714 416 684 432 646 432 c 0
 608 432 574 416 550 388 c 0
 526 360 518 326 518 288 c 256
 518 250 526 212 550 184 c 0
 574 156 608 140 646 140 c 0
 684 140 714 156 738 184 c 0
 762 212 774 250 774 288 c 256
EndSplineSet
EndChar

StartChar: ta_pa
Encoding: 66 2986 22
Width: 1396
VWidth: 2096
Flags: HW
HStem: -2 172<372 1224>
VStem: 200 172<170 1082> 1224 172<170 1082>
LayerCount: 2
Fore
SplineSet
1396 -2 m 1
 200 -2 l 1
 200 1082 l 1
 372 1082 l 1
 372 170 l 1
 1224 170 l 1
 1224 1082 l 1
 1396 1082 l 1
 1396 -2 l 1
EndSplineSet
EndChar

StartChar: ta_ma
Encoding: 67 2990 23
Width: 1690
VWidth: 2096
Flags: HW
HStem: 0 178<378 810 998 1434> 934 176<1034 1294>
VStem: 200 178<178 1078> 810 190<178 898> 1490 200<234 682>
LayerCount: 2
Fore
SplineSet
1690 444 m 0
 1690 310 1652 204 1578 122 c 0
 1504 40 1400 0 1266 0 c 2
 200 0 l 1
 200 1078 l 1
 378 1078 l 1
 378 178 l 1
 810 178 l 1
 810 780 l 2
 810 872 840 946 902 1010 c 0
 964 1074 1044 1108 1136 1108 c 0
 1296 1108 1430 1036 1538 892 c 1
 1638 760 1690 610 1690 444 c 0
1490 430 m 0
 1490 540 1462 646 1402 752 c 0
 1332 874 1250 934 1146 934 c 0
 1106 934 1070 918 1042 890 c 0
 1014 862 998 828 998 788 c 2
 998 178 l 1
 1302 178 l 2
 1430 178 1490 262 1490 430 c 0
EndSplineSet
EndChar

StartChar: ta_ya
Encoding: 68 2991 24
Width: 1480
VWidth: 2096
Flags: HW
HStem: -24 168<420 618 836 1312>
VStem: 200 180<194 1080> 658 178<198 1080> 1312 168<146 1080>
LayerCount: 2
Fore
SplineSet
1480 -8 m 1
 682 -8 l 1
 682 86 l 1
 644 12 590 -24 520 -24 c 0
 306 -24 200 76 200 278 c 2
 200 1080 l 1
 380 1080 l 1
 380 302 l 2
 380 262 392 224 418 192 c 0
 444 160 476 144 514 144 c 0
 558 144 594 160 620 196 c 0
 646 232 658 270 658 314 c 2
 658 1080 l 1
 836 1080 l 1
 836 146 l 1
 1312 146 l 1
 1312 1080 l 1
 1480 1080 l 1
 1480 -8 l 1
EndSplineSet
EndChar

StartChar: ta_ra
Encoding: 69 2992 25
Width: 1262
VWidth: 2096
Flags: W
HStem: 914 170<374 700 874 1262>
VStem: 200 174<2 914> 700 174<85.9545 914>
LayerCount: 2
Fore
SplineSet
1262 914 m 1
 874 914 l 1
 874 -2 l 1
 764 -36 666 -94 590 -168 c 0
 514 -242 456 -330 418 -434 c 1
 268 -334 l 1
 312 -228 376 -136 452 -62 c 0
 526 8 606 66 700 106 c 1
 700 914 l 1
 374 914 l 1
 374 2 l 1
 200 2 l 1
 200 1084 l 1
 1262 1084 l 1
 1262 914 l 1
EndSplineSet
EndChar

StartChar: ta_rra
Encoding: 70 2993 26
Width: 1500
VWidth: 2096
Flags: HW
HStem: -272 160<404 1110> -2 50G<260 446 720 904> 934 176<480 682 942 1198>
VStem: 200 170<-486 -294> 260 184<-2 902> 720 184<-2 886> 1332 168<164 762>
LayerCount: 2
Fore
SplineSet
1500 452 m 0xee
 1500 256 1454 92 1362 -40 c 0
 1256 -192 1112 -272 924 -272 c 2
 480 -272 l 2
 452 -272 424 -280 402 -300 c 0
 380 -320 372 -346 372 -374 c 0
 372 -418 394 -444 432 -456 c 1
 316 -572 l 1
 240 -524 200 -454 200 -360 c 0xf6
 200 -290 226 -230 278 -182 c 0
 330 -134 388 -110 458 -110 c 2
 928 -110 l 2
 1062 -110 1166 -46 1240 84 c 0
 1300 192 1332 320 1332 466 c 0
 1332 582 1312 680 1278 764 c 0
 1230 876 1158 934 1058 934 c 0
 1014 934 982 920 950 888 c 0
 918 856 904 824 904 780 c 2
 904 -2 l 1
 720 -2 l 1
 720 780 l 2
 720 820 704 856 678 888 c 0
 652 920 618 934 578 934 c 0
 540 934 510 918 484 886 c 0
 458 854 446 818 446 780 c 2
 446 -2 l 1
 260 -2 l 1
 260 792 l 2
 260 878 292 954 356 1016 c 0
 420 1078 498 1108 584 1108 c 0
 676 1108 752 1074 812 1004 c 1
 872 1074 954 1108 1060 1108 c 0
 1218 1108 1336 1034 1410 886 c 0
 1470 770 1500 624 1500 452 c 0xee
EndSplineSet
EndChar

StartChar: ta_la
Encoding: 71 2994 27
Width: 1868
VWidth: 2096
Flags: HW
HStem: -26 166<580 770 1300 1580> 432 156<576 772> 938 168<592 992>
VStem: 200 166<292 718> 428 116<262 396> 800 168<168 406> 1080 170<210 852> 1684 184<266 818>
LayerCount: 2
Fore
SplineSet
1868 566 m 0
 1868 402 1836 270 1776 166 c 0
 1702 38 1588 -26 1436 -26 c 0
 1330 -26 1244 8 1180 80 c 0
 1116 152 1080 238 1080 344 c 2
 1080 706 l 2
 1080 780 1052 840 996 884 c 0
 946 922 880 938 804 938 c 0
 680 938 576 896 492 814 c 0
 408 732 366 628 366 504 c 0
 366 408 390 326 438 262 c 1
 430 286 428 306 428 322 c 0
 428 398 450 464 498 514 c 0
 546 564 608 588 682 588 c 0
 766 588 836 556 888 496 c 0
 940 436 968 364 968 278 c 0
 968 186 940 116 882 58 c 0
 824 0 752 -26 660 -26 c 0
 518 -26 406 26 320 136 c 0
 240 236 200 362 200 506 c 0
 200 682 260 826 372 938 c 0
 484 1050 628 1106 804 1106 c 0
 926 1106 1028 1074 1110 1012 c 1
 1204 944 1252 852 1252 736 c 2
 1252 370 l 2
 1252 308 1264 252 1290 208 c 0
 1324 152 1366 124 1426 124 c 0
 1520 124 1588 176 1632 272 c 0
 1666 344 1684 432 1684 538 c 0
 1684 764 1610 922 1458 1018 c 1
 1572 1140 l 1
 1768 1012 1868 820 1868 566 c 0
800 288 m 256
 800 326 788 360 764 388 c 0
 740 416 710 432 672 432 c 0
 634 432 604 416 580 388 c 0
 556 360 544 326 544 288 c 256
 544 250 556 212 580 184 c 0
 604 156 634 140 672 140 c 0
 710 140 740 156 764 184 c 0
 788 212 800 250 800 288 c 256
EndSplineSet
EndChar

StartChar: ta_lla
Encoding: 72 2995 28
Width: 2082
VWidth: 2096
Flags: HW
HStem: -26 166<574 768> 2 50G<1104 1276 1612 1786> 432 156<576 770> 914 164<1276 1612 1786 2082> 936 170<564 964>
VStem: 200 160<292 714> 428 116<250 398> 800 168<176 398> 1104 170<2 810> 1612 176<2 914>
LayerCount: 2
Fore
SplineSet
2082 914 m 1x37c0
 1786 914 l 1
 1786 2 l 1
 1612 2 l 1
 1612 914 l 1
 1276 914 l 1
 1276 2 l 1
 1104 2 l 1x77c0
 1104 652 l 2
 1104 738 1068 810 996 862 c 0
 932 910 856 936 764 936 c 0
 646 936 548 892 474 804 c 0
 400 716 360 614 360 494 c 0
 360 398 386 318 442 250 c 1
 432 294 428 320 428 322 c 0
 428 398 450 464 498 514 c 0
 546 564 608 588 682 588 c 0
 766 588 836 556 888 496 c 0
 940 436 968 364 968 278 c 0
 968 186 940 116 882 58 c 0
 824 0 752 -26 660 -26 c 0
 516 -26 402 30 318 140 c 0
 242 244 200 370 200 516 c 0
 200 684 248 822 344 932 c 0
 444 1048 578 1106 744 1106 c 0xafc0
 916 1106 1036 1044 1104 920 c 1
 1104 1078 l 1
 2082 1078 l 1
 2082 914 l 1x37c0
800 288 m 0
 800 328 790 364 766 392 c 0
 742 420 710 432 672 432 c 256
 634 432 604 420 580 392 c 0
 556 364 544 328 544 288 c 256
 544 248 552 214 576 188 c 1
 600 156 634 140 672 140 c 256xa7c0
 710 140 742 156 766 184 c 0
 790 212 800 250 800 288 c 0
EndSplineSet
EndChar

StartChar: ta_zha
Encoding: 73 2996 29
Width: 1720
VWidth: 2096
GlyphClass: 2
Flags: HW
HStem: -708 166<436 786> -316 188<1140 1444> -276 170<388 700> 0 178<408 840 1032 1462> 934 176<1064 1324>
VStem: 200 178<-486 -286> 230 178<178 1078> 840 190<-108 0 178 898> 1520 200<234 682>
LayerCount: 2
Fore
SplineSet
1720 444 m 0xbb80
 1720 310 1682 204 1608 122 c 0
 1534 40 1428 0 1296 0 c 2
 1032 0 l 1
 1032 -26 l 2
 1032 -96 1084 -130 1190 -130 c 2
 1444 -130 l 1
 1444 -316 l 1
 1256 -316 l 2xdb80
 1204 -316 1148 -350 1088 -418 c 0
 994 -524 936 -588 912 -608 c 0
 826 -676 722 -708 604 -708 c 0
 504 -708 416 -682 336 -626 c 0
 244 -566 200 -490 200 -394 c 0
 200 -310 226 -236 282 -184 c 0
 338 -132 410 -106 494 -106 c 2
 700 -106 l 1
 700 -276 l 1
 486 -276 l 2
 414 -276 378 -308 378 -376 c 0xbd80
 378 -432 406 -472 458 -504 c 0
 502 -530 550 -542 608 -542 c 0
 678 -542 738 -526 786 -490 c 0
 810 -470 848 -430 896 -368 c 0
 942 -310 986 -266 1024 -240 c 1
 902 -226 842 -146 842 0 c 1
 230 0 l 1
 230 1078 l 1
 408 1078 l 1
 408 178 l 1
 840 178 l 1
 840 780 l 2
 840 872 870 946 932 1010 c 0
 994 1074 1074 1108 1166 1108 c 0
 1326 1108 1460 1036 1568 892 c 1
 1668 760 1720 610 1720 444 c 0xbb80
1520 430 m 0
 1520 540 1492 648 1432 752 c 0
 1362 874 1280 934 1176 934 c 0
 1136 934 1100 918 1072 890 c 0
 1044 862 1028 828 1028 788 c 2
 1028 178 l 1
 1332 178 l 2
 1460 178 1520 262 1520 430 c 0
EndSplineSet
EndChar

StartChar: ta_va
Encoding: 74 2997 30
Width: 1938
VWidth: 2096
Flags: HW
HStem: -26 166<576 774> -2 168<1314 1770> 432 156<576 774> 938 166<594 1026>
VStem: 200 168<290 714> 432 116<264 400> 804 168<166 398> 1254 170<264 708> 1770 168<166 1078>
LayerCount: 2
Fore
SplineSet
1938 -2 m 1x7f80
 1094 -2 l 1x7f80
 1084 112 l 1
 1196 210 1254 336 1254 484 c 0
 1254 616 1212 722 1128 808 c 0
 1044 894 936 938 806 938 c 0
 684 938 580 896 496 812 c 0
 412 728 368 624 368 502 c 0
 368 418 392 338 436 264 c 1
 434 284 432 302 432 322 c 0
 432 398 452 464 500 514 c 0
 548 564 612 588 686 588 c 0
 772 588 842 556 894 496 c 0
 946 436 972 364 972 278 c 0
 972 186 942 116 884 58 c 0
 826 0 756 -26 664 -26 c 0
 524 -26 412 30 326 140 c 0xbf80
 244 244 200 366 200 508 c 0
 200 684 262 828 374 938 c 0
 486 1048 630 1104 808 1104 c 256
 986 1104 1132 1048 1250 936 c 0
 1368 824 1424 680 1424 502 c 0
 1424 384 1388 272 1314 166 c 1
 1770 166 l 1
 1770 1078 l 1
 1938 1078 l 1
 1938 -2 l 1x7f80
804 288 m 256
 804 328 794 364 770 392 c 0
 746 420 714 432 676 432 c 0
 636 432 604 420 580 392 c 0
 556 364 546 328 546 288 c 256
 546 248 556 214 580 188 c 1
 604 156 636 140 676 140 c 0xbf80
 714 140 746 156 770 188 c 1
 794 214 804 248 804 288 c 256
EndSplineSet
EndChar

StartChar: ta_ssa
Encoding: 75 2998 31
Width: 1804
Flags: HW
HStem: -16 160<416 640 1392 1596> 888 166<868 1172 1348 1630>
VStem: 200 176<186 1054> 694 172<200 888> 1172 176<218 888> 1630 172<190 888>
LayerCount: 2
Fore
SplineSet
1804 276 m 2
 1804 192 1774 122 1714 66 c 0
 1654 10 1580 -16 1494 -16 c 0
 1400 -16 1322 14 1262 76 c 0
 1202 138 1172 218 1172 312 c 2
 1172 888 l 1
 868 888 l 1
 868 312 l 2
 868 218 834 138 770 76 c 0
 706 14 626 -16 532 -16 c 0
 444 -16 368 10 304 62 c 0
 236 120 200 192 200 276 c 2
 200 1054 l 1
 376 1054 l 1
 376 296 l 2
 376 254 392 218 424 188 c 0
 456 158 494 144 536 144 c 0
 584 144 624 168 654 216 c 0
 682 258 694 304 694 356 c 2
 694 1054 l 1
 1804 1054 l 1
 1804 276 l 2
1630 296 m 2
 1630 888 l 1
 1348 888 l 1
 1348 356 l 2
 1348 304 1358 256 1378 216 c 1
 1406 168 1444 144 1492 144 c 0
 1534 144 1566 158 1592 188 c 0
 1618 218 1630 254 1630 296 c 2
EndSplineSet
EndChar

StartChar: ta_sha
Encoding: 76 2999 32
Width: 2538
VWidth: 2096
Flags: HW
HStem: -26 166<578 774> -2 172<1290 1972 2148 2360> 320 170<1764 1972 2148 2270> 432 156<576 774> 936 168<602 1038 1688 1932>
VStem: 200 168<290 714> 432 116<264 396> 804 168<166 398> 1228 170<268 742> 1464 170<606 882> 1972 176<-544 -2 170 320 500 894> 2360 178<170 420> 2400 140<602 734>
LayerCount: 2
Fore
SplineSet
2538 -2 m 1x6fe8
 2148 -2 l 1
 2148 -544 l 1
 1972 -544 l 1
 1972 -2 l 1
 1070 -2 l 1x6fe8
 1058 118 l 1
 1174 214 1228 340 1228 496 c 0
 1228 630 1194 736 1122 816 c 0
 1050 896 950 936 818 936 c 0
 694 936 588 894 500 812 c 0
 412 730 368 626 368 502 c 0
 368 418 392 338 436 264 c 1
 434 284 432 302 432 322 c 0
 432 398 452 464 500 514 c 0
 548 564 612 588 686 588 c 0
 772 588 842 556 894 496 c 0
 946 436 972 364 972 278 c 0
 972 186 942 116 884 58 c 0
 826 0 756 -26 664 -26 c 0
 524 -26 412 30 326 140 c 0x9fe8
 244 244 200 366 200 508 c 0
 200 684 260 828 380 938 c 0
 500 1048 648 1104 820 1104 c 0
 988 1104 1130 1048 1238 938 c 0
 1346 828 1398 686 1398 514 c 0
 1398 392 1362 278 1290 170 c 1
 1972 170 l 1
 1972 320 l 1
 1836 320 1716 358 1620 434 c 0
 1514 516 1464 624 1464 758 c 0
 1464 864 1498 948 1568 1010 c 0
 1638 1072 1728 1104 1836 1104 c 0
 1928 1104 2000 1074 2060 1022 c 0
 2120 970 2148 900 2148 808 c 2
 2148 500 l 1
 2216 512 2272 538 2318 576 c 0
 2374 620 2400 672 2400 734 c 1
 2538 734 l 1
 2538 -2 l 1x6fe8
2360 170 m 1x4ff0
 2360 420 l 1
 2296 360 2228 328 2148 324 c 1
 2148 170 l 1
 2360 170 l 1x4ff0
1972 796 m 2
 1972 836 1954 872 1926 896 c 0
 1898 920 1860 932 1820 932 c 0
 1764 932 1720 916 1686 884 c 0
 1652 852 1634 810 1634 754 c 0
 1634 672 1670 604 1742 554 c 0
 1806 510 1886 490 1972 490 c 1x2fe0
 1972 796 l 2
804 288 m 0
 804 328 794 364 770 392 c 0
 746 420 714 432 676 432 c 0
 636 432 604 416 580 388 c 0
 556 360 546 326 546 288 c 0
 546 250 556 212 580 184 c 0
 604 156 636 140 676 140 c 0x9fe0
 714 140 746 156 770 188 c 1
 794 214 804 248 804 288 c 0
EndSplineSet
EndChar

StartChar: ta_sa
Encoding: 77 3000 33
Width: 2334
VWidth: 2096
Flags: W
HStem: -26 166<579.46 764.534> -26 150<1784.85 2035.01> 0 21G<1100 1270> 432 156<578.321 766.911> 940 166<608.672 999.345 1299.94 1516.77>
VStem: 200 168<305.133 698.452> 428 118<264.932 393.234> 800 170<175.134 395.41> 1100 170<0 844.785> 1558 170<179.25 900.78> 2160 174<280.444 797.775>
LayerCount: 2
Fore
SplineSet
2334 566 m 0x5fe0
 2334 398 2304 264 2246 164 c 0
 2174 36 2062 -26 1910 -26 c 0x5fe0
 1806 -26 1724 8 1656 80 c 0
 1588 152 1558 238 1558 344 c 2
 1558 814 l 2
 1558 848 1544 876 1518 902 c 0
 1492 928 1456 940 1418 940 c 0
 1318 942 1270 894 1270 790 c 2
 1270 0 l 1
 1100 0 l 1x3fe0
 1100 694 l 2
 1100 860 1000 940 798 940 c 0
 678 940 576 898 492 812 c 0
 408 726 368 624 368 502 c 0
 368 418 390 338 434 264 c 1
 430 284 428 302 428 322 c 0
 428 398 450 464 498 514 c 0
 546 564 608 588 684 588 c 0
 768 588 838 556 890 496 c 0
 942 436 970 364 970 278 c 0
 970 186 942 116 884 58 c 0
 826 0 752 -26 660 -26 c 0
 524 -26 410 30 322 140 c 0x9fe0
 242 244 200 366 200 508 c 0
 200 666 254 806 360 922 c 0
 472 1044 612 1104 776 1106 c 0
 862 1108 940 1094 1010 1066 c 0
 1080 1038 1128 998 1152 948 c 1
 1162 994 1194 1032 1246 1060 c 0
 1298 1088 1354 1106 1414 1106 c 0
 1498 1106 1572 1082 1634 1034 c 0
 1696 986 1728 924 1728 850 c 2
 1728 344 l 2
 1728 198 1788 124 1904 124 c 0
 1998 124 2066 172 2110 268 c 0
 2144 340 2160 430 2160 538 c 0
 2160 764 2084 922 1932 1018 c 1
 2050 1140 l 1
 2240 1016 2334 826 2334 566 c 0x5fe0
800 288 m 256
 800 328 790 364 766 392 c 0
 742 420 710 432 672 432 c 0
 632 432 600 416 578 388 c 0
 556 360 546 326 546 288 c 256
 546 250 556 212 578 184 c 0
 600 156 632 140 672 140 c 0x9fe0
 710 140 744 156 768 188 c 0
 790 214 800 248 800 288 c 256
EndSplineSet
EndChar

StartChar: ta_ha
Encoding: 78 3001 34
Width: 2876
VWidth: 2096
Flags: HW
HStem: -272 160<406 2486> -26 166<602 798> -2 172<1314 1638> 432 156<600 798> 934 176<620 1068 1856 2058 2320 2574>
VStem: 200 172<-486 -294> 224 168<290 714> 456 116<264 396> 828 168<166 398> 1252 170<268 742> 1638 184<170 902> 2096 182<-2 886> 2708 168<164 762>
LayerCount: 2
Fore
SplineSet
2876 452 m 0xbbf8
 2876 256 2832 92 2740 -40 c 0
 2634 -192 2488 -272 2300 -272 c 2
 480 -272 l 2
 452 -272 426 -280 404 -300 c 0
 382 -320 374 -346 374 -374 c 0
 374 -418 394 -444 432 -456 c 1
 316 -572 l 1
 240 -524 200 -454 200 -360 c 0
 200 -290 226 -230 278 -182 c 0
 330 -134 390 -110 460 -110 c 2
 2306 -110 l 2
 2440 -110 2544 -46 2618 84 c 0
 2678 192 2708 320 2708 466 c 0
 2708 582 2690 680 2656 764 c 0
 2608 876 2536 934 2436 934 c 0
 2392 934 2356 920 2324 888 c 0
 2292 856 2280 824 2280 780 c 2
 2280 -2 l 1
 2096 -2 l 1
 2096 780 l 2
 2096 820 2082 856 2056 888 c 0
 2030 920 1996 934 1956 934 c 0
 1918 934 1888 918 1862 886 c 0
 1836 854 1824 818 1824 780 c 2
 1824 -2 l 1
 1094 -2 l 1xbdf8
 1082 118 l 1
 1198 214 1252 340 1252 496 c 0
 1252 630 1218 736 1146 816 c 0
 1074 896 974 936 842 936 c 0
 718 936 612 894 524 812 c 0
 436 730 392 626 392 502 c 0
 392 418 416 338 460 264 c 1
 458 284 456 302 456 322 c 0
 456 398 476 464 524 514 c 0
 572 564 636 588 710 588 c 0
 796 588 866 556 918 496 c 0
 970 436 996 364 996 278 c 0
 996 186 966 116 908 58 c 0
 850 0 780 -26 688 -26 c 0
 548 -26 436 30 350 140 c 0xdbf8
 268 244 224 366 224 508 c 0
 224 684 284 828 404 938 c 0
 524 1048 672 1104 844 1104 c 0
 1012 1104 1154 1048 1262 938 c 0
 1370 828 1422 686 1422 514 c 0
 1422 392 1386 278 1314 170 c 1
 1412 172 1520 172 1638 170 c 1
 1638 792 l 2
 1638 878 1670 954 1734 1016 c 0
 1798 1078 1874 1108 1960 1108 c 0
 2052 1108 2130 1074 2190 1004 c 1
 2250 1074 2332 1108 2438 1108 c 0
 2596 1108 2712 1034 2786 886 c 0
 2846 770 2876 624 2876 452 c 0xbbf8
828 288 m 256
 828 328 818 364 794 392 c 0
 770 420 738 432 700 432 c 0
 660 432 628 416 604 388 c 0
 580 360 570 326 570 288 c 256
 570 250 580 212 604 184 c 0
 628 156 660 140 700 140 c 0xd9f8
 738 140 770 156 794 188 c 1
 818 214 828 248 828 288 c 256
EndSplineSet
EndChar

StartChar: ta_aa_sign
Encoding: 79 3006 35
Width: 1176
Flags: HW
HStem: 2 46G<200 370 678 846> 892 166<370 678 846 1176>
VStem: 200 170<2 892> 678 168<-2 892>
LayerCount: 2
Fore
SplineSet
1176 892 m 1
 846 892 l 1
 846 -2 l 1
 678 -2 l 1
 678 892 l 1
 370 892 l 1
 370 2 l 1
 200 2 l 1
 200 1058 l 1
 1176 1058 l 1
 1176 892 l 1
92 584 m 1
92 468 m 1
768 -22 m 1
646 -22 m 1
EndSplineSet
EndChar

StartChar: ta_i_sign
Encoding: 80 3007 36
Width: 1128
Flags: HW
HStem: 1054 6<504 508> 1520 180<458 834>
VStem: 200 168<1138 1434> 948 180<1260 1406>
LayerCount: 2
Fore
SplineSet
292 992 m 25,0,-1
662 1700 m 0,1,-1
 402 1700 200 1552 200 1300 c 0,4,-1
 200 1210 228 1134 288 1070 c 1,7,-1
 196 1058 508 1054 508 1054 c 25,10,-1
 508 1054 528 1056 512 1060 c 0,13,-1
 438 1092 368 1190 368 1292 c 0,16,-1
 368 1448 496 1520 662 1520 c 0,19,-1
 810 1520 948 1408 948 1260 c 2,22,-1
 948 0 l 1,23,-1
 1128 0 l 1,24,-1
 1128 1272 l 2,25,-1
 1128 1394 1080 1494 988 1576 c 0,28,-1
 896 1658 786 1700 662 1700 c 0,1,-1
792 848 m 1,31,-1
EndSplineSet
EndChar

StartChar: ta_ii_sign
Encoding: 81 3008 37
Width: 1016
Flags: W
HStem: 1148 148<654.604 812.711> 1562 182<564.188 812.301>
VStem: 200 168<1165.11 1454.27> 484 140<1331.23 1534.82> 844 172<1324.09 1534.76>
LayerCount: 2
Fore
SplineSet
1016 1440 m 4
 1016 1356 992 1288 944 1232 c 4
 896 1176 832 1148 750 1148 c 4
 674 1148 610 1172 560 1224 c 4
 510 1276 484 1340 484 1416 c 4
 484 1460 492 1500 506 1536 c 5
 414 1484 368 1408 368 1304 c 4
 368 1260 382 1214 410 1164 c 4
 478 1034 500 1044 500 1044 c 5
 500 1044 200 986 200 1312 c 4
 200 1444 248 1550 342 1632 c 4
 430 1708 542 1744 676 1744 c 4
 774 1744 856 1718 920 1664 c 4
 984 1610 1016 1534 1016 1440 c 4
770 848 m 5
-48 856 m 5
1304 -22 m 1
1182 -22 m 1
844 1430 m 4
 844 1462 832 1492 812 1520 c 4
 792 1548 766 1562 734 1562 c 260
 702 1562 674 1548 654 1520 c 4
 634 1492 624 1462 624 1430 c 4
 624 1396 634 1366 654 1338 c 4
 674 1310 702 1296 734 1296 c 260
 766 1296 792 1310 812 1338 c 4
 832 1366 844 1396 844 1430 c 4
EndSplineSet
EndChar

StartChar: ta_u_sign
Encoding: 82 3009 38
Width: 1438
Flags: W
HStem: 362 170<961.349 1199.04> 888 190<200 766> 904 174<958.336 1201.66>
VStem: 724 170<598.053 838.896> 1266 172<598.053 838.135>
LayerCount: 2
Fore
SplineSet
1438 720 m 0xb8
 1438 620 1404 536 1334 466 c 0
 1264 396 1180 362 1080 362 c 0
 980 362 898 396 828 466 c 0
 758 536 724 620 724 720 c 0
 724 780 738 836 766 888 c 1
 200 888 l 1
 200 1078 l 1xd8
 1080 1078 l 2
 1180 1078 1264 1042 1334 972 c 0
 1404 902 1438 818 1438 720 c 0xb8
1266 720 m 0
 1266 772 1248 814 1212 850 c 0
 1176 886 1132 904 1080 904 c 0xb8
 1028 904 984 886 948 850 c 0
 912 814 894 772 894 720 c 0
 894 668 912 624 948 588 c 0
 984 552 1028 532 1080 532 c 0
 1132 532 1176 552 1212 588 c 0
 1248 624 1266 668 1266 720 c 0
EndSplineSet
EndChar

StartChar: ta_uu_sign
Encoding: 83 3010 39
Width: 2194
Flags: HW
HStem: -716 166<-910 -248> -250 166<-1060 -718> 116 184<-52 160>
VStem: -1248 180<-434 -272> -284 10<326 358> -274 176<-202 90 194 264 266 336> 194 172<-226 82>
LayerCount: 2
Fore
SplineSet
204 1170 m 1
 902 1174 l 1
 902 1358 958 1510 1072 1634 c 0
 1186 1758 1336 1820 1518 1820 c 0
 1724 1820 1892 1740 2018 1578 c 1
 2136 1430 2194 1252 2194 1040 c 0
 2194 800 2118 596 1962 426 c 0
 1802 252 1602 164 1366 164 c 0
 1146 164 958 244 800 404 c 1
 898 536 l 1
 1026 404 1180 338 1360 338 c 0
 1552 338 1712 408 1840 548 c 1
 1966 682 2030 846 2030 1038 c 0
 2030 1202 1986 1342 1898 1458 c 0
 1802 1588 1674 1652 1518 1652 c 0
 1386 1652 1278 1606 1196 1514 c 0
 1114 1422 1072 1308 1072 1174 c 1
 1262 1174 l 2
 1354 1174 1430 1146 1486 1088 c 0
 1542 1030 1570 956 1570 864 c 0
 1570 764 1540 682 1478 612 c 0
 1416 542 1336 506 1238 506 c 0
 1142 506 1062 544 998 618 c 0
 934 692 902 778 902 876 c 2
 902 996 l 1
 200 1006 l 1
 204 1170 l 1
1398 864 m 0
 1398 946 1338 986 1214 986 c 2
 1072 986 l 1
 1072 876 l 2
 1072 824 1086 780 1114 742 c 0
 1146 698 1188 678 1238 678 c 256
 1288 678 1326 696 1354 732 c 0
 1382 768 1398 812 1398 864 c 0
EndSplineSet
EndChar

StartChar: ta_e_sign
Encoding: 84 3014 40
Width: 1588
Flags: HW
HStem: -22 136<764 960> 2 42G<1216 1354> 450 134<763 960> 1264 140<630 1038>
VStem: 196 142<451 956> 572 140<172 400> 1010 138<165 400> 1216 138<2 1096>
LayerCount: 2
Fore
SplineSet
1588 2 m 1
 1424 2 l 1
 1424 1120 l 2
 1424 1240 1378 1338 1286 1414 c 0
 1202 1482 1098 1516 974 1516 c 0
 794 1516 650 1454 538 1330 c 0
 426 1206 370 1052 370 872 c 0
 370 726 396 594 448 476 c 0
 510 336 602 236 720 184 c 1
 674 240 650 306 650 380 c 0
 650 472 686 548 758 610 c 1
 826 670 906 700 998 700 c 0
 1104 700 1188 666 1250 596 c 0
 1312 526 1342 438 1342 332 c 0
 1342 220 1304 132 1230 68 c 0
 1156 4 1062 -26 948 -26 c 0
 716 -26 532 64 392 244 c 0
 264 408 200 612 200 850 c 0
 200 1084 272 1280 416 1438 c 0
 564 1602 754 1684 982 1684 c 0
 1152 1684 1292 1636 1406 1538 c 0
 1528 1436 1588 1302 1588 1136 c 2
 1588 2 l 1
1176 338 m 256
 1176 390 1158 436 1124 478 c 0
 1090 520 1048 540 998 540 c 0
 946 540 904 520 870 478 c 0
 836 436 818 390 818 338 c 256
 818 286 836 242 870 200 c 0
 904 158 946 136 998 136 c 0
 1048 136 1090 158 1124 200 c 0
 1158 242 1176 286 1176 338 c 256
EndSplineSet
EndChar

StartChar: ta_ee_sign
Encoding: 85 3015 41
Width: 1492
Flags: HW
HStem: 0 170<756 1004> 576 176<1096 1308> 940 176<1108 1318> 1522 170<768 1012>
VStem: 240 194<550 1156> 880 172<276 536 1170 1404> 1348 172<276 536 1144 1426>
LayerCount: 2
Fore
SplineSet
1492 1280 m 0
 1492 1186 1462 1106 1402 1040 c 0
 1342 974 1266 940 1174 940 c 0
 1078 940 1002 974 942 1040 c 0
 882 1106 852 1188 852 1286 c 0
 852 1378 894 1458 976 1522 c 1
 794 1522 648 1454 540 1320 c 0
 442 1196 394 1042 394 856 c 0
 394 676 438 524 528 394 c 0
 628 246 764 170 934 170 c 0
 948 170 950 170 964 170 c 1
 882 222 840 302 840 406 c 0
 840 504 870 586 930 652 c 0
 990 718 1066 752 1162 752 c 0
 1254 752 1332 718 1392 650 c 0
 1452 582 1482 502 1482 408 c 0
 1482 276 1428 172 1320 98 c 0
 1226 32 1110 0 970 0 c 0
 734 0 546 84 404 248 c 0
 268 404 200 602 200 842 c 0
 200 1078 268 1276 400 1436 c 0
 542 1608 728 1692 958 1692 c 0
 1100 1692 1220 1660 1320 1596 c 0
 1434 1520 1492 1416 1492 1280 c 0
1320 1286 m 256
 1320 1330 1306 1368 1278 1404 c 0
 1250 1440 1216 1456 1172 1456 c 0
 1130 1456 1096 1440 1068 1404 c 0
 1040 1368 1026 1330 1026 1286 c 256
 1026 1242 1040 1204 1068 1168 c 0
 1096 1132 1130 1116 1172 1116 c 0
 1216 1116 1250 1132 1278 1168 c 0
 1306 1204 1320 1242 1320 1286 c 256
1308 406 m 256
 1308 450 1294 488 1266 524 c 0
 1238 560 1204 576 1160 576 c 0
 1118 576 1084 560 1056 524 c 0
 1028 488 1014 450 1014 406 c 256
 1014 362 1028 322 1056 286 c 0
 1084 250 1118 232 1160 232 c 0
 1204 232 1238 250 1266 286 c 0
 1294 322 1308 362 1308 406 c 256
EndSplineSet
EndChar

StartChar: ta_ai_sign
Encoding: 86 3016 42
Width: 2024
Flags: HW
HStem: -32 196<666 888 1486 1690> 506 182<664 888> 1112 200<800 1378 1732 2134>
VStem: 258 200<320 816> 496 130<320 466> 928 196<206 466> 1228 202<220 804> 1752 214<224 778> 2336 202<264 884>
LayerCount: 2
Fore
SplineSet
2024 514 m 0
 2024 304 1966 140 1848 16 c 1
 1720 116 l 1
 1816 212 1864 344 1864 516 c 0
 1864 628 1836 724 1780 802 c 0
 1720 888 1636 932 1528 932 c 0
 1482 932 1430 922 1376 894 c 1
 1502 786 1566 626 1566 422 c 0
 1566 314 1546 224 1506 150 c 0
 1456 62 1380 16 1278 16 c 0
 1174 16 1094 64 1040 160 c 0
 998 236 976 332 976 446 c 0
 976 622 1024 766 1112 874 c 1
 1044 906 956 922 858 922 c 0
 724 922 608 886 512 812 c 0
 408 732 360 626 360 494 c 0
 360 404 376 336 406 294 c 1
 396 316 392 340 392 366 c 0
 392 432 414 486 460 528 c 0
 506 570 560 592 626 592 c 0
 706 592 770 564 820 506 c 0
 870 448 894 382 894 302 c 0
 894 218 864 152 810 98 c 0
 756 44 690 16 606 16 c 0
 484 16 384 64 308 158 c 0
 234 246 200 352 200 476 c 0
 200 656 264 802 396 918 c 0
 522 1030 676 1086 858 1086 c 0
 1000 1086 1130 1050 1238 980 c 1
 1334 1054 1428 1090 1520 1090 c 0
 1676 1090 1804 1034 1896 918 c 0
 1982 810 2024 676 2024 514 c 0
1396 434 m 0
 1396 582 1348 700 1252 788 c 1
 1176 700 1136 582 1136 434 c 0
 1136 270 1180 184 1264 184 c 0
 1352 184 1396 270 1396 434 c 0
736 310 m 256
 736 346 726 378 704 406 c 0
 682 434 652 446 616 446 c 0
 580 446 550 434 528 406 c 0
 506 378 494 346 494 310 c 256
 494 274 506 242 528 214 c 0
 550 186 580 174 616 174 c 0
 652 174 682 186 704 214 c 0
 726 242 736 274 736 310 c 256
EndSplineSet
EndChar

StartChar: ta_o_sign
Encoding: 87 3018 43
Width: 3728
GlyphClass: 2
Flags: HW
HStem: -26 164<882 1116> -22 86<1980 2114 2236 2364> 2 46G<1424 1588 2750 2920 3228 3396> 540 160<880 1116> 892 166<2920 3228 3396 3728> 988 86<1994 2114 2240 2360> 1516 168<720 1210>
VStem: 200 170<540 1146> 650 168<206 480> 1176 166<198 480> 1424 166<2 1316> 1672 84<312 468 584 732> 2594 84<318 468 584 736> 2750 170<2 892> 3228 168<-2 892>
LayerCount: 2
Fore
SplineSet
3728 892 m 1x3bfe
 3396 892 l 1
 3396 -2 l 1
 3228 -2 l 1
 3228 892 l 1
 2920 892 l 1
 2920 2 l 1
 2750 2 l 1
 2750 1058 l 1
 3728 1058 l 1
 3728 892 l 1x3bfe
2512 938 m 1
 2452 878 l 1
 2400 934 2328 970 2236 988 c 1
 2240 1076 l 1x17fe
 2352 1058 2442 1012 2512 938 c 1
2678 584 m 1
 2594 584 l 1
 2584 664 2564 730 2528 784 c 1
 2588 848 l 1
 2646 764 2674 676 2678 584 c 1
2116 988 m 1
 2032 970 1964 938 1910 890 c 1
 1850 950 l 1
 1920 1024 2008 1066 2114 1076 c 1
 2116 988 l 1
2678 468 m 1
 2672 370 2642 286 2590 212 c 1
 2528 272 l 1
 2570 336 2590 400 2594 468 c 1
 2678 468 l 1
1832 796 m 1
 1790 728 1764 658 1756 584 c 1
 1672 584 l 1
 1680 680 1712 770 1768 856 c 1
 1832 796 l 1
2512 116 m 1
 2442 42 2350 -4 2236 -22 c 1
 2236 64 l 1x53fe
 2320 76 2392 114 2452 176 c 1
 2512 116 l 1
1832 256 m 1
 1772 196 l 1
 1712 272 1678 362 1672 468 c 1
 1756 468 l 1
 1762 386 1788 316 1832 256 c 1
2116 64 m 1
 2114 -22 l 1
 2014 -8 1924 36 1848 106 c 1
 1908 166 l 1
 1956 112 2024 76 2116 64 c 1
1588 2 m 1x33fe
 1424 2 l 1x33fe
 1424 1120 l 2
 1424 1240 1378 1338 1286 1414 c 0
 1202 1482 1098 1516 974 1516 c 0
 794 1516 650 1454 538 1330 c 0
 426 1206 370 1052 370 872 c 0
 370 726 396 594 448 476 c 0
 510 336 602 236 720 184 c 1
 674 240 650 306 650 380 c 0
 650 472 686 548 758 610 c 1
 826 670 906 700 998 700 c 0
 1104 700 1188 666 1250 596 c 0
 1312 526 1342 438 1342 332 c 0
 1342 220 1304 132 1230 68 c 0
 1156 4 1062 -26 948 -26 c 0x93fe
 716 -26 532 64 392 244 c 0
 264 408 200 612 200 850 c 0
 200 1084 272 1280 416 1438 c 0
 564 1602 754 1684 982 1684 c 0
 1152 1684 1292 1636 1406 1538 c 0
 1528 1436 1588 1302 1588 1136 c 2
 1588 2 l 1x33fe
1176 338 m 256
 1176 390 1158 436 1124 478 c 0
 1090 520 1048 540 998 540 c 0
 946 540 904 520 870 478 c 0
 836 436 818 390 818 338 c 256
 818 286 836 242 870 200 c 0
 904 158 946 136 998 136 c 0x93fe
 1048 136 1090 158 1124 200 c 0
 1158 242 1176 286 1176 338 c 256
EndSplineSet
EndChar

StartChar: ta_anuswara
Encoding: 42 2946 44
Width: 1206
Flags: HW
HStem: -22 86<552 686 808 936> 988 86<566 686 812 932> 1144 158<642 862> 1598 152<640 854>
VStem: 244 84<312 468 584 732> 444 158<1342 1562> 892 154<1336 1554> 1166 84<318 468 584 736>
LayerCount: 2
Fore
SplineSet
1002 1438 m 4
 1002 1358 974 1290 914 1232 c 4
 854 1174 784 1144 702 1144 c 4
 628 1144 560 1174 496 1234 c 4
 432 1294 400 1362 400 1436 c 4
 400 1524 428 1598 484 1658 c 4
 540 1718 612 1750 700 1750 c 4
 786 1750 858 1718 916 1658 c 4
 974 1598 1002 1524 1002 1438 c 4
1040 938 m 5
 980 878 l 5
 928 934 856 970 764 988 c 5
 768 1076 l 5
 880 1058 970 1012 1040 938 c 5
1206 584 m 5
 1122 584 l 5
 1112 664 1092 730 1056 784 c 5
 1116 848 l 5
 1174 764 1202 676 1206 584 c 5
644 988 m 5
 560 970 492 938 438 890 c 5
 378 950 l 5
 448 1024 536 1066 642 1076 c 5
 644 988 l 5
1206 468 m 5
 1200 370 1170 286 1118 212 c 5
 1056 272 l 5
 1098 336 1118 400 1122 468 c 5
 1206 468 l 5
360 796 m 5
 318 728 292 658 284 584 c 5
 200 584 l 5
 208 680 240 770 296 856 c 5
 360 796 l 5
1040 116 m 5
 970 42 878 -4 764 -22 c 5
 764 64 l 5
 848 76 920 114 980 176 c 5
 1040 116 l 5
360 256 m 5
 300 196 l 5
 240 272 206 362 200 468 c 5
 284 468 l 5
 290 386 316 316 360 256 c 5
644 64 m 5
 642 -22 l 5
 542 -8 452 36 376 106 c 5
 436 166 l 5
 484 112 552 76 644 64 c 5
848 1440 m 4
 848 1482 836 1518 808 1550 c 4
 780 1582 746 1598 704 1598 c 4
 664 1598 630 1582 602 1552 c 4
 574 1522 558 1488 558 1448 c 4
 558 1410 572 1374 600 1346 c 4
 628 1318 662 1304 702 1304 c 4
 740 1304 774 1316 804 1342 c 4
 834 1368 848 1402 848 1440 c 4
EndSplineSet
EndChar

StartChar: ta_visarga
Encoding: 43 2947 45
Width: 1710
Flags: HW
HStem: -32 168<438 630 1386 1578> 410 164<442 630 1390 1578> 1060 168<912 1108> 1502 164<914 1104>
VStem: 256 156<162 382> 660 158<168 386> 728 158<1254 1476> 1132 156<1254 1476> 1204 156<162 382> 1608 158<168 386>
LayerCount: 2
Fore
SplineSet
1232 1354 m 4xfb40
 1232 1276 1206 1206 1152 1148 c 4
 1098 1090 1030 1060 954 1060 c 4
 884 1060 820 1092 760 1152 c 4
 700 1212 672 1280 672 1352 c 4
 672 1436 696 1510 748 1572 c 4
 800 1634 866 1666 950 1666 c 260
 1034 1666 1102 1636 1154 1574 c 4
 1206 1512 1232 1438 1232 1354 c 4xfb40
1710 262 m 4
 1710 184 1682 114 1628 56 c 4
 1574 -2 1508 -32 1430 -32 c 4
 1360 -32 1294 0 1236 60 c 4
 1178 120 1148 188 1148 260 c 4xf8c0
 1148 344 1174 418 1226 480 c 4
 1278 542 1344 574 1428 574 c 260
 1512 574 1580 544 1632 482 c 4
 1684 420 1710 346 1710 262 c 4
762 262 m 4xfc40
 762 184 734 114 680 56 c 4
 626 -2 560 -32 482 -32 c 4
 412 -32 346 0 288 60 c 4
 230 120 200 188 200 260 c 4
 200 344 226 418 278 480 c 4
 330 542 396 574 480 574 c 260
 564 574 632 544 684 482 c 4
 736 420 762 346 762 262 c 4xfc40
1076 1356 m 4xfb40
 1076 1392 1066 1426 1044 1456 c 4
 1022 1486 990 1502 954 1502 c 4
 918 1502 890 1488 866 1460 c 4
 842 1432 830 1400 830 1364 c 260
 830 1328 842 1298 866 1270 c 4
 890 1242 918 1228 952 1228 c 260
 986 1228 1016 1242 1040 1268 c 4
 1064 1294 1076 1322 1076 1356 c 4xfb40
1552 264 m 4
 1552 300 1540 334 1518 364 c 4
 1496 394 1468 410 1432 410 c 260
 1396 410 1366 396 1342 368 c 4
 1318 340 1304 308 1304 272 c 260xf8c0
 1304 236 1316 206 1340 178 c 4
 1364 150 1394 136 1428 136 c 4
 1464 136 1492 150 1516 176 c 4
 1540 202 1552 230 1552 264 c 4
604 264 m 4xfc40
 604 300 592 334 570 364 c 4
 548 394 520 410 484 410 c 260
 448 410 418 396 394 368 c 4
 370 340 356 308 356 272 c 260
 356 236 368 206 392 178 c 4
 416 150 446 136 480 136 c 4
 516 136 544 150 568 176 c 4
 592 202 604 230 604 264 c 4xfc40
EndSplineSet
EndChar

StartChar: ta_oo_sign
Encoding: 88 3019 46
Width: 3616
Flags: HW
HStem: -22 86<1868 2002 2124 2252> 0 170<716 964> 576 176<1056 1268> 892 166<2808 3116 3284 3616> 940 176<1068 1278> 988 86<1882 2002 2128 2248> 1522 170<728 972>
VStem: 200 194<550 1156> 840 172<276 536 1170 1404> 1308 172<276 536 1144 1426> 1560 84<312 468 584 732> 2482 84<318 468 584 736> 2638 170<2 892> 3116 168<-2 892>
LayerCount: 2
Fore
SplineSet
3616 892 m 1x33fc
 3284 892 l 1
 3284 -2 l 1
 3116 -2 l 1
 3116 892 l 1
 2808 892 l 1
 2808 2 l 1
 2638 2 l 1
 2638 1058 l 1
 3616 1058 l 1
 3616 892 l 1x33fc
2400 938 m 1
 2340 878 l 1
 2288 934 2216 970 2124 988 c 1
 2128 1076 l 1x27fc
 2240 1058 2330 1012 2400 938 c 1
2566 584 m 1
 2482 584 l 1
 2472 664 2452 730 2416 784 c 1
 2476 848 l 1
 2534 764 2562 676 2566 584 c 1
2004 988 m 1
 1920 970 1852 938 1798 890 c 1
 1738 950 l 1
 1808 1024 1896 1066 2002 1076 c 1
 2004 988 l 1
2566 468 m 1
 2560 370 2530 286 2478 212 c 1
 2416 272 l 1
 2458 336 2478 400 2482 468 c 1
 2566 468 l 1
1720 796 m 1
 1678 728 1652 658 1644 584 c 1
 1560 584 l 1
 1568 680 1600 770 1656 856 c 1
 1720 796 l 1
2400 116 m 1
 2330 42 2238 -4 2124 -22 c 1
 2124 64 l 1xa3fc
 2208 76 2280 114 2340 176 c 1
 2400 116 l 1
1720 256 m 1
 1660 196 l 1
 1600 272 1566 362 1560 468 c 1
 1644 468 l 1
 1650 386 1676 316 1720 256 c 1
2004 64 m 1
 2002 -22 l 1
 1902 -8 1812 36 1736 106 c 1
 1796 166 l 1
 1844 112 1912 76 2004 64 c 1
1492 1280 m 0
 1492 1186 1462 1106 1402 1040 c 0
 1342 974 1266 940 1174 940 c 0
 1078 940 1002 974 942 1040 c 0
 882 1106 852 1188 852 1286 c 0
 852 1378 894 1458 976 1522 c 1
 794 1522 648 1454 540 1320 c 0
 442 1196 394 1042 394 856 c 0
 394 676 438 524 528 394 c 0
 628 246 764 170 934 170 c 0
 948 170 950 170 964 170 c 1
 882 222 840 302 840 406 c 0
 840 504 870 586 930 652 c 0
 990 718 1066 752 1162 752 c 0
 1254 752 1332 718 1392 650 c 0
 1452 582 1482 502 1482 408 c 0
 1482 276 1428 172 1320 98 c 0
 1226 32 1110 0 970 0 c 0x6bfc
 734 0 546 84 404 248 c 0
 268 404 200 602 200 842 c 0
 200 1078 268 1276 400 1436 c 0
 542 1608 728 1692 958 1692 c 0
 1100 1692 1220 1660 1320 1596 c 0
 1434 1520 1492 1416 1492 1280 c 0
1320 1286 m 256
 1320 1330 1306 1368 1278 1404 c 0
 1250 1440 1216 1456 1172 1456 c 0
 1130 1456 1096 1440 1068 1404 c 0
 1040 1368 1026 1330 1026 1286 c 256
 1026 1242 1040 1204 1068 1168 c 0
 1096 1132 1130 1116 1172 1116 c 0
 1216 1116 1250 1132 1278 1168 c 0
 1306 1204 1320 1242 1320 1286 c 256
1308 406 m 256
 1308 450 1294 488 1266 524 c 0
 1238 560 1204 576 1160 576 c 0
 1118 576 1084 560 1056 524 c 0
 1028 488 1014 450 1014 406 c 256
 1014 362 1028 322 1056 286 c 0
 1084 250 1118 232 1160 232 c 0
 1204 232 1238 250 1266 286 c 0
 1294 322 1308 362 1308 406 c 256
EndSplineSet
EndChar

StartChar: ta_au_sign
Encoding: 89 3020 47
Width: 4178
Flags: HW
HStem: -26 164<882 1116> -22 86<1980 2114 2236 2364> 2 50G<1424 1588> 184 140<3040 3202> 532 128<3038 3204> 540 160<880 1116> 892 134<3576 3816 3958 4178> 910 140<3026 3358> 988 86<1994 2114 2240 2360> 1516 168<720 1210>
VStem: 200 170<540 1146> 650 168<206 480> 1176 166<198 480> 1424 166<2 1316> 1672 84<312 468 584 732> 2594 84<318 468 584 736> 2762 132<434 770> 2932 98<394 526> 3212 136<330 526> 3440 136<208 834> 3816 142<208 892>
LayerCount: 2
Fore
SplineSet
4178 892 m 1x127ff8
 3958 892 l 1
 3958 208 l 1
 3816 208 l 1
 3816 892 l 1
 3576 892 l 1x127ff8
 3576 208 l 1
 3440 208 l 1
 3440 704 l 2
 3440 766 3412 816 3360 856 c 0
 3312 892 3256 910 3190 910 c 0
 3104 910 3034 876 2978 812 c 0
 2922 748 2894 672 2894 584 c 0
 2894 530 2908 478 2936 432 c 1
 2934 442 2932 450 2932 454 c 0
 2932 514 2950 562 2986 602 c 0
 3022 642 3070 660 3130 660 c 0
 3196 660 3248 636 3288 590 c 0
 3328 544 3348 488 3348 422 c 0
 3348 352 3326 294 3282 250 c 0
 3238 206 3180 184 3112 184 c 0
 3004 184 2918 228 2852 314 c 0
 2792 392 2762 488 2762 600 c 0
 2762 726 2800 834 2876 920 c 0
 2952 1006 3052 1048 3176 1048 c 0x197ff8
 3296 1048 3384 1008 3440 924 c 1
 3440 1028 l 1
 4178 1028 l 1
 4178 892 l 1x127ff8
2512 938 m 1
 2452 878 l 1
 2400 934 2328 970 2236 988 c 1
 2240 1076 l 1x10fff8
 2352 1058 2442 1012 2512 938 c 1
2678 584 m 1
 2594 584 l 1
 2584 664 2564 730 2528 784 c 1
 2588 848 l 1
 2646 764 2674 676 2678 584 c 1
2116 988 m 1
 2032 970 1964 938 1910 890 c 1
 1850 950 l 1
 1920 1024 2008 1066 2114 1076 c 1
 2116 988 l 1
2678 468 m 1
 2672 370 2642 286 2590 212 c 1
 2528 272 l 1
 2570 336 2590 400 2594 468 c 1
 2678 468 l 1
1832 796 m 1
 1790 728 1764 658 1756 584 c 1
 1672 584 l 1
 1680 680 1712 770 1768 856 c 1
 1832 796 l 1
2512 116 m 1
 2442 42 2350 -4 2236 -22 c 1
 2236 64 l 1x507ff8
 2320 76 2392 114 2452 176 c 1
 2512 116 l 1
1832 256 m 1
 1772 196 l 1
 1712 272 1678 362 1672 468 c 1
 1756 468 l 1
 1762 386 1788 316 1832 256 c 1
2116 64 m 1
 2114 -22 l 1
 2014 -8 1924 36 1848 106 c 1
 1908 166 l 1
 1956 112 2024 76 2116 64 c 1
1588 2 m 1x307ff8
 1424 2 l 1x307ff8
 1424 1120 l 2
 1424 1240 1378 1338 1286 1414 c 0
 1202 1482 1098 1516 974 1516 c 0
 794 1516 650 1454 538 1330 c 0
 426 1206 370 1052 370 872 c 0
 370 726 396 594 448 476 c 0
 510 336 602 236 720 184 c 1
 674 240 650 306 650 380 c 0
 650 472 686 548 758 610 c 1
 826 670 906 700 998 700 c 0
 1104 700 1188 666 1250 596 c 0
 1312 526 1342 438 1342 332 c 0
 1342 220 1304 132 1230 68 c 0
 1156 4 1062 -26 948 -26 c 0x947ff8
 716 -26 532 64 392 244 c 0
 264 408 200 612 200 850 c 0
 200 1084 272 1280 416 1438 c 0
 564 1602 754 1684 982 1684 c 0
 1152 1684 1292 1636 1406 1538 c 0
 1528 1436 1588 1302 1588 1136 c 2
 1588 2 l 1x307ff8
3212 430 m 0
 3212 498 3180 532 3120 532 c 0x187ff8
 3060 532 3032 498 3032 430 c 0
 3032 360 3060 324 3120 324 c 0
 3180 324 3212 360 3212 430 c 0
1176 338 m 256
 1176 390 1158 436 1124 478 c 0
 1090 520 1048 540 998 540 c 0
 946 540 904 520 870 478 c 0
 836 436 818 390 818 338 c 256
 818 286 836 242 870 200 c 0
 904 158 946 136 998 136 c 0x947ff8
 1048 136 1090 158 1124 200 c 0
 1158 242 1176 286 1176 338 c 256
EndSplineSet
EndChar

StartChar: ta_virama
Encoding: 90 3021 48
Width: 524
GlyphClass: 2
Flags: W
HStem: 1210 382<259.447 464.414>
VStem: 200 324<1272.01 1530.12>
LayerCount: 2
Fore
SplineSet
524 1402 m 0
 524 1352 508 1308 480 1272 c 0
 448 1230 408 1210 360 1210 c 0
 314 1210 276 1230 244 1272 c 0
 216 1308 200 1352 200 1402 c 0
 200 1450 216 1492 246 1532 c 0
 276 1572 314 1592 360 1592 c 0
 408 1592 448 1572 478 1532 c 0
 508 1492 524 1450 524 1402 c 0
EndSplineSet
EndChar

StartChar: ta_zero
Encoding: 93 3046 49
Width: 1064
Flags: HW
HStem: -24 176<492 774> 1372 176<490 774>
VStem: 200 110<418 1108> 950 112<412 1114>
LayerCount: 2
Fore
SplineSet
1064 760 m 256
 1064 564 1038 398 986 264 c 0
 912 72 796 -24 634 -24 c 0
 470 -24 350 72 276 264 c 0
 224 398 200 564 200 760 c 256
 200 956 226 1124 278 1258 c 0
 352 1452 470 1548 634 1548 c 0
 796 1548 912 1452 986 1258 c 0
 1038 1124 1064 956 1064 760 c 256
950 760 m 0
 950 900 930 1028 888 1140 c 0
 832 1296 748 1372 632 1372 c 0
 518 1372 432 1296 374 1140 c 0
 330 1026 310 900 310 760 c 0
 310 622 330 498 374 384 c 0
 432 228 518 152 634 152 c 0
 748 152 832 228 888 384 c 0
 930 496 950 620 950 760 c 0
EndSplineSet
EndChar

StartChar: ta_one
Encoding: 94 3047 50
Width: 1464
Flags: HW
HStem: -22 166<472 806 1118 1298> 676 184<372 482 588 904 1008 1274> 1340 178<588 904 1008 1236>
VStem: 200 118<306 622> 482 106<862 1340> 904 104<248 676 862 1340> 1336 128<176 610>
LayerCount: 2
Fore
SplineSet
1464 412 m 0
 1464 302 1448 210 1416 134 c 0
 1370 30 1298 -22 1202 -22 c 0
 1158 -22 1118 -12 1082 8 c 1
 1128 152 l 1
 1148 140 1170 134 1192 134 c 0
 1288 134 1336 224 1336 404 c 0
 1336 472 1324 530 1300 580 c 0
 1270 644 1224 676 1164 676 c 2
 1008 676 l 1
 1008 454 l 2
 1008 316 980 206 928 124 c 0
 866 26 770 -22 638 -22 c 0
 586 -22 532 -6 476 22 c 0
 390 66 320 130 272 216 c 0
 224 302 200 394 200 494 c 0
 200 740 294 864 482 862 c 1
 482 1516 l 1
 1236 1516 l 1
 1236 1340 l 1
 1008 1340 l 1
 1008 862 l 1
 1164 862 l 2
 1364 862 1464 712 1464 412 c 0
904 862 m 1
 904 1340 l 1
 588 1340 l 1
 588 862 l 1
 904 862 l 1
904 418 m 2
 904 676 l 1
 506 676 l 2
 452 676 406 660 370 626 c 0
 334 592 316 546 316 492 c 0
 316 402 348 322 412 250 c 0
 476 178 550 144 638 144 c 0
 720 144 784 170 832 220 c 0
 880 270 904 336 904 418 c 2
EndSplineSet
EndChar

StartChar: ta_two
Encoding: 95 3048 51
Width: 1348
Flags: HW
HStem: -4 158<306 1348> 292 184<504 806> 1360 180<490 806>
VStem: 200 100<162 302> 220 106<680 1160> 970 106<680 1160>
LayerCount: 2
Fore
SplineSet
1348 -4 m 1xf4
 358 -4 l 2
 304 -4 262 22 234 76 c 0
 212 120 200 170 200 230 c 0xf4
 200 330 252 406 356 460 c 1
 264 600 220 752 220 916 c 0xec
 220 1002 232 1086 256 1164 c 0
 286 1264 332 1350 394 1418 c 0
 470 1500 556 1540 650 1540 c 256
 744 1540 828 1500 902 1418 c 0
 966 1350 1012 1264 1040 1164 c 0
 1064 1086 1076 1002 1076 916 c 256
 1076 830 1064 748 1042 670 c 0
 1012 570 966 484 902 416 c 0
 828 334 744 292 650 292 c 0
 606 292 560 304 514 324 c 1
 470 320 430 316 386 312 c 1
 330 300 302 276 302 236 c 0
 302 182 334 154 402 154 c 2
 1348 154 l 1
 1348 -4 l 1xf4
970 920 m 256
 970 1028 944 1124 892 1210 c 0
 830 1310 746 1360 646 1360 c 0
 546 1360 466 1310 404 1210 c 0
 352 1124 326 1028 326 920 c 256xec
 326 812 352 714 404 628 c 0
 466 528 546 478 646 478 c 0
 746 478 830 528 892 628 c 0
 944 714 970 812 970 920 c 256
EndSplineSet
EndChar

StartChar: ta_three
Encoding: 96 3049 52
Width: 1484
Flags: HW
HStem: 24 160<1084 1484> 24 132<458 876> 908 170<782 1030> 1344 172<308 598 704 974>
VStem: 200 108<430 1344> 598 106<554 818 946 1344> 1112 136<360 814>
LayerCount: 2
Fore
SplineSet
1484 24 m 1xbe
 458 24 l 1
 458 156 l 1
 564 156 l 2x7e
 928 156 1112 300 1112 586 c 0
 1112 668 1096 736 1068 794 c 1
 1032 870 978 908 904 908 c 0
 840 908 790 876 752 812 c 0
 720 758 704 694 704 626 c 2
 704 554 l 1
 598 554 l 1
 598 1344 l 1
 308 1344 l 1
 308 430 l 1
 200 430 l 1
 200 1516 l 1
 974 1516 l 1
 974 1344 l 1
 704 1344 l 1
 704 946 l 1
 762 1034 832 1078 916 1078 c 0
 1024 1078 1112 1026 1172 926 c 0
 1224 842 1248 740 1248 622 c 0
 1248 436 1192 290 1084 184 c 1
 1484 184 l 1
 1484 24 l 1xbe
EndSplineSet
EndChar

StartChar: ta_four
Encoding: 97 3050 53
Width: 1508
Flags: HW
HStem: -22 166<464 798> 676 184<370 478 584 900 1004 1392> 1342 178<584 900 1004 1232>
VStem: 200 118<300 622> 478 106<862 1342> 900 104<252 676 862 1342> 1392 116<862 1466>
LayerCount: 2
Fore
SplineSet
1508 676 m 1
 1004 676 l 1
 1004 454 l 2
 1004 316 976 206 920 122 c 0
 854 26 756 -22 624 -22 c 0
 570 -22 516 -6 460 24 c 0
 378 68 312 134 264 224 c 0
 220 308 200 396 200 494 c 0
 200 742 292 866 478 862 c 1
 478 1520 l 1
 1232 1520 l 1
 1232 1342 l 1
 1004 1342 l 1
 1004 862 l 1
 1392 862 l 1
 1392 1466 l 1
 1508 1466 l 1
 1508 676 l 1
900 862 m 1
 900 1342 l 1
 584 1342 l 1
 584 862 l 1
 900 862 l 1
900 418 m 2
 900 676 l 1
 502 676 l 2
 448 676 404 660 370 626 c 0
 336 592 318 546 318 492 c 0
 318 402 346 322 404 254 c 0
 464 180 538 144 624 144 c 0
 706 144 772 170 824 220 c 0
 876 270 900 336 900 418 c 2
EndSplineSet
EndChar

StartChar: ta_five
Encoding: 98 3051 54
Width: 1604
Flags: HW
HStem: -8 142<694 1180> 908 170<1150 1394> 1344 172<684 962 1068 1338>
VStem: 200 122<540 1180> 576 108<530 1344> 962 106<530 814 946 1344> 1470 134<416 828>
LayerCount: 2
Fore
SplineSet
1604 668 m 0
 1604 476 1538 314 1406 186 c 0
 1274 58 1114 -8 924 -8 c 0
 816 -8 716 16 624 62 c 0
 480 134 370 250 296 412 c 0
 232 552 200 712 200 890 c 0
 200 1098 258 1288 372 1460 c 1
 492 1384 l 1
 380 1238 324 1074 324 888 c 0
 324 546 440 314 674 196 c 0
 756 154 844 134 936 134 c 0
 1082 134 1206 182 1312 278 c 0
 1418 374 1470 494 1470 638 c 0
 1470 708 1454 768 1424 818 c 0
 1386 878 1334 908 1268 908 c 0
 1204 908 1154 874 1116 808 c 0
 1084 754 1068 694 1068 626 c 2
 1068 530 l 1
 962 530 l 1
 962 1344 l 1
 684 1344 l 1
 684 530 l 1
 576 530 l 1
 576 1516 l 1
 1338 1516 l 1
 1338 1344 l 1
 1068 1344 l 1
 1068 946 l 1
 1120 1034 1190 1078 1280 1078 c 0
 1386 1078 1468 1034 1528 946 c 0
 1580 870 1604 778 1604 668 c 0
EndSplineSet
EndChar

StartChar: ta_six
Encoding: 99 3052 55
Width: 1846
Flags: HW
HStem: -22 166<470 808> 0 50G<1232 1340 1544 1652> 676 184<372 482 588 904 1008 1188 1340 1544 1652 1846> 1340 178<588 904 1008 1236>
VStem: 200 118<306 622> 482 106<862 1340> 904 104<246 676 862 1340> 1232 108<0 634> 1544 108<0 680>
LayerCount: 2
Fore
SplineSet
1846 680 m 1xbf80
 1652 680 l 1
 1652 0 l 1
 1544 0 l 1
 1544 680 l 1
 1340 680 l 1
 1340 0 l 1
 1232 0 l 1x7f80
 1232 458 l 2
 1232 604 1176 676 1068 676 c 2
 1008 676 l 1
 1008 454 l 2
 1008 138 884 -22 638 -22 c 0
 584 -22 528 -6 470 24 c 0
 386 68 320 132 272 218 c 0
 224 304 200 396 200 494 c 0
 200 740 294 864 482 862 c 1
 482 1516 l 1
 1236 1516 l 1
 1236 1340 l 1
 1008 1340 l 1
 1008 862 l 1
 1118 862 1198 842 1244 802 c 1
 1244 856 l 1
 1846 856 l 1
 1846 680 l 1xbf80
904 862 m 1
 904 1340 l 1
 588 1340 l 1
 588 862 l 1
 904 862 l 1
904 418 m 2
 904 676 l 1
 506 676 l 2
 452 676 406 660 370 626 c 0
 334 592 316 546 316 492 c 0
 316 402 348 322 412 250 c 0
 476 178 550 144 638 144 c 0xbf80
 720 144 784 170 832 220 c 0
 880 270 904 336 904 418 c 2
EndSplineSet
EndChar

StartChar: ta_seven
Encoding: 100 3053 56
Width: 1498
Flags: HW
HStem: -14 158<558 774> 668 144<552 768> 1344 176<570 1258 1378 1498>
VStem: 200 118<440 1034> 358 140<302 612> 836 122<208 592> 1258 120<28 1344>
LayerCount: 2
Fore
SplineSet
1498 1344 m 1
 1378 1344 l 1
 1378 28 l 1
 1258 28 l 1
 1258 1344 l 1
 766 1344 l 2
 618 1344 506 1276 422 1140 c 0
 354 1024 318 888 318 732 c 0
 318 614 334 514 366 434 c 1
 362 460 358 484 358 508 c 0
 358 592 386 662 442 722 c 0
 498 782 568 812 650 812 c 0
 750 812 826 768 884 682 c 0
 934 608 958 520 958 416 c 0
 958 306 936 210 890 130 c 0
 832 34 750 -14 646 -14 c 0
 496 -14 380 74 298 250 c 1
 232 388 200 540 200 712 c 0
 200 924 248 1106 340 1256 c 0
 448 1432 602 1520 802 1520 c 2
 1498 1520 l 1
 1498 1344 l 1
836 394 m 0
 836 462 824 520 796 572 c 0
 762 636 714 668 652 668 c 0
 596 668 556 634 530 568 c 1
 510 522 498 466 498 400 c 0
 498 336 510 280 534 232 c 0
 564 172 608 144 666 144 c 256
 724 144 768 172 798 230 c 0
 824 278 836 334 836 394 c 0
EndSplineSet
EndChar

StartChar: ta_eight
Encoding: 101 3054 57
Width: 2240
Flags: HW
HStem: -24 156<578 1272> 0 50G<2114 2240> 532 136<336 1020 1164 1712 1884 2114> 1358 180<1150 1606>
VStem: 200 130<318 524> 866 118<858 1206> 1790 120<674 1172> 2114 124<0 532 670 1524>
LayerCount: 2
Fore
SplineSet
2240 0 m 1x7f
 2114 0 l 1x7f
 2114 532 l 1
 1848 532 l 1
 1784 348 1660 208 1480 110 c 1
 1318 20 1134 -24 926 -24 c 0xbf
 602 -24 380 72 262 260 c 0
 220 328 200 392 200 458 c 0
 200 518 216 568 250 608 c 0
 284 648 328 670 386 670 c 2
 1020 670 l 1
 918 786 866 914 866 1056 c 0
 866 1200 918 1316 1020 1408 c 0
 1118 1494 1238 1538 1384 1538 c 0
 1562 1538 1696 1478 1788 1356 c 0
 1870 1248 1910 1102 1910 920 c 0
 1910 838 1902 754 1884 670 c 1
 2114 670 l 1
 2114 1524 l 1
 2240 1524 l 1
 2240 0 l 1x7f
1790 932 m 0
 1790 1068 1754 1172 1682 1246 c 0
 1610 1320 1506 1358 1372 1358 c 0
 1266 1358 1178 1330 1104 1274 c 0
 1024 1214 984 1132 984 1030 c 0
 984 946 1020 864 1092 786 c 0
 1164 708 1240 670 1324 670 c 2
 1752 670 l 1
 1778 762 1790 848 1790 932 c 0
1712 532 m 1
 432 532 l 2
 364 532 328 502 328 440 c 0
 328 398 348 356 386 312 c 0
 490 192 670 132 922 132 c 0xbf
 1090 132 1242 164 1376 226 c 0
 1526 294 1638 396 1712 532 c 1
EndSplineSet
EndChar

StartChar: ta_nine
Encoding: 102 3055 58
Width: 1904
Flags: HW
HStem: -22 166<478 804 1516 1666> 218 166<1250 1450> 676 184<372 482 588 904 1008 1128 1562 1706> 704 158<1250 1450> 1340 178<588 904 1008 1320>
VStem: 200 118<316 628> 482 106<862 1340> 904 104<254 676 862 1340> 1092 122<418 670> 1486 120<418 668> 1788 116<268 610>
LayerCount: 2
Fore
SplineSet
1904 434 m 0xdfe0
 1904 316 1868 214 1798 128 c 0
 1728 42 1632 -10 1516 -24 c 1
 1516 148 l 1
 1596 148 1664 180 1716 242 c 0
 1764 300 1788 370 1788 452 c 0
 1788 520 1768 576 1726 622 c 0
 1684 668 1630 692 1562 692 c 1
 1590 636 1606 584 1606 540 c 0
 1606 458 1584 386 1540 324 c 0
 1490 254 1426 218 1348 218 c 0
 1272 218 1212 254 1162 324 c 1
 1116 386 1092 456 1092 532 c 0
 1092 586 1104 634 1128 676 c 1
 1008 676 l 1
 1008 466 l 2
 1008 328 980 216 928 132 c 0
 864 30 768 -22 638 -22 c 0
 514 -22 410 38 322 154 c 0
 240 262 200 380 200 506 c 0
 200 744 294 864 482 862 c 1
 482 1516 l 1
 1320 1516 l 1
 1320 1340 l 1
 1008 1340 l 1
 1008 862 l 1xefe0
 1498 862 l 2
 1620 862 1718 820 1792 740 c 0
 1866 660 1904 558 1904 434 c 0xdfe0
1486 542 m 0
 1486 582 1474 618 1448 652 c 0
 1422 686 1388 704 1348 704 c 0xdfe0
 1310 704 1278 686 1252 652 c 0
 1226 618 1214 582 1214 542 c 0
 1214 504 1226 468 1252 434 c 0
 1278 400 1310 384 1348 384 c 0
 1388 384 1422 400 1448 434 c 0
 1474 468 1486 504 1486 542 c 0
904 862 m 1xefe0
 904 1340 l 1
 588 1340 l 1
 588 862 l 1
 904 862 l 1xefe0
904 430 m 2
 904 676 l 1
 506 676 l 2
 452 676 406 662 370 632 c 0
 334 602 316 558 316 504 c 0
 316 412 348 332 410 260 c 1
 474 184 550 144 638 144 c 0
 720 144 784 172 832 226 c 0
 880 280 904 348 904 430 c 2
EndSplineSet
EndChar

StartChar: ta_ten
Encoding: 103 3056 59
Width: 1590
Flags: HW
HStem: -24 176<350 656 934 1280> 1568 172<954 1246>
VStem: 200 108<192 1430> 716 136<226 1430> 1458 132<426 1248>
LayerCount: 2
Fore
SplineSet
1590 836 m 0
 1590 622 1562 442 1510 296 c 0
 1434 84 1310 -24 1138 -24 c 0
 974 -24 858 36 788 154 c 1
 760 36 660 -24 488 -24 c 0
 370 -24 290 24 246 124 c 1
 216 190 200 290 200 424 c 2
 200 1430 l 1
 308 1430 l 1
 308 424 l 2
 308 334 316 274 330 238 c 0
 356 180 408 152 486 152 c 0
 640 152 716 222 716 364 c 2
 716 1430 l 1
 852 1430 l 1
 852 364 l 2
 852 290 884 234 944 196 c 1
 996 166 1060 152 1138 152 c 0
 1262 152 1350 244 1404 428 c 0
 1440 550 1458 692 1458 856 c 256
 1458 1020 1434 1168 1388 1298 c 0
 1322 1478 1222 1568 1088 1568 c 0
 1044 1568 1000 1560 954 1548 c 1
 950 1726 l 1
 994 1736 1042 1740 1086 1740 c 0
 1264 1740 1396 1628 1486 1402 c 1
 1554 1234 1590 1046 1590 836 c 0
EndSplineSet
EndChar

StartChar: ta_hundred
Encoding: 104 3057 60
Width: 1822
Flags: HW
HStem: -2 52G<200 320 764 892 1306 1432> 1354 168<838 1306 1432 1822> 1376 166<400 680>
VStem: 200 120<-2 1294> 764 128<-2 1290> 1306 124<0 1354>
LayerCount: 2
Fore
SplineSet
1822 1354 m 1xdc
 1432 1354 l 1
 1432 0 l 1
 1306 0 l 1
 1306 1354 l 1
 838 1354 l 1xdc
 874 1292 892 1224 892 1152 c 2
 892 -2 l 1
 764 -2 l 1
 764 1152 l 2
 764 1212 742 1264 696 1308 c 0
 650 1352 598 1376 538 1376 c 256
 478 1376 428 1352 384 1308 c 0
 340 1264 320 1212 320 1152 c 2
 320 -2 l 1
 200 -2 l 1
 200 1152 l 2
 200 1248 228 1336 288 1414 c 0
 354 1498 434 1540 526 1540 c 0xbc
 614 1540 690 1514 754 1462 c 1
 754 1522 l 1
 1822 1522 l 1
 1822 1354 l 1xdc
EndSplineSet
EndChar

StartChar: ta_thousand
Encoding: 105 3058 61
Width: 2112
Flags: HW
HStem: -22 166<464 798> 104 108<1404 1830> 264 110<1412 1642> 494 118<1406 1642 1746 1828> 676 184<370 478 584 900 1004 1642 1746 2112> 1342 178<584 900 1004 1232>
VStem: 200 118<300 622> 478 106<862 1342> 900 104<252 676 862 1342> 1314 88<2 102 398 494> 1642 104<382 494 612 676> 1866 92<254 470>
LayerCount: 2
Fore
SplineSet
2112 676 m 1xbff0
 1746 676 l 1
 1746 612 l 1
 1772 612 l 2
 1828 612 1872 588 1906 544 c 0
 1940 500 1956 450 1956 392 c 0
 1956 316 1932 248 1884 190 c 0
 1836 132 1776 104 1700 104 c 2
 1446 104 l 2
 1418 104 1402 90 1402 64 c 0
 1402 46 1416 36 1444 32 c 1
 1380 -44 l 1
 1336 -16 1314 22 1314 72 c 0
 1314 108 1328 140 1354 168 c 0
 1380 196 1410 212 1446 212 c 2
 1702 212 l 2x7ff0
 1810 212 1866 272 1866 396 c 0
 1866 426 1854 450 1830 468 c 0
 1806 486 1778 494 1746 494 c 1
 1746 478 1746 478 1746 444 c 0
 1740 324 1672 264 1548 264 c 0
 1492 264 1442 284 1396 320 c 0
 1350 356 1326 402 1326 458 c 0
 1326 498 1340 534 1366 566 c 0
 1392 598 1426 612 1468 612 c 2
 1642 612 l 1
 1642 676 l 1
 1004 676 l 1
 1004 454 l 2
 1004 316 976 206 920 122 c 0
 854 26 756 -22 624 -22 c 0
 566 -22 510 -6 452 26 c 0
 372 72 310 140 266 224 c 0
 222 308 200 398 200 494 c 0
 200 740 292 864 478 862 c 1
 478 1520 l 1
 1232 1520 l 1
 1232 1342 l 1
 1004 1342 l 1
 1004 862 l 1
 2112 862 l 1
 2112 676 l 1xbff0
1644 442 m 1
 1642 494 l 1
 1464 494 l 2
 1424 494 1404 482 1404 456 c 0
 1404 428 1420 408 1452 394 c 0
 1478 382 1506 374 1536 374 c 0
 1608 374 1644 398 1644 442 c 1
900 862 m 1
 900 1342 l 1
 584 1342 l 1
 584 862 l 1
 900 862 l 1
900 418 m 2
 900 676 l 1
 502 676 l 2
 448 676 404 660 370 626 c 0
 336 592 318 546 318 492 c 0
 318 402 346 322 404 254 c 0
 464 180 538 144 624 144 c 0xbff0
 706 144 772 170 824 220 c 0
 876 270 900 336 900 418 c 2
EndSplineSet
EndChar

StartChar: ta_day_sign
Encoding: 106 3059 62
Width: 1668
Flags: HW
HStem: -24 148<420 610> -2 164<1224 1668> 422 160<372 622> 924 156<556 930>
VStem: 200 158<188 422 584 716> 642 164<154 404> 1104 170<166 724>
LayerCount: 2
Fore
SplineSet
1668 -2 m 1x7e
 1004 -2 l 1x7e
 1070 142 1104 296 1104 460 c 0
 1104 584 1076 692 1022 776 c 0
 958 876 866 924 746 924 c 0
 650 924 566 892 494 826 c 0
 422 760 384 680 372 584 c 1
 546 584 l 2
 626 584 690 556 736 502 c 0
 782 448 806 380 806 300 c 0
 806 212 782 136 732 76 c 0
 678 8 606 -24 522 -24 c 0xbe
 414 -24 332 28 272 134 c 0
 224 220 200 324 200 440 c 0
 200 616 246 764 338 884 c 0
 438 1016 570 1080 740 1080 c 0
 902 1080 1032 1020 1132 902 c 0
 1226 790 1274 652 1274 488 c 0
 1274 386 1258 276 1224 160 c 1
 1668 160 l 1
 1668 -2 l 1x7e
642 288 m 0
 642 378 598 422 512 422 c 2
 360 422 l 1
 360 350 368 290 388 238 c 0
 416 162 458 124 516 124 c 0xbe
 556 124 588 144 612 180 c 0
 632 212 642 248 642 288 c 0
EndSplineSet
EndChar

StartChar: ta_month_sign
Encoding: 107 3060 63
Width: 2392
Flags: HW
HStem: 0 172<372 796 980 1402> 1160 148<1356 1530> 1586 166<1278 1518 2048 2274>
VStem: 200 172<172 1052> 796 184<172 868> 910 168<1148 1478> 1194 140<1328 1548> 1460 194<228 668> 1554 172<1328 1556> 1844 180<1176 1558>
LayerCount: 2
Fore
SplineSet
2392 1660 m 1xf640
 2288 1512 l 1
 2264 1562 2224 1586 2164 1586 c 0
 2130 1586 2098 1574 2068 1552 c 0
 2038 1530 2024 1502 2024 1468 c 2
 2024 1176 l 1
 1844 1176 l 1
 1844 1466 l 2
 1844 1536 1796 1576 1700 1582 c 1
 1718 1544 1726 1500 1726 1452 c 0xf6c0
 1726 1368 1702 1300 1654 1244 c 0
 1606 1188 1542 1160 1460 1160 c 0
 1384 1160 1320 1184 1270 1236 c 0
 1220 1288 1194 1352 1194 1428 c 0
 1194 1472 1202 1512 1216 1548 c 1
 1124 1496 1078 1420 1078 1316 c 0xf740
 1078 1216 1122 1134 1210 1070 c 1
 1342 1042 1452 960 1536 828 c 0
 1614 706 1654 574 1654 434 c 0
 1654 302 1618 198 1544 118 c 0
 1470 38 1370 0 1240 0 c 2
 200 0 l 1
 200 1052 l 1
 372 1052 l 1
 372 172 l 1
 796 172 l 1
 796 760 l 2xfb40
 796 830 816 896 856 952 c 0
 896 1008 950 1048 1018 1068 c 1
 946 1142 910 1226 910 1324 c 0
 910 1456 954 1562 1042 1640 c 0
 1130 1718 1242 1756 1374 1756 c 0
 1416 1756 1464 1744 1518 1720 c 1
 1568 1740 1620 1752 1678 1752 c 0
 1770 1752 1852 1724 1928 1666 c 1
 1994 1724 2070 1752 2158 1752 c 0
 2248 1752 2326 1720 2392 1660 c 1xf640
1554 1442 m 0
 1554 1474 1542 1504 1522 1532 c 0
 1502 1560 1476 1574 1444 1574 c 256
 1412 1574 1384 1560 1364 1532 c 0
 1344 1504 1332 1474 1332 1442 c 0
 1332 1408 1344 1378 1364 1350 c 0
 1384 1322 1412 1308 1444 1308 c 256
 1476 1308 1502 1322 1522 1350 c 0
 1542 1378 1554 1408 1554 1442 c 0
1460 420 m 0xfb40
 1460 528 1432 634 1374 734 c 0
 1306 852 1222 912 1122 912 c 0
 1082 912 1048 898 1020 870 c 0
 992 842 980 808 980 768 c 2
 980 172 l 1
 1276 172 l 2
 1400 172 1460 256 1460 420 c 0xfb40
EndSplineSet
EndChar

StartChar: ta_year_sign
Encoding: 108 3061 64
Width: 4176
Flags: HW
HStem: -634 164<1238 2218> -26 164<934 1126> -2 164<1656 1950 3584 3862> 422 152<938 1128> 478 172<2572 2844> 876 172<2124 2372 2538 2880> 916 160<950 1372> 1510 170<1286 2378>
VStem: 200 170<194 830> 568 164<280 698> 792 112<258 386> 1156 164<162 396> 1596 168<254 692> 1950 172<160 876> 2372 166<-2 456 562 876> 2934 178<-8 384> 3252 170<354 926> 3996 180<312 826>
LayerCount: 2
Fore
SplineSet
4176 562 m 0xadffc0
 4176 412 4138 284 4064 178 c 1
 3980 60 3866 0 3724 0 c 256
 3582 0 3466 60 3374 180 c 1
 3292 290 3252 418 3252 566 c 2
 3252 660 l 2
 3252 968 3080 1196 2738 1344 c 0
 2486 1454 2178 1510 1818 1510 c 0
 1432 1510 1112 1442 856 1304 c 0
 532 1130 372 866 372 516 c 0
 372 174 520 -84 820 -256 c 1
 1064 -398 1368 -470 1736 -470 c 0
 2016 -470 2268 -422 2490 -328 c 0
 2786 -204 2934 -22 2934 220 c 0
 2934 294 2912 356 2866 404 c 0
 2820 452 2760 478 2684 478 c 0
 2648 478 2616 470 2588 454 c 0
 2554 434 2538 406 2538 370 c 2
 2538 -2 l 1
 2372 -2 l 1
 2372 876 l 1
 2124 876 l 1
 2124 -2 l 1
 2072 -2 l 1
 1440 -2 l 1xadffc0
 1430 110 l 1
 1540 210 1596 330 1596 472 c 0
 1596 596 1554 702 1470 788 c 0
 1386 874 1282 916 1158 916 c 0
 1040 916 940 876 856 792 c 0
 772 708 732 608 732 490 c 0
 732 408 752 330 796 256 c 1
 792 276 792 294 792 314 c 0
 792 388 814 450 862 500 c 0
 910 550 968 574 1040 574 c 0
 1122 574 1190 542 1244 482 c 0
 1294 424 1320 356 1320 272 c 0
 1320 186 1290 114 1234 58 c 0
 1178 2 1106 -26 1020 -26 c 0
 886 -26 774 28 688 136 c 0
 608 238 568 358 568 496 c 0
 568 666 624 806 736 914 c 0
 848 1022 988 1078 1160 1078 c 256xd3ffc0
 1332 1078 1474 1022 1590 912 c 0
 1706 802 1764 662 1764 490 c 0
 1764 374 1728 262 1656 160 c 1
 1950 160 l 1
 1950 1048 l 1
 2880 1048 l 1
 2880 876 l 1
 2538 876 l 1
 2538 562 l 1
 2582 622 2642 650 2716 650 c 0
 2832 650 2928 606 3002 520 c 0
 3076 434 3112 332 3112 214 c 0
 3112 -86 2952 -312 2634 -460 c 0
 2390 -576 2098 -634 1758 -634 c 0
 1332 -634 980 -550 704 -380 c 0
 368 -176 200 128 200 526 c 0
 200 930 378 1234 732 1436 c 0
 1016 1600 1378 1680 1814 1680 c 0
 2222 1680 2570 1612 2856 1480 c 0
 3234 1306 3422 1040 3422 682 c 2
 3422 584 l 2
 3422 484 3446 392 3496 312 c 0
 3556 216 3632 168 3724 168 c 0
 3814 168 3882 212 3932 296 c 0
 3974 368 3996 450 3996 544 c 0
 3996 764 3924 924 3782 1020 c 1
 3924 1140 l 1
 4092 1010 4176 818 4176 562 c 0xadffc0
1156 280 m 256
 1156 316 1144 352 1120 380 c 0
 1096 408 1068 422 1032 422 c 0
 996 422 964 408 940 380 c 0
 916 352 904 316 904 280 c 256
 904 244 916 212 940 182 c 0
 964 152 996 136 1032 136 c 0xd1ffc0
 1068 136 1096 152 1120 182 c 0
 1144 212 1156 244 1156 280 c 256
EndSplineSet
EndChar

StartChar: ta_debit_sign
Encoding: 109 3062 65
Width: 1430
Flags: HW
HStem: -556 146<408 782> -242 154<374 842 1018 1268> -12 164<502 770>
VStem: 200 156<-358 -248> 266 176<212 1054> 842 176<-352 -242 -88 40 224 1054> 1268 164<-88 686>
LayerCount: 2
Fore
SplineSet
1430 -242 m 1xee
 1018 -242 l 1
 1018 -336 970 -416 874 -476 c 1
 792 -530 700 -556 600 -556 c 0
 504 -556 416 -536 340 -494 c 0
 246 -444 200 -376 200 -288 c 0xf6
 200 -156 270 -88 410 -88 c 2
 842 -88 l 1
 842 40 l 1
 784 4 720 -12 644 -12 c 0
 550 -12 466 12 392 64 c 0
 308 124 266 198 266 288 c 2
 266 1054 l 1
 442 1054 l 1
 442 320 l 2
 442 276 464 236 506 202 c 0
 548 168 592 152 638 152 c 0
 698 152 746 174 786 220 c 0
 826 266 844 320 844 380 c 2
 844 1054 l 1
 1018 1054 l 1
 1018 -88 l 1
 1268 -88 l 1
 1268 686 l 1
 1430 686 l 1
 1430 -242 l 1xee
842 -242 m 1
 424 -242 l 2
 396 -242 380 -244 374 -248 c 0
 362 -254 356 -268 356 -290 c 0
 356 -322 386 -350 448 -376 c 0
 500 -398 546 -410 584 -410 c 0
 650 -410 706 -398 754 -374 c 0
 814 -346 842 -302 842 -242 c 1
EndSplineSet
EndChar

StartChar: ta_credit_sign
Encoding: 110 3063 66
Width: 2210
Flags: HW
HStem: -26 164<566 758> -16 96<1516 1654> -4 106<1922 2104> 2 50G<1140 1308> 224 88<1518 1654> 422 152<568 758> 464 106<1526 1792> 890 164<554 1140 1308 1482>
VStem: 200 160<282 704> 424 112<258 390> 788 164<172 390> 1140 168<2 890> 1360 104<168 396> 1658 92<82 220> 1860 106<102 396> 2104 106<100 556>
LayerCount: 2
Fore
SplineSet
2210 -4 m 1x2bff
 1784 -4 l 1x2bff
 1778 68 l 1
 1832 118 1860 178 1860 250 c 0
 1860 310 1840 358 1804 400 c 0
 1768 442 1718 464 1658 464 c 0
 1602 464 1554 444 1518 404 c 0
 1482 364 1464 314 1464 256 c 0
 1464 236 1466 220 1470 200 c 1
 1482 276 1526 312 1602 312 c 0
 1646 312 1684 294 1710 262 c 0
 1736 230 1748 190 1748 146 c 0
 1748 98 1734 58 1706 28 c 0
 1678 -2 1638 -16 1590 -16 c 0x4bff
 1520 -16 1464 12 1420 72 c 0
 1380 124 1360 188 1360 262 c 0
 1360 350 1388 424 1444 482 c 0
 1500 540 1572 568 1660 568 c 0
 1750 568 1824 540 1880 480 c 0
 1936 420 1964 346 1964 256 c 0
 1964 204 1950 152 1922 100 c 1
 2104 100 l 1
 2104 556 l 1
 2210 556 l 1
 2210 -4 l 1x2bff
1482 890 m 1
 1308 890 l 1
 1308 2 l 1
 1140 2 l 1x19ff
 1140 890 l 1
 762 890 l 2
 646 890 550 852 474 778 c 0
 398 704 362 610 362 494 c 0
 362 402 386 324 432 256 c 1
 428 282 424 302 424 314 c 0
 424 390 448 452 494 500 c 0
 540 548 600 574 674 574 c 0
 758 574 824 544 876 486 c 0
 928 428 952 356 952 272 c 0
 952 184 924 112 868 56 c 0
 812 0 740 -26 652 -26 c 0x8dff
 516 -26 404 30 318 140 c 0
 240 240 200 360 200 500 c 0
 200 672 258 808 372 910 c 1
 482 1006 624 1054 796 1054 c 2
 1482 1054 l 1
 1482 890 l 1
1658 152 m 256
 1658 200 1634 224 1586 224 c 256
 1538 224 1514 200 1514 152 c 256
 1514 104 1538 80 1586 80 c 256x49ff
 1634 80 1658 104 1658 152 c 256
788 280 m 0
 788 320 778 354 756 382 c 0
 734 410 702 422 664 422 c 256
 626 422 596 410 572 382 c 0
 548 354 536 320 536 280 c 256
 536 240 548 208 570 182 c 1
 594 152 626 136 664 136 c 256x8dff
 702 136 734 152 756 180 c 0
 778 208 788 242 788 280 c 0
EndSplineSet
EndChar

StartChar: ta_as_above
Encoding: 111 3064 67
Width: 3398
Flags: HW
HStem: -32 166<814 1050 1610 1748> -2 160<2198 2862 3028 3236> 312 166<2662 2862 3028 3148> 538 160<804 1060> 910 168<2584 2826> 1492 178<794 1372>
VStem: 200 168<452 1064> 584 168<202 480> 1108 180<198 486> 1410 156<172 512> 1760 158<140 624 782 1136> 2102 164<210 536> 2366 168<594 860> 2862 166<-532 -2 158 312 484 872> 3236 160<158 410> 3272 124<590 718>
LayerCount: 2
Fore
SplineSet
3398 -2 m 1x7ffd
 3028 -2 l 1
 3028 -532 l 1
 2862 -532 l 1
 2862 -2 l 1
 2854 -2 2856 -2 1970 -2 c 1x7ffd
 1960 116 l 1
 2054 192 2102 278 2102 376 c 0
 2102 434 2084 486 2050 532 c 0
 2016 578 1972 610 1918 624 c 1
 1918 268 l 2
 1918 192 1900 126 1862 68 c 0
 1818 2 1760 -32 1686 -32 c 0xbffd
 1600 -32 1530 12 1478 100 c 0
 1434 176 1410 260 1410 352 c 0
 1410 460 1440 554 1504 638 c 0
 1568 722 1652 772 1754 792 c 1
 1754 926 l 2
 1754 1092 1682 1232 1540 1342 c 0
 1410 1442 1258 1492 1086 1492 c 0
 870 1492 698 1424 566 1288 c 0
 434 1152 368 976 368 758 c 0
 368 636 388 528 428 434 c 0
 476 320 548 240 642 196 c 1
 604 242 584 304 584 380 c 0
 584 474 620 550 688 610 c 0
 756 670 838 698 934 698 c 0
 1036 698 1122 664 1188 596 c 0
 1254 528 1288 442 1288 340 c 0
 1288 224 1248 136 1166 68 c 0
 1090 6 994 -26 878 -26 c 0
 780 -26 686 -4 594 40 c 0
 462 106 362 208 294 344 c 0
 232 468 200 608 200 766 c 0
 200 1030 282 1246 448 1416 c 0
 614 1586 830 1670 1094 1670 c 0
 1312 1670 1500 1604 1660 1472 c 1
 1832 1332 1918 1152 1918 940 c 2
 1918 792 l 1
 2018 778 2104 732 2168 654 c 0
 2232 576 2264 486 2264 382 c 0
 2264 296 2242 220 2198 158 c 1
 2218 158 2216 158 2862 158 c 1
 2862 312 l 1
 2730 312 2618 348 2522 424 c 0
 2418 506 2366 612 2366 742 c 0
 2366 842 2402 924 2474 988 c 0
 2542 1048 2628 1078 2730 1078 c 0
 2816 1078 2888 1050 2944 998 c 0
 3000 946 3028 876 3028 790 c 2
 3028 484 l 1
 3092 496 3146 524 3190 562 c 0
 3242 606 3268 658 3272 718 c 1
 3398 718 l 1
 3398 -2 l 1x7ffd
3236 158 m 1x7ffe
 3236 410 l 1
 3172 354 3104 322 3028 316 c 1
 3028 158 l 1
 3236 158 l 1x7ffe
2862 778 m 2
 2862 816 2846 848 2818 872 c 0
 2790 896 2756 910 2716 910 c 0
 2664 910 2622 894 2586 862 c 0
 2550 830 2534 788 2534 736 c 0
 2534 656 2570 592 2642 544 c 0
 2706 500 2778 480 2862 478 c 1
 2862 778 l 2
1760 268 m 2
 1760 624 l 1
 1700 608 1654 570 1618 512 c 0
 1582 454 1566 392 1566 328 c 0
 1566 290 1578 250 1598 208 c 0
 1622 158 1650 134 1682 134 c 0xbffc
 1734 134 1760 178 1760 268 c 2
1108 344 m 0
 1108 400 1092 446 1060 482 c 0
 1028 518 986 538 932 538 c 256
 878 538 834 518 802 480 c 0
 770 442 752 394 752 338 c 0
 752 286 770 242 804 200 c 0
 838 158 880 136 932 136 c 0
 984 136 1028 158 1060 200 c 0
 1092 242 1108 290 1108 344 c 0
EndSplineSet
EndChar

StartChar: ta_rupee
Encoding: 112 3065 68
Width: 2910
Flags: HW
HStem: -562 178<800 1350> -2 50G<684 858 1106 1272> 478 168<1300 1572> 872 178<858 1106 1272 1686 2530 2910> 1404 164<868 1496> 1510 176<2022 2330>
VStem: 200 172<104 852> 684 172<0 872> 1106 166<-2 454 562 872> 1680 176<-76 360> 1782 164<872 1182> 2422 180<1070 1418>
LayerCount: 2
Fore
SplineSet
2910 872 m 1xf7d0
 2292 872 l 1
 2292 1000 l 1
 2378 1052 2422 1134 2422 1248 c 0
 2422 1324 2398 1388 2352 1436 c 0
 2306 1484 2246 1510 2170 1510 c 0
 2020 1510 1944 1410 1944 1208 c 0
 1944 1180 1948 1068 1956 872 c 1
 1794 872 l 1
 1786 924 1782 964 1782 998 c 0xf7b0
 1782 1138 1712 1244 1574 1316 c 0
 1464 1376 1334 1404 1184 1404 c 0
 916 1404 712 1312 570 1132 c 0
 438 968 372 750 372 476 c 0
 372 228 428 28 540 -124 c 0
 666 -296 850 -384 1088 -384 c 0
 1250 -384 1390 -334 1506 -232 c 0
 1622 -130 1680 0 1680 160 c 0
 1680 246 1660 320 1616 380 c 0
 1568 446 1500 478 1416 478 c 0
 1380 478 1348 468 1318 450 c 0
 1288 432 1272 406 1272 370 c 2
 1272 -2 l 1
 1106 -2 l 1
 1106 872 l 1
 858 872 l 1
 858 -2 l 1
 684 0 l 1
 684 1048 l 1
 1686 1048 l 1
 1686 872 l 1
 1272 872 l 1
 1272 562 l 1
 1312 618 1370 646 1446 646 c 0
 1584 646 1688 594 1762 492 c 1
 1824 402 1856 286 1856 142 c 0
 1856 -66 1784 -236 1640 -366 c 0
 1496 -496 1322 -562 1110 -562 c 0
 812 -562 582 -460 420 -256 c 0
 272 -68 200 176 200 484 c 0
 200 810 280 1070 442 1260 c 0
 616 1464 864 1568 1184 1568 c 0xfbd0
 1412 1568 1616 1500 1796 1364 c 1
 1848 1578 1976 1684 2178 1684 c 0
 2308 1684 2410 1642 2486 1558 c 0
 2562 1474 2602 1366 2602 1234 c 0
 2602 1158 2578 1094 2530 1048 c 1
 2910 1048 l 1
 2910 872 l 1xf7d0
EndSplineSet
EndChar

StartChar: ta_number_sign
Encoding: 113 3066 69
Width: 2438
Flags: HW
HStem: -264 154<400 1060> 488 168<874 1130> 886 172<434 682 848 870 1020 1154 2058 2438> 1390 156<1030 1254> 1510 176<1564 1872>
VStem: 200 168<-476 -286> 260 172<8 886> 682 166<8 464 572 886> 830 164<1082 1354> 1220 176<42 394> 1322 164<1016 1314> 1950 180<1070 1430>
LayerCount: 2
Fore
SplineSet
2438 872 m 1xea90
 1820 872 l 1
 1820 1000 l 1
 1906 1052 1950 1134 1950 1248 c 0
 1950 1326 1932 1390 1892 1438 c 0
 1852 1486 1796 1510 1722 1510 c 0xea90
 1564 1510 1484 1410 1484 1208 c 2
 1484 1016 l 1
 1322 1016 l 1
 1322 1154 l 2
 1322 1216 1306 1272 1274 1316 c 0
 1238 1366 1190 1390 1132 1390 c 0
 1090 1390 1056 1372 1030 1336 c 0
 1004 1300 992 1264 992 1220 c 0xf2b0
 992 1184 1000 1148 1018 1116 c 0
 1040 1078 1068 1058 1102 1058 c 2
 1154 1058 l 1
 1154 886 l 1
 848 886 l 1
 848 572 l 1xf110
 884 628 944 656 1022 656 c 0
 1134 656 1226 606 1298 508 c 0
 1364 418 1396 318 1396 202 c 0
 1396 62 1344 -54 1238 -142 c 0
 1138 -224 1016 -264 870 -264 c 2
 472 -264 l 2
 444 -264 418 -272 398 -292 c 0
 378 -312 368 -336 368 -364 c 0
 368 -406 388 -434 424 -446 c 1
 314 -554 l 1
 238 -508 200 -440 200 -350 c 0
 200 -282 226 -226 276 -180 c 0
 326 -134 384 -110 452 -110 c 2
 874 -110 l 2
 964 -110 1044 -78 1114 -16 c 0
 1184 46 1220 120 1220 208 c 0
 1220 284 1200 346 1162 398 c 1
 1120 458 1064 488 992 488 c 0xf4d0
 956 488 924 478 894 460 c 0
 864 442 848 416 848 380 c 2
 848 8 l 1
 682 8 l 1
 682 886 l 1xf110
 434 886 l 1
 434 8 l 1
 260 8 l 1
 260 1058 l 1
 870 1058 l 1
 842 1108 830 1162 830 1220 c 0
 830 1308 858 1384 916 1448 c 0
 974 1512 1046 1546 1134 1546 c 0xf290
 1242 1546 1324 1498 1384 1400 c 1
 1418 1498 1458 1566 1506 1610 c 0
 1560 1660 1636 1684 1730 1684 c 0
 1858 1684 1958 1642 2030 1556 c 0
 2098 1474 2130 1366 2130 1234 c 0
 2130 1158 2106 1094 2058 1048 c 1
 2438 1048 l 1
 2438 872 l 1xea90
EndSplineSet
EndChar

StartChar: ta_au_short_sign
Encoding: 92 3031 70
Width: 1616
Flags: HW
HStem: 184 140<478 640> 532 128<476 642> 892 134<1014 1254 1396 1616> 910 140<462 796>
VStem: 200 132<434 770> 370 98<394 526> 648 136<330 526> 876 136<208 834> 1254 142<208 892>
LayerCount: 2
Fore
SplineSet
1616 892 m 5xef80
 1396 892 l 5
 1396 208 l 5
 1254 208 l 5
 1254 892 l 5
 1014 892 l 5xef80
 1014 208 l 5
 876 208 l 5
 876 704 l 6
 876 766 850 816 798 856 c 4
 750 892 694 910 628 910 c 4
 542 910 470 876 414 812 c 4
 358 748 332 672 332 584 c 4
 332 530 344 478 372 432 c 5
 370 442 370 450 370 454 c 4
 370 514 388 562 424 602 c 4
 460 642 508 660 568 660 c 4
 634 660 686 636 726 590 c 4
 766 544 786 488 786 422 c 4
 786 352 764 294 720 250 c 4
 676 206 618 184 550 184 c 4
 442 184 354 228 288 314 c 4
 228 392 200 488 200 600 c 4
 200 726 236 834 312 920 c 4
 388 1006 488 1048 612 1048 c 4xdf80
 732 1048 820 1008 876 924 c 5
 876 1028 l 5
 1616 1028 l 5
 1616 892 l 5xef80
648 430 m 4
 648 498 618 532 558 532 c 4
 498 532 468 498 468 430 c 4
 468 360 498 324 558 324 c 4
 618 324 648 360 648 430 c 4
EndSplineSet
EndChar

StartChar: ta_om
Encoding: 91 3024 71
Width: 1796
Flags: HW
HStem: -684 140<414 942> -464 94<558 682 778 874> -200 94<780 856> -182 182<1296 1668> -134 112<580 680> -106 98<390 464> 14 160<500 678> 100 160<1406 1606> 436 164<500 678> 898 178<690 1306>
VStem: 200 166<380 632> 274 116<-518 -106> 378 98<376 412> 464 94<-370 -106> 580 100<-134 -22> 680 98<-370 -202> 702 182<194 416> 874 100<-370 -206> 1012 172<104 366> 1218 160<288 368> 1638 158<306 636>
LayerCount: 2
Fore
SplineSet
1796 442 m 0xc2eab8
 1796 348 1772 268 1724 204 c 0
 1672 136 1600 100 1508 100 c 0
 1432 100 1364 126 1306 178 c 0
 1248 230 1220 292 1218 368 c 1
 1196 342 1184 298 1184 236 c 0
 1184 170 1212 114 1272 68 c 0
 1332 22 1394 0 1462 0 c 2
 1668 0 l 1
 1668 -182 l 1
 1428 -182 l 2xd1eab8
 1352 -182 1288 -206 1234 -256 c 0
 1194 -292 1158 -352 1126 -434 c 0
 1092 -522 1064 -580 1040 -608 c 0
 994 -660 922 -684 828 -684 c 2
 584 -684 l 2
 478 -684 402 -664 354 -624 c 0
 302 -580 274 -508 274 -404 c 2
 274 -158 l 2
 274 -118 286 -82 312 -52 c 0
 338 -22 372 -8 412 -8 c 256xc4d038
 452 -8 486 -22 514 -52 c 0
 542 -82 558 -116 558 -156 c 2
 558 -370 l 1
 682 -370 l 1
 680 -328 680 -296 680 -276 c 0
 680 -162 720 -106 796 -106 c 0xe0d538
 848 -106 890 -128 924 -172 c 0
 958 -216 976 -264 976 -316 c 0
 976 -360 962 -394 936 -422 c 0
 910 -450 878 -464 834 -464 c 2
 464 -464 l 1
 464 -152 l 2
 464 -122 452 -106 428 -106 c 0
 402 -106 390 -122 390 -152 c 0
 390 -196 390 -194 390 -280 c 0
 390 -366 390 -366 390 -410 c 0
 390 -500 442 -544 548 -544 c 2
 838 -544 l 2
 898 -544 942 -510 970 -442 c 0
 998 -374 1024 -308 1050 -240 c 1
 1088 -158 1148 -106 1230 -80 c 1
 1084 -8 1012 102 1012 248 c 0
 1012 342 1044 422 1108 488 c 0
 1172 554 1254 588 1348 588 c 0
 1388 588 1426 580 1464 568 c 1
 1406 536 1378 476 1378 388 c 0
 1378 354 1392 326 1418 300 c 0
 1444 274 1474 262 1508 262 c 0xc5d578
 1552 262 1584 282 1608 320 c 0
 1628 352 1638 390 1638 434 c 0
 1638 586 1566 706 1422 790 c 0
 1298 862 1156 898 994 898 c 0
 830 898 688 862 572 788 c 0
 434 702 366 578 366 422 c 0
 366 406 370 390 378 376 c 1
 378 440 400 494 442 536 c 0
 484 578 536 600 600 600 c 0
 684 600 752 570 804 512 c 0
 856 454 884 384 884 300 c 0
 884 216 854 146 796 94 c 0
 738 42 666 14 580 14 c 0
 466 14 372 58 300 144 c 0
 232 226 200 324 200 440 c 0
 200 644 284 804 452 920 c 0
 600 1024 780 1076 992 1076 c 0
 1204 1076 1386 1024 1536 920 c 1
 1708 804 1796 644 1796 442 c 0xc2eab8
680 -76 m 0
 680 -114 664 -134 630 -134 c 256
 596 -134 580 -114 580 -76 c 0
 580 -40 596 -22 630 -22 c 256xc8c238
 664 -22 680 -40 680 -76 c 0
702 304 m 0xc2c8b8
 702 338 692 368 670 396 c 0
 648 424 620 436 588 436 c 256
 556 436 530 424 508 396 c 0
 486 368 476 338 476 304 c 0
 476 272 486 244 508 216 c 0
 530 188 556 176 588 176 c 256
 620 176 648 188 670 216 c 0
 692 244 702 272 702 304 c 0xc2c8b8
874 -320 m 0xe0c178
 874 -296 868 -270 854 -242 c 0
 840 -214 822 -200 798 -200 c 0
 786 -200 778 -206 778 -218 c 2
 778 -370 l 1
 844 -370 l 2
 864 -370 874 -354 874 -320 c 0xe0c178
EndSplineSet
EndChar

StartChar: ta_k
Encoding: 115 -1 72
Width: 1452
GlyphClass: 2
Flags: HW
HStem: -28 148<534 854 1124 1312> 446 170<424 516 682 916 1080 1312> 886 166<682 916 1080 1388> 1208 316<914 1108>
VStem: 248 166<224 428> 516 166<616 886> 876 268<1256 1494> 916 164<182 446 616 886> 1336 164<138 426>
LayerCount: 2
Fore
SplineSet
1096 1366 m 0xfe80
 1096 1326 1084 1288 1060 1256 c 0
 1036 1224 1002 1208 962 1208 c 256
 922 1208 888 1224 864 1256 c 0
 840 1288 828 1326 828 1366 c 0
 828 1406 840 1440 864 1474 c 0
 888 1508 922 1524 962 1524 c 256
 1002 1524 1036 1508 1060 1474 c 0
 1084 1440 1096 1406 1096 1366 c 0xfe80
1452 292 m 0
 1452 78 1364 -28 1184 -28 c 0
 1128 -28 1078 -20 1032 2 c 1
 1092 144 l 1
 1118 128 1148 120 1174 120 c 0
 1250 120 1288 176 1288 286 c 0
 1288 394 1246 446 1160 446 c 2
 1032 446 l 1
 1032 320 l 2
 1032 208 996 120 926 60 c 0
 856 0 766 -28 648 -28 c 0
 540 -28 440 4 348 74 c 0
 250 148 200 240 200 348 c 0
 200 528 288 618 468 616 c 1
 468 1052 l 1
 1340 1052 l 1
 1340 886 l 1
 1032 886 l 1
 1032 616 l 1xfd80
 1168 616 l 2
 1262 616 1334 586 1384 524 c 0
 1430 466 1452 388 1452 292 c 0
868 616 m 1
 868 886 l 1
 634 886 l 1
 634 616 l 1
 868 616 l 1
868 312 m 1
 868 314 l 1
 868 446 l 1
 512 446 l 2
 414 446 364 414 364 346 c 0
 364 284 400 232 464 188 c 0
 524 148 584 128 648 128 c 0
 788 128 860 190 868 312 c 1
EndSplineSet
Ligature2: "'half' form Substitution lookup 5-1" ta_ka ta_virama
Ligature2: "'haln' Halant Forms in Tamil lookup 4-1" ta_ka ta_virama
EndChar

StartChar: ta_ng
Encoding: 116 -1 73
Width: 1630
Flags: HW
HStem: 0 154<626 1036 1184 1460> 494 166<820 1050> 878 172<368 626 790 1170> 1208 316<848 1040>
VStem: 200 168<0 878> 626 166<250 462 580 878> 810 268<1256 1492> 1090 180<210 452> 1460 170<154 1048>
LayerCount: 2
Fore
SplineSet
1078 1366 m 0
 1078 1324 1066 1288 1042 1256 c 0
 1018 1224 984 1208 944 1208 c 256
 904 1208 872 1224 848 1256 c 0
 824 1288 810 1324 810 1366 c 0
 810 1406 824 1442 848 1474 c 0
 872 1506 904 1524 944 1524 c 256
 984 1524 1018 1506 1042 1474 c 0
 1066 1442 1078 1406 1078 1366 c 0
1630 0 m 1
 626 0 l 1
 626 154 l 1
 910 154 l 2
 958 154 1000 172 1036 208 c 0
 1072 244 1090 288 1090 336 c 0
 1090 380 1076 418 1048 448 c 0
 1020 478 982 494 938 494 c 0
 902 494 870 482 838 458 c 0
 806 434 790 404 790 368 c 2
 790 250 l 1
 626 250 l 1
 626 878 l 1
 368 878 l 1
 368 0 l 1
 200 0 l 1
 200 1052 l 1
 1170 1052 l 1
 1170 878 l 1
 790 878 l 1
 790 580 l 1
 834 632 894 660 968 660 c 0
 1058 660 1130 632 1186 576 c 0
 1242 520 1270 448 1270 356 c 0
 1270 280 1242 212 1184 154 c 1
 1460 154 l 1
 1460 1048 l 1
 1630 1048 l 1
 1630 0 l 1
EndSplineSet
Ligature2: "'half' form Substitution lookup 5-1" ta_nga ta_virama
Ligature2: "'haln' Halant Forms in Tamil lookup 4-1" ta_nga ta_virama
EndChar

StartChar: ta_ch
Encoding: 117 -1 74
Width: 1334
Flags: HW
HStem: -28 156<466 802> 446 170<380 454 620 856 1018 1334> 886 166<620 856 1018 1312> 1208 316<878 1070>
VStem: 200 166<220 430> 454 166<616 886> 840 268<1256 1492> 856 160<182 446 616 886>
LayerCount: 2
Fore
SplineSet
1108 1366 m 0xfe
 1108 1324 1096 1288 1072 1256 c 0
 1048 1224 1014 1208 974 1208 c 256
 934 1208 902 1224 878 1256 c 0
 854 1288 840 1324 840 1366 c 0
 840 1406 854 1442 878 1474 c 0
 902 1506 934 1524 974 1524 c 256
 1014 1524 1048 1506 1072 1474 c 0
 1096 1442 1108 1406 1108 1366 c 0xfe
1334 446 m 1
 1018 446 l 1
 1018 320 l 2
 1018 206 984 120 914 60 c 0
 844 0 752 -28 636 -28 c 0
 526 -28 426 6 338 74 c 1
 246 150 200 240 200 348 c 0
 200 528 284 618 454 616 c 1
 454 1052 l 1
 1312 1052 l 1
 1312 886 l 1
 1018 886 l 1
 1018 616 l 1xfd
 1334 616 l 1
 1334 446 l 1
856 616 m 1
 856 886 l 1
 620 886 l 1
 620 616 l 1
 856 616 l 1
856 312 m 1
 856 314 l 1
 856 446 l 1
 500 446 l 2
 410 446 364 414 364 346 c 0
 364 284 396 232 456 188 c 0
 512 148 572 128 636 128 c 0
 776 128 848 188 856 312 c 1
EndSplineSet
Ligature2: "'half' form Substitution lookup 5-1" ta_cha ta_virama
Ligature2: "'haln' Halant Forms in Tamil lookup 4-1" ta_cha ta_virama
EndChar

StartChar: ta_j
Encoding: 118 -1 75
Width: 1750
Flags: HW
HStem: -578 164<480 808 1314 1542> -38 160<1242 1534> 146 166<486 1444> 368 154<398 566> 724 124<426 564> 908 168<460 860 1164 1490> 1208 316<920 1112>
VStem: 200 166<-302 26 546 700> 586 172<542 702> 882 268<1256 1492> 926 180<398 842> 1108 170<-382 -296> 1588 164<-364 -92 456 804>
LayerCount: 2
Fore
SplineSet
1150 1366 m 0xffc8
 1150 1324 1138 1288 1114 1256 c 0
 1090 1224 1056 1208 1016 1208 c 256
 976 1208 944 1224 920 1256 c 0
 896 1288 882 1324 882 1366 c 0
 882 1406 896 1442 920 1474 c 0
 944 1506 976 1524 1016 1524 c 256
 1056 1524 1090 1506 1114 1474 c 0
 1138 1442 1150 1406 1150 1366 c 0xffc8
1750 -220 m 0
 1750 -312 1722 -396 1666 -466 c 0
 1606 -542 1534 -578 1442 -578 c 0
 1356 -578 1280 -554 1214 -504 c 0
 1144 -450 1108 -380 1108 -296 c 1
 1278 -296 l 1
 1278 -332 1294 -362 1324 -384 c 0
 1354 -406 1388 -418 1426 -418 c 0
 1474 -418 1514 -398 1544 -360 c 0
 1574 -322 1588 -278 1588 -228 c 0
 1588 -184 1572 -140 1540 -100 c 0
 1508 -60 1470 -38 1426 -38 c 0
 1312 -38 1220 -86 1148 -178 c 1
 1088 -264 1030 -352 970 -440 c 1
 890 -532 782 -578 646 -578 c 0
 522 -578 420 -534 332 -446 c 0
 244 -358 200 -254 200 -130 c 0
 200 -8 244 96 332 182 c 0
 420 268 522 312 644 312 c 2
 1258 312 l 2
 1350 312 1428 340 1490 400 c 0
 1552 460 1582 536 1582 628 c 0
 1582 706 1560 772 1516 826 c 0
 1472 880 1412 908 1336 908 c 0
 1182 908 1106 836 1106 694 c 2
 1106 398 l 1
 926 398 l 1
 926 694 l 2xffb8
 926 840 834 912 652 912 c 0
 554 912 478 884 426 824 c 1
 454 842 486 850 520 850 c 0
 586 850 640 826 688 782 c 0
 736 738 760 684 760 620 c 0
 760 544 734 482 682 436 c 0
 630 390 564 368 488 368 c 0
 404 368 336 396 284 454 c 0
 232 512 206 584 206 668 c 0
 206 788 250 886 340 962 c 0
 424 1036 528 1072 652 1072 c 0
 812 1072 928 1030 1004 946 c 1
 1072 1032 1180 1076 1324 1076 c 0
 1444 1076 1546 1032 1628 946 c 0
 1710 860 1750 756 1750 634 c 0
 1750 496 1710 382 1630 290 c 0
 1546 194 1438 146 1304 146 c 2
 652 146 l 2
 574 146 506 120 450 64 c 0
 394 8 366 -58 366 -136 c 256
 366 -214 392 -280 446 -334 c 0
 500 -388 566 -416 646 -416 c 0
 744 -416 826 -368 894 -276 c 0
 986 -146 984 -146 1076 -16 c 1
 1164 76 1280 122 1426 122 c 0
 1516 122 1592 88 1656 20 c 0
 1720 -48 1750 -128 1750 -220 c 0
586 622 m 0
 586 650 576 674 554 694 c 0
 532 714 506 724 478 724 c 0
 448 724 424 716 404 696 c 0
 384 676 376 652 376 622 c 0
 376 594 386 570 406 550 c 0
 426 530 454 520 484 520 c 0
 512 520 536 530 556 548 c 0
 576 566 586 592 586 622 c 0
EndSplineSet
Ligature2: "'half' form Substitution lookup 5-1" ta_ja ta_virama
Ligature2: "'haln' Halant Forms in Tamil lookup 4-1" ta_ja ta_virama
EndChar

StartChar: ta_nj
Encoding: 119 -1 76
Width: 2240
Flags: HW
HStem: -596 146<944 1636> -26 164<910 1098> 422 152<908 1096> 488 168<1716 1976> 888 166<894 1528 1690 2124> 1208 316<1474 1666>
VStem: 200 156<104 750> 544 164<276 698> 764 112<258 388> 1128 164<172 388> 1436 268<1256 1492> 1528 164<14 462 566 888> 2070 170<-54 388>
LayerCount: 2
Fore
SplineSet
1704 1366 m 0xcfe8
 1704 1324 1692 1288 1668 1256 c 0
 1644 1224 1610 1208 1570 1208 c 256
 1530 1208 1498 1224 1474 1256 c 0
 1450 1288 1436 1324 1436 1366 c 0
 1436 1406 1450 1442 1474 1474 c 0
 1498 1506 1530 1524 1570 1524 c 256
 1610 1524 1644 1506 1668 1474 c 0
 1692 1442 1704 1406 1704 1366 c 0xcfe8
2240 182 m 0
 2240 72 2216 -34 2166 -136 c 0
 2090 -294 1966 -414 1800 -494 c 1
 1656 -562 1488 -596 1292 -596 c 0
 982 -596 726 -506 522 -328 c 0
 308 -140 200 104 200 412 c 0
 200 714 280 938 436 1078 c 1
 550 968 l 1
 420 848 356 664 356 420 c 0
 356 158 448 -54 630 -216 c 0
 806 -372 1026 -448 1292 -448 c 0
 1638 -448 1874 -328 2002 -84 c 0
 2046 4 2070 92 2070 184 c 0
 2070 266 2050 336 2014 392 c 0
 1970 456 1910 488 1832 488 c 0
 1798 488 1766 478 1736 458 c 0
 1706 438 1690 414 1690 380 c 2
 1690 14 l 1
 1528 14 l 1
 1528 888 l 1
 1098 888 l 2
 984 888 890 850 816 774 c 0
 742 698 706 604 706 488 c 0xdfd8
 706 406 726 328 768 256 c 1
 764 276 764 294 764 314 c 0
 764 390 788 452 834 500 c 0
 880 548 940 574 1014 574 c 0xefd8
 1098 574 1164 544 1216 486 c 0
 1268 428 1292 356 1292 272 c 0
 1292 184 1264 112 1208 56 c 0
 1152 0 1080 -26 992 -26 c 0
 854 -26 742 26 658 134 c 0
 582 234 544 354 544 494 c 0
 544 658 594 794 698 898 c 0
 802 1002 936 1054 1100 1054 c 2
 2124 1054 l 1
 2124 888 l 1
 1690 888 l 1
 1690 566 l 1
 1724 626 1778 656 1854 656 c 0xdfd8
 1976 656 2072 606 2144 506 c 0
 2208 418 2240 310 2240 182 c 0
1128 280 m 256
 1128 318 1118 352 1094 380 c 0
 1070 408 1040 422 1004 422 c 0xefc8
 966 422 936 408 912 380 c 0
 888 352 876 318 876 280 c 256
 876 242 888 208 912 180 c 0
 936 152 966 136 1004 136 c 0
 1040 136 1070 152 1094 180 c 0
 1118 208 1128 242 1128 280 c 256
EndSplineSet
Ligature2: "'half' form Substitution lookup 5-1" ta_nja ta_virama
Ligature2: "'haln' Halant Forms in Tamil lookup 4-1" ta_nja ta_virama
EndChar

StartChar: ta_t
Encoding: 120 -1 77
Width: 1482
Flags: HW
HStem: -2 168<368 1482> 1172 316<836 1028>
VStem: 200 168<166 1056> 798 268<1220 1456>
LayerCount: 2
Fore
SplineSet
1066 1330 m 0
 1066 1288 1054 1252 1030 1220 c 0
 1006 1188 972 1172 932 1172 c 256
 892 1172 860 1188 836 1220 c 0
 812 1252 798 1288 798 1330 c 0
 798 1370 812 1406 836 1438 c 0
 860 1470 892 1488 932 1488 c 256
 972 1488 1006 1470 1030 1438 c 0
 1054 1406 1066 1370 1066 1330 c 0
1482 -2 m 1
 200 -2 l 1
 200 1056 l 1
 368 1056 l 1
 368 166 l 1
 1482 166 l 1
 1482 -2 l 1
EndSplineSet
Ligature2: "'half' form Substitution lookup 5-1" ta_ta ta_virama
Ligature2: "'haln' Halant Forms in Tamil lookup 4-1" ta_ta ta_virama
EndChar

StartChar: ta_nnn
Encoding: 121 -1 78
Width: 3048
Flags: HW
HStem: -26 176<536 730 1216 1404 1974 2150> -2 50G<2544 2720> 422 152<538 726> 892 164<2198 2544 2720 3048> 922 158<644 1126 1468 1906> 1208 316<1620 1812>
VStem: 200 166<266 678> 398 108<266 388> 758 164<172 388> 1008 168<184 668> 1446 178<186 634> 1582 268<1256 1492> 1764 168<184 656> 2190 180<180 658> 2544 176<-2 892>
LayerCount: 2
Fore
SplineSet
1850 1366 m 0x27d6
 1850 1324 1838 1288 1814 1256 c 0
 1790 1224 1756 1208 1716 1208 c 256
 1676 1208 1644 1224 1620 1256 c 0
 1596 1288 1582 1324 1582 1366 c 0
 1582 1406 1596 1442 1620 1474 c 0
 1644 1506 1676 1524 1716 1524 c 256
 1756 1524 1790 1506 1814 1474 c 0
 1838 1442 1850 1406 1850 1366 c 0x27d6
3048 892 m 1x37ee
 2720 892 l 1
 2720 -2 l 1
 2544 -2 l 1
 2544 892 l 1
 2340 892 l 2x77ee
 2280 892 2232 878 2196 848 c 1
 2312 724 2370 574 2370 396 c 0
 2370 114 2272 -26 2078 -26 c 0
 1968 -26 1886 22 1832 122 c 0
 1788 204 1764 304 1764 422 c 0
 1764 598 1820 742 1930 854 c 1
 1864 898 1782 922 1682 922 c 0
 1574 922 1492 898 1440 848 c 1
 1562 716 1622 564 1622 396 c 0
 1622 280 1602 186 1560 112 c 0
 1508 20 1430 -26 1322 -26 c 0
 1214 -26 1132 24 1076 124 c 0
 1032 204 1008 304 1008 422 c 0
 1008 588 1060 732 1166 850 c 1
 1082 894 988 916 886 916 c 0
 746 916 626 878 526 800 c 0
 418 716 366 606 366 470 c 0
 366 386 382 316 414 264 c 1
 404 292 398 316 398 338 c 0
 398 406 422 464 470 508 c 0
 518 552 576 574 644 574 c 0
 728 574 794 544 846 486 c 0
 898 428 922 356 922 272 c 0
 922 184 894 112 838 56 c 0
 782 0 710 -26 622 -26 c 0
 494 -26 390 22 310 120 c 0
 236 212 200 322 200 452 c 0
 200 646 266 798 398 914 c 1
 526 1022 690 1078 886 1078 c 0
 1036 1078 1170 1038 1286 960 c 1
 1402 1040 1530 1080 1668 1080 c 0xafee
 1814 1080 1944 1040 2058 964 c 1
 2060 964 l 1
 2140 1024 2232 1056 2340 1056 c 2
 3048 1056 l 1
 3048 892 l 1x37ee
2190 408 m 0
 2190 556 2148 674 2064 760 c 1
 1976 684 1932 566 1932 408 c 0
 1932 236 1976 148 2064 148 c 0xa7ce
 2148 148 2190 236 2190 408 c 0
1446 408 m 0xa7e6
 1446 542 1398 660 1302 760 c 1
 1218 686 1176 570 1176 408 c 0
 1176 236 1220 148 1308 148 c 0
 1400 148 1446 236 1446 408 c 0xa7e6
758 280 m 256
 758 318 748 352 724 380 c 0
 700 408 670 422 634 422 c 0
 596 422 566 408 542 380 c 0
 518 352 506 318 506 280 c 256
 506 242 518 208 542 180 c 0
 566 152 596 136 634 136 c 0
 670 136 700 152 724 180 c 0
 748 208 758 242 758 280 c 256
EndSplineSet
Ligature2: "'haln' Halant Forms in Tamil lookup 4-1" ta_nna ta_virama
Ligature2: "'half' form Substitution lookup 5-1" ta_nna ta_virama
EndChar

StartChar: ta_th
Encoding: 122 -1 79
Width: 1486
Flags: HW
HStem: -264 154<398 1160> -28 156<494 830> 446 170<404 484 650 884 1048 1240> 886 166<650 884 1048 1354> 1208 316<896 1088>
VStem: 200 166<-474 -286> 226 166<220 430> 484 166<616 886> 858 268<1256 1492> 884 164<314 446 616 886> 1312 176<40 372>
LayerCount: 2
Fore
SplineSet
1126 1366 m 0xf9a0
 1126 1324 1114 1288 1090 1256 c 0
 1066 1224 1032 1208 992 1208 c 256
 952 1208 920 1224 896 1256 c 0
 872 1288 858 1324 858 1366 c 0
 858 1406 872 1442 896 1474 c 0
 920 1506 952 1524 992 1524 c 256
 1032 1524 1066 1506 1090 1474 c 0
 1114 1442 1126 1406 1126 1366 c 0xf9a0
1486 208 m 0
 1486 64 1434 -52 1330 -140 c 0
 1232 -224 1112 -264 966 -264 c 2
 472 -264 l 2
 444 -264 418 -272 398 -292 c 0
 378 -312 366 -336 366 -364 c 0
 366 -406 386 -434 424 -446 c 1
 314 -554 l 1
 238 -508 200 -440 200 -350 c 0xfd60
 200 -282 224 -226 274 -180 c 0
 324 -134 384 -110 452 -110 c 2
 970 -110 l 2
 1064 -110 1146 -80 1212 -16 c 0
 1278 48 1312 126 1312 218 c 0
 1312 286 1292 342 1250 384 c 0
 1208 426 1152 446 1084 446 c 2
 1048 446 l 1
 1048 320 l 2
 1048 206 1014 120 944 60 c 0
 874 0 780 -28 664 -28 c 0
 556 -28 456 6 368 76 c 0
 274 150 226 240 226 348 c 0
 226 528 312 618 484 616 c 1
 484 1052 l 1
 1354 1052 l 1
 1354 886 l 1
 1048 886 l 1
 1048 616 l 1xfb60
 1124 616 l 2
 1234 616 1322 578 1388 498 c 0
 1454 418 1486 322 1486 208 c 0
884 616 m 1
 884 886 l 1
 650 886 l 1
 650 616 l 1
 884 616 l 1
886 312 m 1
 884 314 l 1
 884 446 l 1
 526 446 l 2
 436 446 392 414 392 346 c 0xfb60
 392 284 424 232 484 188 c 0
 540 148 600 128 664 128 c 0
 804 128 876 188 886 312 c 1
EndSplineSet
Ligature2: "'haln' Halant Forms in Tamil lookup 4-1" ta_tha ta_virama
Ligature2: "'half' form Substitution lookup 5-1" ta_tha ta_virama
EndChar

StartChar: ta_n
Encoding: 123 -1 80
Width: 1396
Flags: HW
HStem: -264 154<400 1060> 488 168<874 1130> 886 172<434 682 848 1262> 1208 316<704 896>
VStem: 200 168<-476 -286> 260 172<8 886> 666 268<1256 1492> 682 166<8 464 572 886> 1220 176<42 394>
LayerCount: 2
Fore
SplineSet
934 1366 m 0xf280
 934 1324 922 1288 898 1256 c 0
 874 1224 840 1208 800 1208 c 256
 760 1208 728 1224 704 1256 c 0
 680 1288 666 1324 666 1366 c 0
 666 1406 680 1442 704 1474 c 0
 728 1506 760 1524 800 1524 c 256
 840 1524 874 1506 898 1474 c 0
 922 1442 934 1406 934 1366 c 0xf280
1396 202 m 0
 1396 62 1344 -54 1238 -142 c 0
 1138 -224 1016 -264 870 -264 c 2
 472 -264 l 2
 444 -264 418 -272 398 -292 c 0
 378 -312 368 -336 368 -364 c 0
 368 -406 388 -434 424 -446 c 1
 314 -554 l 1
 238 -508 200 -440 200 -350 c 0xf980
 200 -282 226 -226 276 -180 c 0
 326 -134 384 -110 452 -110 c 2
 874 -110 l 2
 964 -110 1044 -78 1114 -16 c 0
 1184 46 1220 120 1220 208 c 0
 1220 284 1200 346 1162 398 c 1
 1120 458 1064 488 992 488 c 0
 956 488 924 478 894 460 c 0
 864 442 848 416 848 380 c 2
 848 8 l 1
 682 8 l 1
 682 886 l 1
 434 886 l 1
 434 8 l 1
 260 8 l 1
 260 1058 l 1
 1262 1058 l 1
 1262 886 l 1
 848 886 l 1
 848 572 l 1xf580
 884 628 944 656 1022 656 c 0
 1134 656 1226 606 1298 508 c 0
 1364 418 1396 318 1396 202 c 0
EndSplineSet
Ligature2: "'half' form Substitution lookup 5-1" ta_na ta_virama
Ligature2: "'haln' Halant Forms in Tamil lookup 4-1" ta_na ta_virama
EndChar

StartChar: ta_nn
Encoding: 124 -1 81
Width: 2208
Flags: HW
HStem: -26 164<540 728 1226 1394> 422 152<538 726> 892 166<1456 1790 1964 2208> 916 160<632 1136> 1208 316<1200 1392>
VStem: 200 166<266 678> 398 108<266 388> 758 164<172 388> 1008 168<184 650> 1162 268<1256 1492> 1446 178<186 642> 1790 172<8 892>
LayerCount: 2
Fore
SplineSet
1430 1366 m 0xcf70
 1430 1324 1418 1288 1394 1256 c 0
 1370 1224 1336 1208 1296 1208 c 256
 1256 1208 1224 1224 1200 1256 c 0
 1176 1288 1162 1324 1162 1366 c 0
 1162 1406 1176 1442 1200 1474 c 0
 1224 1506 1256 1524 1296 1524 c 256
 1336 1524 1370 1506 1394 1474 c 0
 1418 1442 1430 1406 1430 1366 c 0xcf70
2208 892 m 1xefb0
 1964 892 l 1
 1964 8 l 1
 1790 8 l 1
 1790 892 l 1
 1584 892 l 2xefb0
 1528 892 1484 878 1452 848 c 1
 1566 724 1622 572 1622 396 c 0
 1622 280 1602 186 1560 112 c 0
 1508 20 1430 -26 1322 -26 c 0
 1212 -26 1130 24 1076 124 c 0
 1032 204 1008 304 1008 422 c 0
 1008 588 1060 732 1166 850 c 1
 1080 894 986 916 886 916 c 0
 746 916 626 878 526 800 c 0
 418 716 366 606 366 470 c 0
 366 386 382 318 414 264 c 1
 404 298 398 322 398 338 c 0
 398 406 422 464 470 508 c 0
 518 552 576 574 644 574 c 0
 728 574 794 544 846 486 c 0
 898 428 922 356 922 272 c 0
 922 184 894 112 838 56 c 0
 782 0 710 -26 622 -26 c 0
 494 -26 390 22 310 120 c 0
 236 210 200 320 200 452 c 0
 200 646 266 798 398 914 c 0
 524 1022 688 1078 886 1078 c 0xdfb0
 1034 1078 1168 1038 1286 962 c 1
 1378 1026 1472 1058 1566 1058 c 2
 2208 1058 l 1
 2208 892 l 1xefb0
1446 408 m 0
 1446 548 1402 664 1314 756 c 1
 1222 678 1176 562 1176 408 c 0
 1176 236 1220 148 1308 148 c 0
 1400 148 1446 236 1446 408 c 0
758 280 m 256
 758 318 748 352 724 380 c 0
 700 408 670 422 634 422 c 0
 596 422 566 408 542 380 c 0
 518 352 506 318 506 280 c 256
 506 242 518 208 542 180 c 0
 566 152 596 136 634 136 c 0
 670 136 700 152 724 180 c 0
 748 208 758 242 758 280 c 256
EndSplineSet
Ligature2: "'haln' Halant Forms in Tamil lookup 4-1" ta_nnna ta_virama
Ligature2: "'half' form Substitution lookup 5-1" ta_nnna ta_virama
EndChar

StartChar: ta_p
Encoding: 125 -1 82
Width: 1370
Flags: HW
HStem: -2 168<368 1202> 1208 316<704 896>
VStem: 200 168<166 1056> 666 268<1256 1492> 1202 168<166 1056>
LayerCount: 2
Fore
SplineSet
934 1366 m 4
 934 1324 922 1288 898 1256 c 4
 874 1224 840 1208 800 1208 c 260
 760 1208 728 1224 704 1256 c 4
 680 1288 666 1324 666 1366 c 4
 666 1406 680 1442 704 1474 c 4
 728 1506 760 1524 800 1524 c 260
 840 1524 874 1506 898 1474 c 4
 922 1442 934 1406 934 1366 c 4
1370 -2 m 1
 200 -2 l 1
 200 1056 l 1
 368 1056 l 1
 368 166 l 1
 1202 166 l 1
 1202 1056 l 1
 1370 1056 l 1
 1370 -2 l 1
EndSplineSet
Ligature2: "'half' form Substitution lookup 5-1" ta_pa ta_virama
Ligature2: "'haln' Halant Forms in Tamil lookup 4-1" ta_pa ta_virama
EndChar

StartChar: ta_m
Encoding: 126 -1 83
Width: 1656
Flags: HW
HStem: 0 172<374 796 980 1404> 912 170<1018 1272> 1208 316<990 1182>
VStem: 200 172<172 1052> 796 184<172 868> 952 268<1256 1492> 1460 194<228 666>
LayerCount: 2
Fore
SplineSet
1220 1366 m 0xf6
 1220 1324 1208 1288 1184 1256 c 0
 1160 1224 1126 1208 1086 1208 c 256
 1046 1208 1014 1224 990 1256 c 0
 966 1288 952 1324 952 1366 c 0
 952 1406 966 1442 990 1474 c 0
 1014 1506 1046 1524 1086 1524 c 256
 1126 1524 1160 1506 1184 1474 c 0
 1208 1442 1220 1406 1220 1366 c 0xf6
1656 434 m 0
 1656 302 1618 198 1544 118 c 0
 1470 38 1370 0 1240 0 c 2
 200 0 l 1
 200 1052 l 1
 374 1052 l 1
 374 172 l 1
 796 172 l 1
 796 760 l 2xfa
 796 848 828 924 888 988 c 0
 948 1052 1022 1082 1112 1082 c 0
 1268 1082 1400 1012 1506 872 c 1
 1606 742 1656 596 1656 434 c 0
1460 420 m 0
 1460 528 1432 634 1374 734 c 0
 1306 852 1222 912 1122 912 c 0
 1082 912 1050 898 1022 870 c 0
 994 842 980 808 980 768 c 2
 980 172 l 1
 1276 172 l 2
 1400 172 1460 256 1460 420 c 0
EndSplineSet
Ligature2: "'haln' Halant Forms in Tamil lookup 4-1" ta_ma ta_virama
Ligature2: "'half' form Substitution lookup 5-1" ta_ma ta_virama
EndChar

StartChar: ta_y
Encoding: 127 -1 84
Width: 1450
Flags: HW
HStem: -24 166<414 610 820 1288> 1208 316<956 1148>
VStem: 200 176<190 1054> 646 172<176 1054> 918 268<1256 1492> 1288 164<144 1054>
LayerCount: 2
Fore
SplineSet
1186 1366 m 0
 1186 1324 1174 1288 1150 1256 c 0
 1126 1224 1092 1208 1052 1208 c 256
 1012 1208 980 1224 956 1256 c 0
 932 1288 918 1324 918 1366 c 0
 918 1406 932 1442 956 1474 c 0
 980 1506 1012 1524 1052 1524 c 256
 1092 1524 1126 1506 1150 1474 c 0
 1174 1442 1186 1406 1186 1366 c 0
1450 -8 m 1
 670 -8 l 1
 670 84 l 1
 632 12 580 -24 512 -24 c 0
 304 -24 200 76 200 272 c 2
 200 1054 l 1
 376 1054 l 1
 376 296 l 2
 376 256 388 220 412 188 c 0
 436 156 470 142 508 142 c 0
 550 142 582 160 608 194 c 0
 634 228 646 266 646 308 c 2
 646 1054 l 1
 820 1054 l 1
 820 144 l 1
 1288 144 l 1
 1288 1054 l 1
 1450 1054 l 1
 1450 -8 l 1
EndSplineSet
Ligature2: "'half' form Substitution lookup 5-1" ta_ya ta_virama
Ligature2: "'haln' Halant Forms in Tamil lookup 4-1" ta_ya ta_virama
EndChar

StartChar: ta_r
Encoding: 128 -1 85
Width: 1238
Flags: HW
HStem: 2 50G<200 370> 892 166<370 690 858 1238> 1208 316<692 884>
VStem: 200 170<2 892> 654 268<1256 1492> 690 168<78 892>
LayerCount: 2
Fore
SplineSet
922 1366 m 0xf8
 922 1324 910 1288 886 1256 c 0
 862 1224 828 1208 788 1208 c 256
 748 1208 716 1224 692 1256 c 0
 668 1288 654 1324 654 1366 c 0
 654 1406 668 1442 692 1474 c 0
 716 1506 748 1524 788 1524 c 256
 828 1524 862 1506 886 1474 c 0
 910 1442 922 1406 922 1366 c 0xf8
1238 892 m 1
 858 892 l 1
 858 -2 l 1
 772 -28 688 -82 604 -166 c 0
 528 -240 472 -324 436 -424 c 1
 292 -326 l 1
 336 -226 394 -136 470 -60 c 1
 518 -14 550 18 570 34 c 0
 606 62 646 84 690 104 c 1
 690 892 l 1xf4
 370 892 l 1
 370 2 l 1
 200 2 l 1
 200 1058 l 1
 1238 1058 l 1
 1238 892 l 1
EndSplineSet
Ligature2: "'half' form Substitution lookup 5-1" ta_ra ta_virama
Ligature2: "'haln' Halant Forms in Tamil lookup 4-1" ta_ra ta_virama
EndChar

StartChar: ta_rr
Encoding: 129 -1 86
Width: 1470
Flags: HW
HStem: -264 156<398 1094> -2 50G<260 440 706 886> 912 170<472 670 928 1178> 1208 316<730 922>
VStem: 200 168<-476 -284> 260 180<-2 880> 692 268<1256 1492> 706 180<-2 864> 1304 166<156 750>
LayerCount: 2
Fore
SplineSet
960 1366 m 0xf280
 960 1324 948 1288 924 1256 c 0
 900 1224 866 1208 826 1208 c 256
 786 1208 754 1224 730 1256 c 0
 706 1288 692 1324 692 1366 c 0
 692 1406 706 1442 730 1474 c 0
 754 1506 786 1524 826 1524 c 256
 866 1524 900 1506 924 1474 c 0
 948 1442 960 1406 960 1366 c 0xf280
1470 442 m 0
 1470 250 1426 90 1336 -40 c 0
 1232 -188 1088 -264 906 -264 c 2
 472 -264 l 2
 444 -264 418 -272 398 -292 c 0
 378 -312 368 -336 368 -364 c 0
 368 -406 388 -434 426 -446 c 1
 312 -556 l 1
 236 -510 200 -442 200 -350 c 0xf880
 200 -282 226 -226 276 -178 c 0
 326 -130 384 -108 452 -108 c 2
 910 -108 l 2
 1042 -108 1144 -44 1216 82 c 0
 1276 188 1304 312 1304 454 c 0
 1304 568 1288 664 1254 746 c 0
 1208 856 1136 912 1038 912 c 0
 996 912 960 898 930 868 c 0
 900 838 886 802 886 760 c 2
 886 -2 l 1
 706 -2 l 1
 706 760 l 2
 706 800 694 836 668 866 c 0
 642 896 610 912 570 912 c 0
 534 912 502 898 478 866 c 0
 454 834 440 798 440 760 c 2
 440 -2 l 1
 260 -2 l 1
 260 772 l 2xf580
 260 856 292 932 354 992 c 0
 416 1052 490 1082 574 1082 c 0
 664 1082 738 1048 798 980 c 1
 856 1048 936 1082 1040 1082 c 0
 1194 1082 1306 1010 1380 864 c 0
 1440 750 1470 610 1470 442 c 0
EndSplineSet
Ligature2: "'half' form Substitution lookup 5-1" ta_rra ta_virama
Ligature2: "'haln' Halant Forms in Tamil lookup 4-1" ta_rra ta_virama
EndChar

StartChar: ta_l
Encoding: 130 -1 87
Width: 1826
Flags: HW
HStem: -26 164<566 754 1272 1550> 422 152<564 752> 916 164<576 972> 1208 316<1022 1214>
VStem: 200 160<280 704> 420 112<256 388> 784 164<172 388> 984 268<1256 1492> 1058 166<206 834> 1646 180<254 798>
LayerCount: 2
Fore
SplineSet
1252 1366 m 0xff40
 1252 1324 1240 1288 1216 1256 c 0
 1192 1224 1158 1208 1118 1208 c 256
 1078 1208 1046 1224 1022 1256 c 0
 998 1288 984 1324 984 1366 c 0
 984 1406 998 1442 1022 1474 c 0
 1046 1506 1078 1524 1118 1524 c 256
 1158 1524 1192 1506 1216 1474 c 0
 1240 1442 1252 1406 1252 1366 c 0xff40
1826 552 m 0
 1826 392 1798 260 1738 160 c 0
 1664 36 1552 -26 1404 -26 c 0
 1302 -26 1218 8 1154 78 c 0
 1090 148 1058 234 1058 336 c 2
 1058 688 l 2
 1058 762 1030 820 976 862 c 0
 926 898 866 916 790 916 c 0
 668 916 566 876 484 796 c 0
 402 716 360 614 360 492 c 0
 360 398 384 318 430 254 c 1
 424 276 420 296 420 314 c 0
 420 390 444 452 490 500 c 0
 536 548 596 574 670 574 c 0
 754 574 820 544 872 486 c 0
 924 428 948 356 948 272 c 0
 948 184 920 112 864 56 c 0
 808 0 736 -26 648 -26 c 0
 510 -26 398 26 314 134 c 0
 238 234 200 354 200 494 c 0
 200 666 254 806 366 916 c 0
 478 1026 618 1080 790 1080 c 0
 908 1080 1008 1048 1088 988 c 1
 1180 922 1224 834 1224 720 c 2
 1224 360 l 2xfec0
 1224 300 1236 248 1262 204 c 0
 1294 150 1338 122 1396 122 c 0
 1488 122 1554 170 1598 264 c 0
 1630 334 1646 422 1646 526 c 0
 1646 746 1574 902 1426 994 c 1
 1538 1114 l 1
 1730 990 1826 802 1826 552 c 0
784 280 m 256
 784 318 774 352 750 380 c 0
 726 408 696 422 660 422 c 0
 622 422 592 408 568 380 c 0
 544 352 532 318 532 280 c 256
 532 242 544 208 568 180 c 0
 592 152 622 136 660 136 c 0
 696 136 726 152 750 180 c 0
 774 208 784 242 784 280 c 256
EndSplineSet
Ligature2: "'half' form Substitution lookup 5-1" ta_la ta_virama
Ligature2: "'haln' Halant Forms in Tamil lookup 4-1" ta_la ta_virama
EndChar

StartChar: ta_ll
Encoding: 131 -1 88
Width: 2036
Flags: HW
HStem: -26 164<564 754> 2 50G<1082 1248 1576 1748> 422 152<564 752> 892 158<1248 1576 1748 2036> 914 166<554 950> 1208 316<1346 1538>
VStem: 200 156<282 702> 420 112<246 390> 784 164<172 388> 1082 166<2 792> 1308 268<1256 1492> 1576 170<2 892>
LayerCount: 2
Fore
SplineSet
1576 1366 m 0x27e0
 1576 1324 1564 1288 1540 1256 c 0
 1516 1224 1482 1208 1442 1208 c 256
 1402 1208 1370 1224 1346 1256 c 0
 1322 1288 1308 1324 1308 1366 c 0
 1308 1406 1322 1442 1346 1474 c 0
 1370 1506 1402 1524 1442 1524 c 256
 1482 1524 1516 1506 1540 1474 c 0
 1564 1442 1576 1406 1576 1366 c 0x27e0
2036 892 m 1x37d0
 1748 892 l 1
 1748 2 l 1
 1576 2 l 1
 1576 892 l 1
 1248 892 l 1
 1248 2 l 1
 1082 2 l 1x77d0
 1082 638 l 2
 1082 722 1046 790 976 842 c 0
 912 890 836 914 748 914 c 0
 632 914 540 872 466 786 c 0
 392 700 356 598 356 482 c 0
 356 390 382 310 434 244 c 1
 424 280 420 304 420 314 c 0
 420 390 444 452 490 500 c 0
 536 548 596 574 670 574 c 0
 754 574 820 544 872 486 c 0
 924 428 948 356 948 272 c 0
 948 184 920 112 864 56 c 0
 808 0 736 -26 648 -26 c 0
 508 -26 396 28 312 136 c 0
 236 236 200 360 200 504 c 0
 200 668 246 802 340 910 c 1
 438 1024 568 1080 730 1080 c 0xafd0
 900 1080 1016 1020 1082 898 c 1
 1082 1052 l 1
 2036 1052 l 1
 2036 892 l 1x37d0
784 280 m 256
 784 318 774 352 750 380 c 0
 726 408 696 422 660 422 c 0
 622 422 592 410 568 382 c 0
 544 354 532 320 532 280 c 0
 532 242 544 208 568 180 c 0
 592 152 622 136 660 136 c 0xa7c0
 696 136 726 152 750 180 c 0
 774 208 784 242 784 280 c 256
EndSplineSet
Ligature2: "'half' form Substitution lookup 5-1" ta_lla ta_virama
Ligature2: "'haln' Halant Forms in Tamil lookup 4-1" ta_lla ta_virama
EndChar

StartChar: ta_zh
Encoding: 132 -1 89
Width: 1684
Flags: HW
HStem: -692 160<428 770> -310 182<1112 1414> -268 166<382 688> 0 172<402 824 1012 1432> 912 170<1046 1300> 1208 316<1030 1222>
VStem: 200 172<-474 -278> 228 172<172 1052> 824 184<-106 0 172 868> 992 268<1256 1492> 1488 194<228 666>
LayerCount: 2
Fore
SplineSet
1260 1366 m 0x9c60
 1260 1324 1248 1288 1224 1256 c 0
 1200 1224 1166 1208 1126 1208 c 256
 1086 1208 1054 1224 1030 1256 c 0
 1006 1288 992 1324 992 1366 c 0
 992 1406 1006 1442 1030 1474 c 0
 1054 1506 1086 1524 1126 1524 c 256
 1166 1524 1200 1506 1224 1474 c 0
 1248 1442 1260 1406 1260 1366 c 0x9c60
1684 434 m 0
 1684 302 1646 198 1572 118 c 0
 1498 38 1398 0 1268 0 c 2
 1012 0 l 1
 1012 -26 l 2
 1012 -94 1062 -128 1164 -128 c 2
 1414 -128 l 1
 1414 -310 l 1
 1232 -310 l 2xdda0
 1180 -310 1126 -342 1066 -408 c 0
 974 -512 918 -572 894 -592 c 0
 810 -658 710 -692 594 -692 c 0
 496 -692 408 -664 332 -612 c 0
 244 -552 200 -476 200 -384 c 0
 200 -300 226 -234 280 -182 c 0
 334 -130 402 -104 486 -104 c 2
 688 -104 l 1
 688 -268 l 1
 478 -268 l 2
 408 -268 372 -302 372 -368 c 0xbea0
 372 -420 398 -462 450 -492 c 0
 494 -518 542 -530 598 -530 c 0
 666 -530 722 -514 768 -478 c 0
 794 -458 832 -418 880 -358 c 0
 924 -302 966 -262 1004 -236 c 1
 886 -224 826 -144 826 0 c 1
 228 0 l 1
 228 1052 l 1
 402 1052 l 1
 402 172 l 1
 824 172 l 1
 824 760 l 2xbda0
 824 848 856 924 916 988 c 0
 976 1052 1050 1082 1140 1082 c 0
 1296 1082 1428 1012 1534 872 c 1
 1634 742 1684 596 1684 434 c 0
1488 420 m 0
 1488 528 1460 634 1402 734 c 0
 1334 852 1250 912 1150 912 c 0
 1110 912 1078 898 1050 870 c 0
 1022 842 1008 808 1008 768 c 2
 1008 172 l 1
 1304 172 l 2
 1428 172 1488 256 1488 420 c 0
EndSplineSet
Ligature2: "'half' form Substitution lookup 5-1" ta_zha ta_virama
Ligature2: "'haln' Halant Forms in Tamil lookup 4-1" ta_zha ta_virama
EndChar

StartChar: ta_v
Encoding: 133 -1 90
Width: 1896
Flags: HW
HStem: -26 164<604 798> -2 164<1328 1772> 422 152<606 798> 916 160<622 1048> 1208 316<1298 1490>
VStem: 240 164<278 700> 464 112<258 390> 828 164<172 390> 1260 268<1256 1492> 1268 168<256 694> 1772 166<160 1052>
LayerCount: 2
Fore
SplineSet
1488 1366 m 4x3fa0
 1488 1324 1476 1288 1452 1256 c 4
 1428 1224 1394 1208 1354 1208 c 260
 1314 1208 1282 1224 1258 1256 c 4
 1234 1288 1220 1324 1220 1366 c 4
 1220 1406 1234 1442 1258 1474 c 4
 1282 1506 1314 1524 1354 1524 c 260
 1394 1524 1428 1506 1452 1474 c 4
 1476 1442 1488 1406 1488 1366 c 4x3fa0
1896 -2 m 5x7f60
 1072 -2 l 5x7f60
 1062 110 l 5
 1172 206 1228 326 1228 472 c 4
 1228 600 1186 706 1104 790 c 4
 1022 874 916 916 790 916 c 4
 670 916 568 876 486 794 c 4
 404 712 364 610 364 490 c 4
 364 408 384 330 428 256 c 5
 424 276 424 294 424 314 c 4
 424 390 446 452 492 500 c 4
 538 548 598 574 672 574 c 4
 756 574 822 544 874 486 c 4
 926 428 952 356 952 272 c 4
 952 184 924 112 868 56 c 4
 812 0 740 -26 652 -26 c 4
 516 -26 404 28 320 136 c 4xbf60
 240 236 200 356 200 496 c 4
 200 668 254 808 366 916 c 4
 478 1024 620 1078 792 1078 c 260
 964 1078 1110 1024 1224 914 c 4
 1338 804 1396 662 1396 490 c 4
 1396 374 1360 264 1288 160 c 5
 1732 160 l 5
 1732 1052 l 5
 1896 1052 l 5
 1896 -2 l 5x7f60
788 280 m 4
 788 320 776 354 754 382 c 4
 732 410 702 422 664 422 c 260
 626 422 594 410 570 382 c 4
 546 354 536 320 536 280 c 260
 536 240 548 208 570 182 c 5
 594 152 626 136 664 136 c 260xbf20
 702 136 732 152 754 180 c 4
 776 208 788 242 788 280 c 4
EndSplineSet
Ligature2: "'half' form Substitution lookup 5-1" ta_va ta_virama
Ligature2: "'haln' Halant Forms in Tamil lookup 4-1" ta_va ta_virama
EndChar

StartChar: ta_sh
Encoding: 134 -1 91
Width: 2482
Flags: HW
HStem: -26 164<564 760> -2 168<1264 1928 2100 2310> 312 166<1726 1928 2100 2226> 422 152<566 758> 914 164<588 1018 1652 1890> 1208 316<1306 1498>
VStem: 200 164<278 696> 424 112<258 390> 788 164<162 390> 1204 166<256 724> 1268 268<1256 1492> 1432 168<590 862> 1928 172<-532 -2 166 312 488 872> 2310 172<166 410> 2346 136<586 718>
LayerCount: 2
Fore
SplineSet
1536 1366 m 0x0fa8
 1536 1324 1524 1288 1500 1256 c 0
 1476 1224 1442 1208 1402 1208 c 256
 1362 1208 1330 1224 1306 1256 c 0
 1282 1288 1268 1324 1268 1366 c 0
 1268 1406 1282 1442 1306 1474 c 0
 1330 1506 1362 1524 1402 1524 c 256
 1442 1524 1476 1506 1500 1474 c 0
 1524 1442 1536 1406 1536 1366 c 0x0fa8
2482 -2 m 1x6fda
 2100 -2 l 1
 2100 -532 l 1
 1928 -532 l 1
 1928 -2 l 1
 1928 -2 1928 -2 1048 -2 c 1x6fda
 1036 116 l 1
 1148 210 1204 332 1204 484 c 0
 1204 614 1170 718 1102 794 c 0
 1030 874 930 914 802 914 c 0
 680 914 578 874 492 794 c 0
 406 714 364 612 364 490 c 0
 364 408 384 330 428 256 c 1
 424 276 424 294 424 314 c 0
 424 390 446 452 492 500 c 0
 538 548 598 574 672 574 c 0
 756 574 826 544 876 486 c 0
 926 428 952 356 952 272 c 0
 952 184 924 112 868 56 c 0
 812 0 740 -26 652 -26 c 0
 516 -26 404 28 320 136 c 0x9fda
 240 236 200 356 200 496 c 0
 200 666 258 806 374 914 c 0
 490 1022 632 1078 804 1078 c 0
 970 1078 1108 1022 1212 914 c 0
 1316 806 1368 668 1368 502 c 0
 1368 378 1334 266 1264 166 c 1
 1928 166 l 1
 1928 312 l 1
 1794 312 1678 348 1584 424 c 0
 1482 504 1432 610 1432 742 c 0
 1432 844 1466 926 1534 986 c 0
 1602 1046 1690 1078 1796 1078 c 0
 1884 1078 1956 1052 2014 1000 c 0
 2072 948 2100 878 2100 790 c 2
 2100 488 l 1
 2166 500 2222 524 2266 560 c 0
 2318 604 2346 658 2346 718 c 1
 2482 718 l 1
 2482 -2 l 1x6fda
2310 166 m 1x4f8c
 2310 410 l 1
 2248 354 2176 322 2100 316 c 1
 2100 166 l 1
 2310 166 l 1x4f8c
1928 778 m 2
 1928 818 1912 850 1884 874 c 0
 1856 898 1822 910 1782 910 c 0
 1730 910 1684 894 1650 862 c 0
 1616 830 1600 788 1600 736 c 0
 1600 656 1634 592 1704 542 c 0
 1768 498 1844 478 1928 478 c 1x2f98
 1928 778 l 2
788 280 m 256
 788 320 776 354 754 382 c 0
 732 410 702 422 664 422 c 0
 624 422 592 410 570 382 c 0
 548 354 536 320 536 280 c 256
 536 240 548 208 570 182 c 1
 592 152 624 136 664 136 c 0x9f88
 702 136 732 152 754 182 c 1
 776 208 788 240 788 280 c 256
EndSplineSet
Ligature2: "'half' form Substitution lookup 5-1" ta_sha ta_virama
Ligature2: "'haln' Halant Forms in Tamil lookup 4-1" ta_sha ta_virama
EndChar

StartChar: ta_s
Encoding: 135 -1 92
Width: 2284
Flags: W
HStem: -26 162<570.116 754.657 1740.36 2011.17> 0 21G<1080 1244> 422 152<569.982 752.685> 920 160<594.499 979.842 1275.39 1490.4> 1208 316<1081.51 1227.38>
VStem: 200 164<294.95 687.023> 422 114<256.767 387.138> 786 166<176.196 386.388> 1000 268<1257.5 1472.5> 1080 164<0 824.395> 1526 168<181.985 884.221> 2116 168<272.228 778.66>
LayerCount: 2
Fore
SplineSet
1268 1366 m 0x3fb0
 1268 1324 1256 1288 1232 1256 c 0
 1208 1224 1174 1208 1134 1208 c 256
 1094 1208 1062 1224 1038 1256 c 0
 1014 1288 1000 1324 1000 1366 c 0
 1000 1406 1014 1442 1038 1474 c 0
 1062 1506 1094 1524 1134 1524 c 256
 1174 1524 1208 1506 1232 1474 c 0
 1256 1442 1268 1406 1268 1366 c 0x3fb0
2284 552 m 0
 2284 390 2256 260 2200 160 c 0
 2130 36 2020 -26 1872 -26 c 0xbf70
 1772 -26 1686 10 1622 80 c 0
 1558 150 1526 236 1526 336 c 2
 1526 794 l 2
 1526 828 1512 858 1484 882 c 0
 1456 906 1428 920 1392 920 c 0
 1294 920 1244 870 1244 770 c 2
 1244 0 l 1
 1080 0 l 1x7f70
 1080 676 l 2
 1080 838 980 920 784 920 c 0
 668 920 568 878 486 794 c 0
 404 710 364 608 364 490 c 0
 364 408 384 330 428 256 c 1
 424 276 422 294 422 314 c 0
 422 390 446 452 492 500 c 0
 538 548 598 574 674 574 c 0
 758 574 824 544 876 486 c 0
 928 428 952 356 952 272 c 0
 952 184 924 112 868 56 c 0
 812 0 740 -26 650 -26 c 0
 516 -26 404 28 318 136 c 0xbf70
 240 236 200 356 200 496 c 0
 200 656 256 794 366 908 c 0
 476 1022 610 1080 770 1080 c 0
 960 1080 1080 1028 1130 926 c 1
 1142 974 1174 1014 1230 1042 c 0
 1278 1068 1330 1080 1386 1080 c 0
 1464 1080 1532 1060 1592 1016 c 0
 1660 968 1694 906 1694 830 c 2
 1694 336 l 2
 1694 276 1706 228 1732 190 c 0
 1762 146 1806 122 1864 122 c 0
 1956 122 2024 170 2068 264 c 0
 2100 334 2116 422 2116 526 c 0
 2116 746 2040 902 1892 994 c 1
 2008 1114 l 1
 2192 992 2284 804 2284 552 c 0
786 280 m 256
 786 320 774 354 752 382 c 0
 730 410 700 422 662 422 c 256
 624 422 592 410 570 382 c 0
 548 354 536 320 536 280 c 256
 536 240 548 208 568 182 c 0
 592 152 624 136 662 136 c 256
 700 136 732 152 756 182 c 0
 776 208 786 240 786 280 c 256
EndSplineSet
Ligature2: "'half' form Substitution lookup 5-1" ta_sa ta_virama
Ligature2: "'haln' Halant Forms in Tamil lookup 4-1" ta_sa ta_virama
EndChar

StartChar: ta_h
Encoding: 136 -1 93
Width: 2814
Flags: HW
HStem: -264 156<398 2438> -26 164<588 784> -2 168<1288 1604> 422 152<590 782> 912 170<606 1048 1816 2014 2272 2522> 1208 316<2026 2218>
VStem: 200 168<-476 -284> 224 164<278 696> 448 112<258 390> 812 164<162 390> 1228 166<262 724> 1604 180<166 880> 1988 268<1256 1492> 2050 180<-2 864> 2648 166<156 750>
LayerCount: 2
Fore
SplineSet
2256 1366 m 0x9cfa
 2256 1324 2244 1288 2220 1256 c 0
 2196 1224 2162 1208 2122 1208 c 256
 2082 1208 2050 1224 2026 1256 c 0
 2002 1288 1988 1324 1988 1366 c 0
 1988 1406 2002 1442 2026 1474 c 0
 2050 1506 2082 1524 2122 1524 c 256
 2162 1524 2196 1506 2220 1474 c 0
 2244 1442 2256 1406 2256 1366 c 0x9cfa
2814 442 m 0
 2814 250 2770 90 2680 -40 c 0
 2576 -188 2432 -264 2250 -264 c 2
 472 -264 l 2
 444 -264 418 -272 398 -292 c 0
 378 -312 368 -336 368 -364 c 0
 368 -406 388 -434 426 -446 c 1
 312 -556 l 1
 236 -510 200 -442 200 -350 c 0
 200 -282 226 -226 276 -178 c 0
 326 -130 384 -108 452 -108 c 2
 2254 -108 l 2
 2386 -108 2488 -44 2560 82 c 0
 2620 188 2648 312 2648 454 c 0
 2648 570 2632 666 2598 746 c 0
 2552 856 2480 912 2382 912 c 0
 2340 912 2304 898 2274 868 c 0
 2244 838 2230 802 2230 760 c 2
 2230 -2 l 1
 2050 -2 l 1
 2050 760 l 2
 2050 800 2038 836 2012 866 c 0
 1986 896 1954 912 1914 912 c 0
 1878 912 1846 898 1822 866 c 0
 1798 834 1784 798 1784 760 c 2
 1784 -2 l 1
 1072 -2 l 1xbef6
 1060 116 l 1
 1172 210 1228 332 1228 484 c 0
 1228 614 1194 718 1126 794 c 0
 1054 874 954 914 826 914 c 0
 704 914 602 874 516 794 c 0
 430 714 388 612 388 490 c 0
 388 408 408 330 452 256 c 1
 448 276 448 294 448 314 c 0
 448 390 470 452 516 500 c 0
 562 548 622 574 696 574 c 0
 780 574 850 544 900 486 c 0
 950 428 976 356 976 272 c 0
 976 184 948 112 892 56 c 0
 836 0 764 -26 676 -26 c 0
 540 -26 428 28 344 136 c 0xddf6
 264 236 224 356 224 496 c 0
 224 666 282 806 398 914 c 0
 514 1022 656 1078 828 1078 c 0
 994 1078 1132 1022 1236 914 c 0
 1340 806 1392 668 1392 502 c 0
 1392 384 1358 272 1288 166 c 1
 1384 168 1488 168 1604 166 c 1xbdf6
 1604 772 l 2
 1604 856 1636 932 1698 992 c 0
 1760 1052 1834 1082 1918 1082 c 0
 2008 1082 2082 1048 2142 980 c 1
 2200 1048 2280 1082 2384 1082 c 0
 2538 1082 2650 1010 2724 864 c 0
 2784 750 2814 610 2814 442 c 0
812 280 m 256
 812 320 800 354 778 382 c 0
 756 410 726 422 688 422 c 0
 648 422 616 410 594 382 c 0
 572 354 560 320 560 280 c 256
 560 240 572 208 594 182 c 1
 616 152 648 136 688 136 c 0xdcf2
 726 136 756 152 778 182 c 1
 800 208 812 240 812 280 c 256
EndSplineSet
Ligature2: "'half' form Substitution lookup 5-1" ta_ha ta_virama
Ligature2: "'haln' Halant Forms in Tamil lookup 4-1" ta_ha ta_virama
EndChar

StartChar: ta_ksh
Encoding: 137 -1 94
Width: 3146
Flags: HW
HStem: -28 156<474 814 1334 1494> -2 168<1928 2592 2764 2974> 312 166<2390 2592 2764 2890> 446 170<376 468 634 868 1032 1144> 634 166<1420 1734> 886 166<634 868 1032 1340> 910 168<2314 2558> 1208 316<1934 2126>
VStem: 200 166<224 428> 468 166<616 886> 868 164<182 446 616 886> 1132 160<162 436> 1508 154<126 374> 1832 164<212 538> 1896 268<1256 1492> 2096 168<592 862> 2592 172<-532 -2 166 312 484 872> 2974 172<166 410> 3010 136<586 718>
LayerCount: 2
Fore
SplineSet
2164 1366 m 0x09fa80
 2164 1324 2152 1288 2128 1256 c 0
 2104 1224 2070 1208 2030 1208 c 256
 1990 1208 1958 1224 1934 1256 c 0
 1910 1288 1896 1324 1896 1366 c 0
 1896 1406 1910 1442 1934 1474 c 0
 1958 1506 1990 1524 2030 1524 c 256
 2070 1524 2104 1506 2128 1474 c 0
 2152 1442 2164 1406 2164 1366 c 0x09fa80
3146 -2 m 1x6bfda0
 2764 -2 l 1
 2764 -532 l 1
 2592 -532 l 1
 2592 -2 l 1
 2592 -2 2592 -2 1700 -2 c 1x6bfda0
 1690 116 l 1
 1784 196 1832 282 1832 376 c 0
 1832 448 1806 510 1758 560 c 0
 1710 610 1648 634 1574 634 c 0
 1496 634 1444 614 1416 578 c 1
 1482 570 1540 532 1588 462 c 0
 1636 392 1660 322 1660 254 c 0
 1660 182 1642 118 1606 64 c 0
 1562 4 1506 -26 1436 -26 c 0
 1348 -26 1274 10 1216 82 c 0
 1162 150 1134 228 1132 320 c 1
 1132 360 l 2
 1132 390 1136 418 1144 446 c 1
 1032 446 l 1
 1032 320 l 2
 1032 206 998 120 928 60 c 0
 858 0 764 -28 648 -28 c 0
 540 -28 440 6 348 74 c 0
 248 150 200 240 200 348 c 0
 200 528 288 618 468 616 c 1
 468 1052 l 1
 1340 1052 l 1
 1340 886 l 1
 1032 886 l 1
 1032 616 l 1
 1214 616 l 1x9dfda0
 1290 738 1410 800 1574 800 c 0
 1690 800 1788 758 1870 676 c 0
 1952 594 1994 498 1994 382 c 0
 1994 304 1972 232 1928 166 c 1
 1928 166 1928 166 2592 166 c 1
 2592 312 l 1
 2460 312 2344 348 2248 424 c 0
 2146 504 2096 610 2096 742 c 0
 2096 844 2132 926 2204 988 c 0
 2272 1048 2356 1078 2460 1078 c 0
 2548 1078 2620 1052 2678 1000 c 0
 2736 948 2764 878 2764 790 c 2
 2764 484 l 1
 2830 496 2886 524 2930 560 c 0
 2982 604 3010 658 3010 718 c 1
 3146 718 l 1
 3146 -2 l 1x6bfda0
2974 166 m 1x49f8c0
 2974 410 l 1
 2910 354 2840 322 2764 316 c 1
 2764 166 l 1
 2974 166 l 1x49f8c0
2592 778 m 2
 2592 818 2578 850 2550 874 c 0
 2522 898 2488 910 2446 910 c 0
 2394 910 2348 894 2314 862 c 0
 2280 830 2264 788 2264 736 c 0
 2264 656 2300 592 2372 542 c 0
 2434 498 2508 478 2592 478 c 1x2bf980
 2592 778 l 2
1508 250 m 0
 1508 264 1506 278 1502 292 c 0
 1496 324 1474 358 1436 390 c 0
 1398 422 1364 440 1330 440 c 0
 1324 440 1316 438 1312 436 c 1
 1300 408 1294 374 1294 336 c 0
 1294 310 1296 286 1300 260 c 0
 1304 230 1320 198 1344 166 c 0x49f880
 1368 134 1392 118 1420 118 c 0
 1448 118 1472 134 1488 164 c 0
 1500 190 1508 218 1508 250 c 0
868 616 m 1x1df880
 868 886 l 1
 634 886 l 1
 634 616 l 1
 868 616 l 1x1df880
868 312 m 1xa9f880
 868 314 l 1
 868 446 l 1
 512 446 l 2x19f880
 414 446 364 414 364 346 c 0
 364 284 398 232 464 188 c 0
 524 148 584 128 648 128 c 0
 788 128 860 188 868 312 c 1xa9f880
EndSplineSet
Ligature2: "'half' form Substitution lookup 5-1" ksha ta_virama
Ligature2: "'haln' Halant Forms in Tamil lookup 4-1" ksha ta_virama
EndChar

StartChar: ta_ksha
Encoding: 138 -1 95
Width: 3220
VWidth: 2096
Flags: HW
HStem: -28 158<486 830 1366 1526> -2 172<1972 2650 2828 3042> 320 170<2444 2650 2828 2954> 456 176<382 476 646 886 1054 1170> 648 170<1450 1774> 908 170<646 886 1054 1368> 932 172<2366 2614>
VStem: 200 170<230 438> 476 170<632 908> 886 168<186 456 632 908> 1158 164<170 446> 1542 156<130 378> 1872 166<220 550> 2142 172<608 882> 2650 178<-544 -2 170 320 496 894> 3042 178<170 420> 3080 140<598 734>
LayerCount: 2
Fore
SplineSet
3220 -2 m 1x6bfe80
 2828 -2 l 1
 2828 -544 l 1
 2650 -544 l 1
 2650 -2 l 1
 2650 -2 2650 -2 1736 -2 c 1x6bfe80
 1726 118 l 1
 1822 200 1872 290 1872 386 c 0
 1872 460 1848 524 1798 574 c 0
 1748 624 1682 648 1608 648 c 0
 1526 648 1474 630 1448 592 c 1
 1516 584 1574 544 1624 472 c 0
 1674 400 1698 332 1698 262 c 0
 1698 188 1680 124 1642 68 c 0
 1598 6 1540 -26 1468 -26 c 0
 1380 -26 1304 10 1246 82 c 0
 1188 154 1160 234 1158 326 c 1
 1158 370 l 2
 1158 402 1162 428 1170 456 c 1
 1054 456 l 1
 1054 326 l 2
 1054 210 1018 122 946 62 c 0
 874 2 780 -28 660 -28 c 0
 550 -28 448 6 354 76 c 0
 254 152 200 246 200 356 c 0
 200 540 294 634 476 632 c 1
 476 1078 l 1
 1368 1078 l 1
 1368 908 l 1
 1054 908 l 1
 1054 632 l 1
 1242 632 l 1x9dfe80
 1322 756 1440 818 1608 818 c 0
 1726 818 1830 778 1914 694 c 0
 1998 610 2038 510 2038 392 c 0
 2038 312 2018 240 1972 170 c 1
 1972 170 1968 170 2650 170 c 1
 2650 320 l 1
 2514 320 2398 358 2300 434 c 0
 2194 516 2142 624 2142 758 c 0
 2142 864 2178 948 2250 1010 c 0
 2322 1072 2410 1104 2516 1104 c 0
 2608 1104 2680 1074 2740 1022 c 0
 2800 970 2828 900 2828 808 c 2
 2828 496 l 1
 2896 508 2952 536 2998 574 c 0
 3054 618 3080 670 3080 734 c 1
 3220 734 l 1
 3220 -2 l 1x6bfe80
3042 170 m 1x49ff
 3042 420 l 1
 2978 362 2904 332 2828 324 c 1
 2828 170 l 1
 3042 170 l 1x49ff
2650 796 m 2
 2650 836 2636 872 2608 896 c 0
 2580 920 2546 932 2502 932 c 0
 2446 932 2404 916 2368 884 c 0
 2332 852 2314 810 2314 754 c 0
 2314 672 2350 604 2424 554 c 0
 2488 510 2564 490 2650 490 c 1x2bfe
 2650 796 l 2
1542 254 m 0
 1542 268 1538 286 1536 300 c 0
 1528 334 1506 364 1468 398 c 0
 1430 432 1394 448 1360 448 c 0
 1352 448 1346 448 1342 446 c 1
 1330 418 1320 382 1320 344 c 0
 1320 320 1324 292 1328 264 c 0
 1332 236 1350 204 1374 170 c 0x49fe
 1398 136 1424 120 1452 120 c 0
 1480 120 1504 136 1520 168 c 0
 1532 194 1542 220 1542 254 c 0
886 632 m 1x1dfe
 886 908 l 1
 646 908 l 1
 646 632 l 1
 886 632 l 1x1dfe
886 320 m 1xa9fe
 886 322 l 1
 886 456 l 1
 522 456 l 2x19fe
 422 456 370 422 370 352 c 0
 370 288 404 236 472 192 c 0
 532 152 596 130 660 130 c 0
 802 130 878 192 886 320 c 1xa9fe
EndSplineSet
Ligature2: "'akhn' Akhand in Tamil lookup 1-1" ta_ka ta_virama ta_sha
EndChar

StartChar: ta_ku
Encoding: 142 -1 96
Width: 1802
Flags: HW
HStem: -504 164<766 1318> -28 156<818 1162> 446 170<760 812 978 1214 1376 1598> 886 166<978 1214 1376 1682>
VStem: 200 156<102 708> 546 166<224 426> 812 166<616 886> 1214 160<182 446 616 886> 1650 154<-26 382>
LayerCount: 2
Fore
SplineSet
1802 226 m 0
 1802 10 1732 -166 1592 -302 c 0
 1452 -438 1272 -504 1056 -504 c 0
 920 -504 792 -476 674 -416 c 1
 516 -340 396 -224 312 -70 c 1
 236 72 200 236 200 422 c 0
 200 662 280 874 438 1054 c 1
 552 944 l 1
 420 792 356 616 356 418 c 0
 356 202 416 22 538 -118 c 0
 664 -266 832 -340 1044 -340 c 0
 1214 -340 1356 -290 1470 -190 c 0
 1590 -84 1650 52 1650 218 c 0
 1650 278 1638 328 1614 372 c 0
 1586 422 1542 446 1484 446 c 2
 1376 446 l 1
 1376 320 l 2
 1376 206 1342 120 1272 60 c 0
 1202 0 1110 -28 994 -28 c 0
 884 -28 784 6 692 74 c 0
 594 150 546 240 546 348 c 0
 546 530 634 620 812 616 c 1
 812 1052 l 1
 1682 1052 l 1
 1682 886 l 1
 1376 886 l 1
 1376 616 l 1
 1514 616 l 2
 1610 616 1686 574 1738 488 c 0
 1782 416 1802 328 1802 226 c 0
1214 616 m 1
 1214 886 l 1
 978 886 l 1
 978 616 l 1
 1214 616 l 1
1214 312 m 1
 1214 314 l 1
 1214 446 l 1
 858 446 l 2
 822 446 786 438 758 424 c 1
 726 404 710 380 710 346 c 0
 710 284 742 232 806 188 c 0
 866 148 928 128 994 128 c 0
 1134 128 1208 188 1214 312 c 1
EndSplineSet
Ligature2: "'psts' Post Base Substitutions lookup 6-1" ta_ka ta_u_sign
EndChar

StartChar: ta_ngu
Encoding: 143 -1 97
Width: 1630
Flags: HW
HStem: 0 154<626 1036 1184 1456> 494 166<822 1050> 878 172<368 626 790 1170>
VStem: 200 168<0 878> 626 166<250 460 580 878> 1090 180<210 452> 1460 170<-514 0 154 1048>
LayerCount: 2
Fore
SplineSet
1630 -514 m 1
 1456 -514 l 1
 1456 0 l 1
 626 0 l 1
 626 154 l 1
 910 154 l 2
 958 154 1000 172 1036 208 c 0
 1072 244 1090 288 1090 336 c 0
 1090 380 1076 418 1048 448 c 0
 1020 478 982 494 938 494 c 0
 902 494 870 482 838 456 c 0
 806 430 790 402 790 368 c 2
 790 250 l 1
 626 250 l 1
 626 878 l 1
 368 878 l 1
 368 0 l 1
 200 0 l 1
 200 1052 l 1
 1170 1052 l 1
 1170 878 l 1
 790 878 l 1
 790 580 l 1
 834 632 894 660 968 660 c 0
 1060 660 1136 632 1190 574 c 0
 1244 516 1270 444 1270 356 c 0
 1270 280 1242 212 1184 154 c 1
 1460 154 l 1
 1460 1048 l 1
 1630 1048 l 1
 1630 -514 l 1
EndSplineSet
Ligature2: "'psts' Post Base Substitutions lookup 6-1" ta_nga ta_u_sign
EndChar

StartChar: ta_chu
Encoding: 144 -1 98
Width: 1478
Flags: HW
HStem: -28 156<466 802> 2 50G<1162 1336> 446 170<380 454 620 856 1018 1162 1336 1478> 886 166<620 856 1018 1312>
VStem: 200 166<220 430> 454 166<616 886> 856 160<182 446 616 886> 1162 176<2 446>
LayerCount: 2
Fore
SplineSet
1478 446 m 1xbf
 1336 446 l 1
 1336 2 l 1
 1162 2 l 1x7f
 1162 446 l 1
 1018 446 l 1
 1018 320 l 2
 1018 206 982 118 910 56 c 1
 842 0 752 -28 636 -28 c 0
 526 -28 426 6 338 76 c 0
 246 150 200 240 200 348 c 0
 200 528 284 618 454 616 c 1
 454 1052 l 1
 1312 1052 l 1
 1312 886 l 1
 1018 886 l 1
 1018 616 l 1
 1478 616 l 1
 1478 446 l 1xbf
856 616 m 1
 856 886 l 1
 620 886 l 1
 620 616 l 1
 856 616 l 1
856 312 m 1
 856 314 l 1
 856 446 l 1
 500 446 l 2
 410 446 364 414 364 346 c 0
 364 284 396 232 456 188 c 0
 510 148 570 128 636 128 c 0xbf
 776 128 848 188 856 312 c 1
EndSplineSet
Ligature2: "'psts' Post Base Substitutions lookup 6-1" ta_cha ta_u_sign
EndChar

StartChar: ta_nju
Encoding: 145 -1 99
Width: 2258
Flags: HW
HStem: -602 156<522 1330> -230 154<366 1588 1884 2096> -26 164<602 790> 422 152<600 788> 488 168<1408 1668> 888 166<586 1220 1382 1816>
VStem: 200 166<-346 -232> 236 164<276 698> 456 112<258 388> 820 164<172 388> 1220 164<14 462 566 888> 1762 170<-52 388> 2096 164<-76 1054>
LayerCount: 2
Fore
SplineSet
2258 -230 m 1xedf8
 1804 -230 l 1
 1632 -478 1332 -602 898 -602 c 0
 712 -602 556 -578 430 -528 c 0
 276 -468 200 -380 200 -264 c 0xeef8
 200 -214 216 -172 250 -134 c 0
 284 -96 324 -76 374 -76 c 2
 1696 -76 l 1
 1740 8 1762 94 1762 184 c 0
 1762 266 1742 336 1706 392 c 0
 1662 456 1602 488 1524 488 c 0
 1490 488 1458 478 1428 458 c 0
 1398 438 1382 414 1382 380 c 2
 1382 14 l 1
 1220 14 l 1
 1220 888 l 1
 790 888 l 2
 676 888 582 850 508 774 c 0
 434 698 398 604 398 488 c 0xedf8
 398 406 418 328 460 256 c 1
 456 276 456 294 456 314 c 0
 456 390 480 452 526 500 c 0
 572 548 632 574 706 574 c 0xf5f8
 790 574 856 544 908 486 c 0
 960 428 984 356 984 272 c 0
 984 184 956 112 900 56 c 0
 844 0 772 -26 684 -26 c 0
 546 -26 434 26 350 134 c 0
 274 234 236 354 236 494 c 0
 236 658 286 794 390 898 c 0
 494 1002 628 1054 792 1054 c 2
 1816 1054 l 1
 1816 888 l 1
 1382 888 l 1
 1382 566 l 1
 1416 626 1470 656 1546 656 c 0
 1668 656 1764 606 1836 506 c 0
 1900 416 1932 308 1932 182 c 0
 1932 94 1916 8 1884 -76 c 1
 2096 -76 l 1
 2096 1054 l 1
 2258 1054 l 1
 2258 -230 l 1xedf8
820 280 m 256
 820 318 810 352 786 380 c 0
 762 408 732 422 696 422 c 0xf4f8
 658 422 628 408 604 380 c 0
 580 352 568 318 568 280 c 256
 568 242 580 208 604 180 c 0
 628 152 658 136 696 136 c 0
 732 136 762 152 786 180 c 0
 810 208 820 242 820 280 c 256
1588 -230 m 1
 396 -230 l 2
 376 -230 364 -242 364 -268 c 0xe6f8
 364 -320 426 -364 550 -400 c 0
 660 -430 784 -446 924 -446 c 0
 1076 -446 1196 -434 1288 -406 c 0
 1402 -374 1502 -314 1588 -230 c 1
EndSplineSet
Ligature2: "'psts' Post Base Substitutions lookup 6-1" ta_nja ta_u_sign
EndChar

StartChar: ta_tu
Encoding: 146 -1 100
Width: 1834
Flags: HW
HStem: -512 160<770 1184> -26 50G<1666 1834> 2 50G<802 972> 488 168<1002 1276> 1520 172<786 1286>
VStem: 200 176<202 992> 802 170<2 464 566 1054> 1398 166<-112 352> 1666 168<-26 1032>
LayerCount: 2
Fore
SplineSet
1834 -26 m 1xdf80
 1666 -26 l 1xdf80
 1666 592 l 2
 1666 850 1626 1058 1544 1214 c 0
 1436 1418 1266 1520 1030 1520 c 0
 810 1520 640 1416 522 1212 c 0
 424 1042 374 838 374 602 c 0
 374 374 420 168 510 -12 c 0
 624 -238 784 -350 990 -350 c 0
 1114 -350 1216 -300 1292 -200 c 0
 1362 -108 1398 2 1398 130 c 0
 1398 226 1374 306 1330 374 c 0
 1278 450 1206 488 1114 488 c 0
 1078 488 1048 478 1020 460 c 0
 988 440 972 414 972 380 c 2
 972 2 l 1
 802 2 l 1xbf80
 802 1054 l 1
 974 1054 l 1
 972 566 l 1
 1012 626 1068 656 1136 656 c 0
 1272 656 1380 600 1458 492 c 0
 1528 396 1562 276 1562 134 c 0
 1562 -44 1512 -192 1410 -314 c 1
 1302 -446 1160 -512 986 -512 c 0
 728 -512 528 -386 382 -136 c 0
 260 72 200 314 200 592 c 0
 200 882 264 1130 394 1334 c 1
 548 1572 760 1692 1034 1692 c 0
 1328 1692 1544 1572 1678 1336 c 0
 1782 1150 1834 898 1834 580 c 2
 1834 -26 l 1xdf80
EndSplineSet
Ligature2: "'psts' Post Base Substitutions lookup 6-1" ta_ta ta_u_sign
EndChar

StartChar: ta_nnu
Encoding: 147 -1 101
Width: 3182
Flags: W
HStem: -680 168<803.836 1809.29> -230 154<365.37 2356 2702 3008> -26 174<566.081 754.187 1249.31 1415.54 2023.33 2187.28> 422 152<568.27 749.639> 910 168<665.412 1151.83 1507.21 1931.95 2214.36 2488.74>
VStem: 200 164<-350.208 -230.055> 226 166<270.608 659.693> 424 108<264.668 382.717> 784 164<176.049 384.478> 1034 168<196.05 623.51> 1460 176<191.509 633.102> 1800 168<211.242 647.563> 2230 166<191.14 623.572> 2674 170<180.507 687.682> 3008 174<-76 1054>
LayerCount: 2
Fore
SplineSet
3182 -230 m 1xfbfe
 2604 -230 l 1
 2452 -402 2264 -526 2036 -596 c 0
 1852 -652 1622 -680 1346 -680 c 0
 582 -680 200 -540 200 -264 c 0xfdfe
 200 -214 218 -172 256 -134 c 0
 294 -96 336 -76 386 -76 c 2
 2492 -76 l 1
 2614 82 2674 258 2674 454 c 0
 2674 574 2646 676 2592 760 c 0
 2528 860 2440 910 2324 910 c 0
 2290 910 2252 898 2212 878 c 1
 2334 742 2396 582 2396 396 c 0
 2396 114 2298 -26 2104 -26 c 0
 1996 -26 1914 24 1862 124 c 0
 1820 202 1800 302 1800 420 c 0
 1800 586 1848 734 1946 860 c 1
 1878 894 1804 910 1720 910 c 256
 1636 910 1552 890 1466 848 c 1
 1580 728 1636 576 1636 396 c 0
 1636 114 1540 -26 1348 -26 c 0
 1240 -26 1158 24 1102 124 c 0
 1058 206 1034 306 1034 422 c 0
 1034 578 1090 718 1200 842 c 1
 1108 892 1012 916 912 916 c 0
 774 916 654 878 554 800 c 0
 446 716 392 604 392 470 c 0
 392 390 408 322 440 264 c 1
 430 288 424 312 424 338 c 0
 424 406 448 462 496 506 c 0
 544 550 602 574 670 574 c 0
 754 574 820 544 872 484 c 0
 924 424 948 356 948 272 c 0
 948 186 918 114 862 58 c 0
 806 2 734 -26 648 -26 c 0
 522 -26 418 22 336 120 c 1
 262 212 226 322 226 452 c 0
 226 646 294 798 428 914 c 0
 554 1022 716 1078 912 1078 c 0
 1068 1078 1206 1038 1324 956 c 1
 1446 1040 1570 1080 1694 1080 c 0
 1824 1080 1948 1048 2066 984 c 1
 2146 1046 2232 1078 2324 1078 c 0
 2488 1078 2618 1010 2714 872 c 1
 2800 752 2844 606 2844 434 c 0
 2844 252 2796 82 2702 -76 c 1
 3008 -76 l 1
 3008 1054 l 1
 3182 1054 l 1
 3182 -230 l 1xfbfe
2230 386 m 0
 2230 550 2182 678 2084 764 c 1
 2008 672 1968 560 1968 428 c 0
 1968 364 1976 306 1994 254 c 0
 2016 184 2052 148 2102 148 c 0
 2186 148 2230 228 2230 386 c 0
1460 408 m 0
 1460 550 1420 664 1340 748 c 1
 1248 666 1202 554 1202 408 c 0
 1202 236 1246 148 1334 148 c 0
 1418 148 1460 236 1460 408 c 0
2356 -230 m 1
 408 -230 l 2
 380 -230 364 -242 364 -268 c 0
 364 -360 492 -428 748 -470 c 0
 908 -498 1084 -512 1272 -512 c 0
 1508 -512 1696 -498 1832 -470 c 0
 2044 -428 2218 -348 2356 -230 c 1
784 280 m 256
 784 318 774 352 750 380 c 0
 726 408 696 422 660 422 c 0
 622 422 592 408 568 380 c 0
 544 352 532 318 532 280 c 256
 532 242 544 208 568 180 c 0
 592 152 622 136 660 136 c 0
 696 136 726 152 750 180 c 0
 774 208 784 242 784 280 c 256
EndSplineSet
Ligature2: "'psts' Post Base Substitutions lookup 6-1" ta_nna ta_u_sign
EndChar

StartChar: ta_thu
Encoding: 148 -1 102
Width: 1874
Flags: HW
HStem: -588 158<482 1044> -230 154<366 1256 1522 1712> -28 156<562 898> 446 170<472 552 718 952 1116 1284> 886 166<718 952 1116 1424>
VStem: 200 166<-340 -232> 296 166<220 430> 552 166<616 886> 952 164<182 446 616 886> 1392 158<-74 322> 1712 164<-76 1054>
LayerCount: 2
Fore
SplineSet
1874 -230 m 1xfbe0
 1456 -230 l 1
 1308 -468 1076 -588 754 -588 c 0
 652 -588 556 -576 470 -548 c 1
 362 -512 286 -456 240 -386 c 0
 212 -344 200 -304 200 -264 c 0xfde0
 200 -214 216 -172 250 -134 c 0
 284 -96 324 -76 374 -76 c 2
 1346 -76 l 1
 1376 -6 1392 60 1392 120 c 0
 1392 198 1372 270 1332 334 c 0
 1286 410 1226 446 1152 446 c 2
 1116 446 l 1
 1116 320 l 2
 1116 206 1082 120 1012 60 c 0
 942 0 848 -28 732 -28 c 0
 624 -28 524 6 436 76 c 0
 342 150 296 240 296 348 c 0
 296 528 380 618 552 616 c 1
 552 1052 l 1
 1424 1052 l 1
 1424 886 l 1
 1116 886 l 1
 1116 616 l 1
 1150 616 l 2
 1270 616 1368 564 1444 460 c 0
 1514 366 1550 258 1550 134 c 0
 1550 68 1542 0 1522 -76 c 1
 1712 -76 l 1
 1712 1054 l 1
 1874 1054 l 1
 1874 -230 l 1xfbe0
952 616 m 1
 952 886 l 1
 718 886 l 1
 718 616 l 1
 952 616 l 1
952 312 m 1
 952 314 l 1
 952 446 l 1
 596 446 l 2
 506 446 460 414 460 346 c 0xfbe0
 460 284 492 232 552 188 c 0
 608 148 668 128 732 128 c 0
 872 128 944 188 952 312 c 1
1256 -230 m 1
 396 -230 l 2
 376 -230 364 -242 364 -268 c 0xfde0
 364 -300 396 -332 458 -364 c 0
 504 -386 554 -404 602 -414 c 0
 650 -424 702 -430 756 -430 c 0
 966 -430 1132 -362 1256 -230 c 1
EndSplineSet
Ligature2: "'psts' Post Base Substitutions lookup 6-1" ta_tha ta_u_sign
EndChar

StartChar: ta_nu
Encoding: 149 -1 103
Width: 1778
Flags: HW
HStem: -588 164<462 954> -230 154<366 1130 1406 1616> 488 168<928 1186> 886 172<488 736 902 1316>
VStem: 200 166<-346 -232> 314 172<8 886> 736 166<8 464 572 886> 1274 176<-66 394> 1616 164<-76 1054>
LayerCount: 2
Fore
SplineSet
1778 -230 m 1xf780
 1334 -230 l 1
 1196 -468 992 -588 716 -588 c 0
 640 -588 566 -576 496 -556 c 0
 420 -532 354 -498 300 -454 c 0
 232 -398 200 -334 200 -264 c 0xfb80
 200 -214 216 -172 250 -134 c 0
 284 -96 324 -76 374 -76 c 2
 1216 -76 l 1
 1254 16 1274 108 1274 208 c 0
 1274 282 1254 346 1216 398 c 0
 1174 458 1118 488 1046 488 c 0
 1010 488 978 478 948 460 c 0
 918 442 902 416 902 380 c 2
 902 8 l 1
 736 8 l 1
 736 886 l 1
 488 886 l 1
 488 8 l 1
 314 8 l 1
 314 1058 l 1
 1316 1058 l 1
 1316 886 l 1
 902 886 l 1
 902 572 l 1
 938 628 998 656 1076 656 c 0
 1186 656 1278 606 1352 508 c 0
 1418 418 1450 318 1450 202 c 0
 1450 104 1434 12 1406 -76 c 1
 1616 -76 l 1
 1616 1054 l 1
 1778 1054 l 1
 1778 -230 l 1xf780
1130 -230 m 1
 396 -230 l 2
 376 -230 364 -242 364 -268 c 0
 364 -302 392 -334 448 -364 c 0
 488 -384 532 -400 576 -410 c 0
 620 -420 666 -424 710 -424 c 0
 890 -424 1030 -360 1130 -230 c 1
EndSplineSet
Ligature2: "'psts' Post Base Substitutions lookup 6-1" ta_na ta_u_sign
EndChar

StartChar: ta_pu
Encoding: 150 -1 104
Width: 1370
Flags: HW
HStem: -2 168<368 1198>
VStem: 200 168<166 1056> 1198 170<-514 -2 166 1056>
LayerCount: 2
Fore
SplineSet
1370 -514 m 1
 1198 -514 l 1
 1198 -2 l 1
 200 -2 l 1
 200 1056 l 1
 368 1056 l 1
 368 166 l 1
 1198 166 l 1
 1198 1056 l 1
 1370 1056 l 1
 1370 -514 l 1
EndSplineSet
Ligature2: "'psts' Post Base Substitutions lookup 6-1" ta_pa ta_u_sign
EndChar

StartChar: ta_mu
Encoding: 151 -1 105
Width: 2104
Flags: HW
HStem: -552 156<682 1086> 0 172<810 1244 1428 1852> 912 170<1466 1720>
VStem: 200 164<-2 676> 636 172<172 1052> 1244 184<-226 0 172 868> 1908 194<228 666>
LayerCount: 2
Fore
SplineSet
2104 434 m 0
 2104 302 2066 198 1992 118 c 0
 1918 38 1818 0 1688 0 c 0
 1624 0 1624 0 1424 0 c 1
 1424 -160 1378 -292 1282 -396 c 0
 1186 -500 1060 -552 904 -552 c 0
 682 -552 504 -456 372 -268 c 0
 256 -102 200 98 200 332 c 0
 200 614 276 854 428 1054 c 1
 548 944 l 1
 424 766 364 558 364 320 c 0
 364 140 406 -20 492 -158 c 0
 592 -316 728 -396 898 -396 c 0
 1008 -396 1096 -356 1158 -278 c 0
 1218 -204 1246 -112 1244 0 c 1
 636 0 l 1
 636 1052 l 1
 810 1052 l 1
 810 172 l 1
 1244 172 l 1
 1244 760 l 2
 1244 848 1274 924 1336 988 c 0
 1398 1052 1472 1082 1560 1082 c 0
 1716 1082 1846 1012 1954 872 c 0
 2054 742 2104 596 2104 434 c 0
1908 420 m 0
 1908 528 1880 634 1822 734 c 0
 1754 852 1670 912 1570 912 c 0
 1530 912 1498 898 1470 870 c 0
 1442 842 1428 808 1428 768 c 2
 1428 172 l 1
 1724 172 l 2
 1848 172 1908 256 1908 420 c 0
EndSplineSet
Ligature2: "'psts' Post Base Substitutions lookup 6-1" ta_ma ta_u_sign
EndChar

StartChar: ta_yu
Encoding: 152 -1 106
Width: 1448
Flags: HW
HStem: -24 166<414 610 820 1286>
VStem: 200 176<190 1054> 646 172<176 1054> 1288 160<-514 -8 144 1054>
LayerCount: 2
Fore
SplineSet
1448 -514 m 1
 1286 -514 l 1
 1286 -8 l 1
 670 -8 l 1
 670 84 l 1
 632 12 580 -24 512 -24 c 0
 304 -24 200 76 200 272 c 2
 200 1054 l 1
 376 1054 l 1
 376 296 l 2
 376 256 388 220 412 188 c 0
 436 156 470 142 508 142 c 0
 550 142 582 160 608 194 c 0
 634 228 646 266 646 308 c 2
 646 1054 l 1
 820 1054 l 1
 820 144 l 1
 1288 144 l 1
 1288 1054 l 1
 1448 1054 l 1
 1448 -514 l 1
EndSplineSet
Ligature2: "'psts' Post Base Substitutions lookup 6-1" ta_ya ta_u_sign
EndChar

StartChar: ta_ru
Encoding: 153 -1 107
Width: 1820
Flags: HW
HStem: -596 160<794 1324> 2 50G<664 834 1072 1234> 488 168<1264 1532> 888 166<834 1072 1234 1668>
VStem: 200 158<58 720> 664 170<2 888> 1072 164<2 464 566 888> 1652 168<-116 354>
LayerCount: 2
Fore
SplineSet
1820 148 m 0
 1820 -62 1750 -236 1606 -380 c 0
 1462 -524 1286 -596 1074 -596 c 0
 808 -596 592 -494 428 -290 c 0
 276 -102 200 130 200 404 c 0
 200 652 272 868 418 1054 c 1
 534 944 l 1
 418 792 358 608 358 396 c 0
 358 170 418 -20 536 -176 c 0
 668 -348 842 -434 1062 -434 c 0
 1232 -434 1372 -382 1484 -274 c 0
 1596 -166 1652 -28 1652 140 c 0
 1652 234 1628 312 1584 376 c 0
 1534 450 1466 488 1376 488 c 0
 1340 488 1310 478 1282 460 c 0
 1250 440 1234 414 1234 380 c 2
 1234 2 l 1
 1072 2 l 1
 1072 888 l 1
 834 888 l 1
 834 2 l 1
 664 2 l 1
 664 1054 l 1
 1668 1054 l 1
 1668 888 l 1
 1234 888 l 1
 1234 566 l 1
 1272 626 1328 656 1398 656 c 0
 1532 656 1638 604 1714 500 c 0
 1784 406 1820 288 1820 148 c 0
EndSplineSet
Ligature2: "'psts' Post Base Substitutions lookup 6-1" ta_ra ta_u_sign
EndChar

StartChar: ta_rru
Encoding: 154 -1 108
Width: 1828
Flags: HW
HStem: -588 160<462 916> -230 154<366 1114 1392 1664> -2 50G<288 468 734 914> 912 170<500 700 956 1208>
VStem: 200 166<-350 -232> 288 180<-2 880> 734 180<-2 866> 1332 166<104 756> 1664 166<-76 1054>
LayerCount: 2
Fore
SplineSet
1828 -230 m 1xf780
 1320 -230 l 1
 1172 -468 952 -588 664 -588 c 0
 560 -588 462 -564 370 -512 c 0
 256 -450 200 -366 200 -264 c 0xfb80
 200 -214 216 -172 250 -134 c 0
 284 -96 324 -76 374 -76 c 2
 1204 -76 l 1
 1288 88 1332 266 1332 454 c 0
 1332 570 1316 668 1284 746 c 0
 1238 856 1166 912 1066 912 c 0
 1024 912 988 898 958 868 c 0
 928 838 914 802 914 760 c 2
 914 -2 l 1
 734 -2 l 1
 734 760 l 2
 734 800 720 836 694 866 c 0
 668 896 636 912 598 912 c 0
 562 912 530 898 506 866 c 0
 482 834 468 798 468 760 c 2
 468 -2 l 1
 288 -2 l 1
 288 772 l 2
 288 856 320 932 382 992 c 0
 444 1052 518 1082 602 1082 c 0
 692 1082 766 1048 826 980 c 1
 884 1048 964 1082 1068 1082 c 0
 1222 1082 1336 1010 1412 864 c 0
 1470 752 1498 612 1498 442 c 0
 1498 262 1462 88 1392 -76 c 1
 1664 -76 l 1
 1664 1054 l 1
 1828 1054 l 1
 1828 -230 l 1xf780
1114 -230 m 1
 396 -230 l 2
 376 -230 364 -242 364 -268 c 0
 364 -318 412 -360 506 -392 c 0
 578 -416 642 -428 694 -428 c 0
 768 -428 844 -408 924 -370 c 0
 1004 -332 1068 -286 1114 -230 c 1
EndSplineSet
Ligature2: "'psts' Post Base Substitutions lookup 6-1" ta_rra ta_u_sign
EndChar

StartChar: ta_nguu
Encoding: 155 -1 109
Width: 2094
Flags: HW
HStem: -708 154<554 1370> -250 166<396 732> 0 154<626 1036 1184 1456> 116 184<1664 1900> 492 168<818 1050> 878 172<368 626 790 1170>
VStem: 202 176<-442 -280 0 878> 626 166<250 462 580 878> 1090 180<210 450> 1456 172<-202 -2 194 1054> 1922 172<-210 94>
LayerCount: 2
Fore
SplineSet
2094 -8 m 0xdfe0
 2094 -266 1962 -454 1694 -574 c 0
 1496 -664 1248 -708 954 -708 c 0
 454 -708 202 -584 202 -332 c 0
 202 -250 242 -186 320 -142 c 0
 386 -104 460 -84 544 -84 c 0
 730 -84 866 -144 952 -264 c 1
 826 -372 l 1
 740 -290 640 -250 524 -250 c 0
 502 -250 474 -258 438 -276 c 0
 398 -296 378 -316 378 -338 c 0
 378 -422 454 -482 608 -518 c 0
 704 -542 812 -554 928 -554 c 0
 1156 -554 1362 -518 1550 -444 c 0
 1798 -346 1922 -206 1922 -24 c 0
 1922 68 1874 116 1782 116 c 0xdfe0
 1680 116 1628 68 1628 -26 c 2
 1628 -202 l 1
 1456 -202 l 1
 1456 0 l 1
 626 0 l 1
 626 154 l 1
 910 154 l 2
 958 154 1000 172 1036 208 c 0
 1072 244 1090 288 1090 336 c 0
 1090 380 1076 416 1046 446 c 0
 1016 476 982 492 938 492 c 0
 902 492 866 480 836 456 c 0
 806 432 790 404 790 368 c 2
 790 250 l 1
 626 250 l 1
 626 878 l 1
 368 878 l 1
 368 0 l 1
 200 0 l 1
 200 1052 l 1
 1170 1052 l 1
 1170 878 l 1
 790 878 l 1
 790 580 l 1
 840 632 900 660 968 660 c 0
 1056 660 1130 632 1186 574 c 0
 1242 516 1270 444 1270 356 c 0
 1270 280 1242 212 1184 154 c 1
 1456 154 l 1xefe0
 1456 1054 l 1
 1628 1054 l 1
 1628 194 l 1
 1662 264 1718 300 1796 300 c 0
 1886 300 1958 270 2012 214 c 0
 2066 158 2094 84 2094 -8 c 0xdfe0
EndSplineSet
Ligature2: "'psts' Post Base Substitutions lookup 6-1" ta_nga ta_uu_sign
EndChar

StartChar: ta_chuu
Encoding: 156 -1 110
Width: 1840
Flags: HW
HStem: -716 166<536 1192> -250 166<388 730> -28 156<470 806> 116 184<1410 1634> 446 170<384 458 624 860 1022 1202 1376 1542> 886 166<624 860 1022 1340>
VStem: 200 180<-436 -272 208 436> 458 166<616 886> 860 160<182 446 616 886> 1202 172<-202 90 194 446> 1668 172<-214 82>
LayerCount: 2
Fore
SplineSet
1840 -8 m 0xdfe0
 1840 -234 1728 -414 1506 -548 c 1
 1318 -660 1102 -716 860 -716 c 0
 688 -716 548 -692 434 -644 c 1
 278 -576 200 -468 200 -320 c 0
 200 -244 240 -184 320 -140 c 0
 388 -104 462 -84 542 -84 c 0
 728 -84 864 -144 950 -264 c 1
 824 -372 l 1
 740 -290 638 -250 522 -250 c 0
 498 -250 470 -256 438 -268 c 0
 400 -284 380 -304 380 -326 c 0
 380 -404 440 -464 556 -504 c 1
 640 -534 730 -550 830 -550 c 0
 1022 -550 1198 -510 1362 -430 c 0
 1566 -330 1668 -196 1668 -24 c 0
 1668 18 1654 50 1628 76 c 0
 1602 102 1570 116 1528 116 c 0xdfe0
 1426 116 1374 68 1374 -24 c 2
 1374 -202 l 1
 1202 -202 l 1
 1202 446 l 1
 1022 446 l 1
 1022 320 l 2
 1022 206 988 120 918 60 c 0
 848 0 756 -28 640 -28 c 0xefe0
 530 -28 430 6 342 74 c 1
 250 150 204 240 204 348 c 0
 204 530 288 620 458 616 c 1
 458 1052 l 1
 1340 1052 l 1
 1340 886 l 1
 1022 886 l 1
 1022 616 l 1
 1542 616 l 1
 1542 446 l 1
 1376 446 l 1
 1376 350 1376 266 1374 194 c 1
 1410 264 1466 300 1542 300 c 0
 1632 300 1704 272 1758 214 c 0
 1812 156 1840 82 1840 -8 c 0xdfe0
860 616 m 1
 860 886 l 1
 624 886 l 1
 624 616 l 1
 860 616 l 1
860 312 m 1
 860 314 l 1
 860 446 l 1
 504 446 l 2
 414 446 368 414 368 346 c 0
 368 284 400 232 460 188 c 0
 516 148 576 128 640 128 c 0xefe0
 780 128 852 188 860 312 c 1
EndSplineSet
Ligature2: "'psts' Post Base Substitutions lookup 6-1" ta_cha ta_uu_sign
EndChar

StartChar: ta_vuu
Encoding: 157 -1 111
Width: 2340
Flags: HW
HStem: -708 154<618 1556> -238 154<406 744> -26 164<568 756> -2 164<1288 1698> 116 184<1908 2144> 422 152<568 756> 916 160<582 1004>
VStem: 200 164<278 700> 220 170<-420 -266> 424 112<258 388> 788 164<172 388> 1228 168<256 694> 1698 172<-202 -6 194 1054> 2168 172<-206 94>
LayerCount: 2
Fore
SplineSet
2340 -10 m 0xcf7c
 2340 -276 2186 -468 1878 -586 c 0
 1664 -668 1396 -708 1078 -708 c 0
 848 -708 672 -692 548 -658 c 0
 328 -598 220 -482 220 -314 c 0
 220 -240 256 -184 332 -140 c 0
 398 -104 472 -84 556 -84 c 0
 736 -84 868 -140 954 -252 c 1
 828 -352 l 1
 744 -276 648 -238 536 -238 c 0
 512 -238 484 -246 450 -262 c 0
 410 -282 390 -302 390 -322 c 0
 390 -408 482 -472 668 -514 c 0
 790 -542 922 -554 1062 -554 c 0
 1306 -554 1530 -522 1736 -454 c 0
 2024 -360 2168 -220 2168 -32 c 0
 2168 66 2120 116 2024 116 c 0xcefc
 1922 116 1870 68 1870 -26 c 2xe6fc
 1870 -202 l 1
 1698 -202 l 1
 1698 -2 l 1
 1072 -2 l 1xd6fc
 1062 110 l 1
 1172 206 1228 326 1228 472 c 0
 1228 598 1186 706 1104 790 c 0
 1022 874 916 916 790 916 c 0
 670 916 568 876 486 794 c 0
 404 712 364 610 364 490 c 0
 364 408 384 330 428 256 c 1
 424 276 424 294 424 314 c 0
 424 390 446 452 492 500 c 0
 538 548 598 574 672 574 c 0
 756 574 822 544 874 486 c 0
 926 428 952 356 952 272 c 0
 952 184 924 112 868 56 c 0
 812 0 740 -26 652 -26 c 0
 516 -26 404 28 320 136 c 0xe77c
 240 236 200 356 200 496 c 0
 200 668 254 808 366 916 c 0
 478 1024 620 1078 792 1078 c 256
 964 1078 1110 1024 1224 914 c 0
 1338 804 1396 662 1396 490 c 0
 1396 374 1360 264 1288 160 c 1
 1698 160 l 1xd77c
 1698 1054 l 1
 1870 1054 l 1
 1870 194 l 1
 1906 264 1962 300 2038 300 c 0
 2130 300 2202 272 2258 214 c 0
 2314 156 2340 82 2340 -10 c 0xcf7c
788 280 m 256
 788 318 778 352 754 380 c 0
 730 408 700 422 664 422 c 0
 626 422 594 408 570 380 c 0
 546 352 536 318 536 280 c 256
 536 242 546 208 570 180 c 0
 594 152 626 136 664 136 c 0xe67c
 700 136 730 152 754 180 c 0
 778 208 788 242 788 280 c 256
EndSplineSet
Ligature2: "'psts' Post Base Substitutions lookup 6-1" ta_va ta_uu_sign
EndChar

StartChar: ta_zhuu
Encoding: 158 -1 112
Width: 2434
Flags: HW
HStem: -704 168<1098 1916> -218 168<1784 2010> 0 172<1142 1576 1762 2178> 420 180<500 674> 888 188<500 674> 912 170<1798 2054>
VStem: 200 172<62 590> 702 190<624 864> 968 172<172 1052> 1582 166<-394 -246 -130 0 172 862> 2030 178<-444 -242> 2242 192<236 670>
LayerCount: 2
Fore
SplineSet
2434 434 m 0xf7f0
 2434 306 2398 202 2324 122 c 0
 2250 42 2148 0 2020 0 c 2
 1748 0 l 1
 1748 -130 l 1
 1778 -78 1834 -50 1914 -50 c 256
 1994 -50 2062 -74 2116 -120 c 0
 2176 -170 2206 -234 2206 -316 c 0
 2206 -472 2130 -580 1974 -640 c 0
 1868 -682 1708 -704 1490 -704 c 0
 1112 -704 806 -606 572 -410 c 1
 324 -206 200 76 200 434 c 0
 200 590 228 728 280 844 c 0
 348 998 450 1076 586 1076 c 0xfbf0
 674 1076 748 1044 806 980 c 0
 864 916 892 842 892 756 c 256
 892 670 866 594 814 528 c 0
 760 456 690 420 606 420 c 0
 498 420 428 476 394 592 c 1
 380 532 374 452 374 346 c 0
 374 94 482 -116 700 -284 c 0
 918 -452 1186 -536 1502 -536 c 0
 1660 -536 1778 -524 1854 -504 c 0
 1970 -472 2030 -412 2030 -326 c 0
 2030 -296 2016 -270 1988 -250 c 0
 1960 -230 1932 -218 1900 -218 c 0
 1862 -218 1826 -226 1798 -244 c 0
 1764 -264 1748 -292 1748 -328 c 2
 1748 -394 l 1
 1582 -394 l 1
 1582 0 l 1
 968 0 l 1
 968 1052 l 1
 1142 1052 l 1
 1142 172 l 1
 1576 172 l 1
 1576 760 l 2
 1576 844 1606 922 1670 986 c 0
 1734 1050 1808 1082 1892 1082 c 0
 2048 1082 2180 1012 2286 872 c 1
 2386 742 2434 596 2434 434 c 0xf7f0
2242 420 m 0
 2242 530 2214 636 2156 736 c 0
 2088 852 2004 912 1904 912 c 0xf7f0
 1866 912 1832 896 1804 868 c 0
 1776 840 1762 806 1762 768 c 2
 1762 172 l 1
 2058 172 l 2
 2120 172 2168 200 2202 254 c 0
 2230 298 2242 352 2242 420 c 0
702 744 m 256
 702 780 692 812 670 842 c 0
 648 872 620 888 586 888 c 256xfbf0
 552 888 526 872 504 842 c 0
 482 812 472 780 472 744 c 256
 472 708 482 676 504 646 c 0
 526 616 552 600 586 600 c 256
 620 600 648 616 670 646 c 0
 692 676 702 708 702 744 c 256
EndSplineSet
Ligature2: "'psts' Post Base Substitutions lookup 6-1" ta_zha ta_uu_sign
EndChar

StartChar: ta_lluu
Encoding: 159 -1 113
Width: 3044
Flags: HW
HStem: -634 164<1180 2154> -26 164<1314 1506> 2 50G<1834 2000> 420 180<478 654> 422 152<1318 1508> 488 168<2524 2788> 888 200<478 652> 892 158<2000 2328 2500 2784> 914 166<1308 1698>
VStem: 200 164<188 592> 680 190<622 866> 952 156<284 700> 1172 112<246 386> 1536 164<162 396> 1834 166<2 790> 2332 164<14 464 566 892> 2876 168<-2 396>
LayerCount: 2
Fore
SplineSet
3044 208 m 0x857f80
 3044 -86 2880 -308 2550 -460 c 0
 2298 -576 2004 -634 1668 -634 c 0
 1282 -634 958 -554 690 -398 c 0
 364 -208 200 68 200 428 c 0
 200 608 224 752 272 864 c 0
 336 1012 436 1088 574 1088 c 0
 660 1088 732 1052 790 984 c 0
 842 920 870 844 870 756 c 0
 870 670 844 594 792 528 c 0
 738 456 670 420 586 420 c 0x927f80
 478 420 408 476 372 592 c 1
 366 572 364 550 364 528 c 0
 364 180 500 -80 772 -252 c 0
 1000 -398 1296 -470 1664 -470 c 0
 1952 -470 2208 -422 2432 -328 c 0
 2728 -204 2876 -18 2876 228 c 0
 2876 300 2856 362 2812 412 c 0
 2768 462 2710 488 2636 488 c 0
 2600 488 2570 478 2542 460 c 0
 2510 440 2494 414 2494 380 c 2
 2494 14 l 1
 2332 14 l 1
 2328 892 l 1
 2000 892 l 1
 2000 2 l 1
 1834 2 l 1xa57f80
 1834 638 l 2
 1834 720 1798 788 1726 842 c 0
 1660 890 1584 914 1500 914 c 0
 1386 914 1292 870 1218 784 c 0
 1144 698 1108 598 1108 482 c 0
 1108 394 1134 314 1186 244 c 1
 1176 266 1172 290 1172 314 c 0
 1172 388 1194 450 1242 500 c 0
 1290 550 1350 574 1422 574 c 0
 1504 574 1572 542 1626 482 c 0
 1676 424 1700 356 1700 272 c 0
 1700 186 1670 114 1614 58 c 0
 1558 2 1486 -26 1400 -26 c 0
 1262 -26 1150 30 1066 140 c 0
 990 240 952 362 952 504 c 0
 952 666 1000 802 1096 914 c 0
 1192 1026 1322 1080 1482 1080 c 0xc8ff80
 1646 1080 1762 1020 1834 898 c 1
 1834 1052 l 1
 2784 1052 l 1
 2784 892 l 1
 2500 892 l 1
 2496 838 2494 780 2494 720 c 2
 2494 566 l 1
 2534 626 2590 656 2658 656 c 0
 2776 656 2872 610 2944 518 c 0
 3012 434 3044 330 3044 208 c 0x857f80
1536 280 m 256
 1536 316 1524 352 1500 380 c 0
 1476 408 1448 422 1412 422 c 0
 1376 422 1344 408 1320 380 c 0
 1296 352 1284 316 1284 280 c 256
 1284 244 1296 212 1320 182 c 0
 1344 152 1376 136 1412 136 c 0xc87f80
 1448 136 1476 152 1500 182 c 0
 1524 212 1536 244 1536 280 c 256
680 744 m 256
 680 780 668 812 648 842 c 0
 628 872 600 888 564 888 c 0
 530 888 504 872 482 842 c 0
 460 812 450 780 450 744 c 256
 450 708 460 676 482 646 c 0
 504 616 530 600 564 600 c 0x927f80
 600 600 628 616 648 646 c 0
 668 676 680 708 680 744 c 256
EndSplineSet
Ligature2: "'psts' Post Base Substitutions lookup 6-1" ta_lla ta_uu_sign
EndChar

StartChar: ta_rruu
Encoding: 160 -1 114
Width: 2486
Flags: HW
HStem: -588 160<462 916> -230 154<366 1114 1392 1664> -2 50G<288 468 734 914> 892 160<1814 2068 2236 2486> 912 170<500 700 956 1208>
VStem: 200 166<-350 -232> 288 180<-2 880> 734 180<-2 866> 1332 166<104 756> 1664 152<-76 892> 2068 168<-228 892>
LayerCount: 2
Fore
SplineSet
2486 892 m 1xf3e0
 2236 892 l 1
 2236 -228 l 1
 2068 -228 l 1
 2068 892 l 1
 1814 892 l 1
 1814 -230 l 1
 1320 -230 l 1
 1172 -468 952 -588 664 -588 c 0
 560 -588 462 -564 370 -512 c 0
 256 -450 200 -366 200 -264 c 0xf5e0
 200 -214 216 -172 250 -134 c 0
 284 -96 324 -76 374 -76 c 2
 1204 -76 l 1
 1288 88 1332 266 1332 454 c 0
 1332 570 1316 668 1284 746 c 0
 1238 856 1166 912 1066 912 c 0
 1024 912 988 898 958 868 c 0
 928 838 914 802 914 760 c 2
 914 -2 l 1
 734 -2 l 1
 734 760 l 2
 734 800 720 836 694 866 c 0
 668 896 636 912 598 912 c 0
 562 912 530 898 506 866 c 0
 482 834 468 798 468 760 c 2
 468 -2 l 1
 288 -2 l 1
 288 772 l 2
 288 856 320 932 382 992 c 0
 444 1052 518 1082 602 1082 c 0
 692 1082 766 1048 826 980 c 1
 884 1048 964 1082 1068 1082 c 0xebe0
 1222 1082 1336 1010 1412 864 c 0
 1470 752 1498 612 1498 442 c 0
 1498 262 1462 88 1392 -76 c 1
 1664 -76 l 1
 1664 1054 l 1
 2486 1052 l 1
 2486 892 l 1xf3e0
1114 -230 m 1
 396 -230 l 2
 376 -230 364 -242 364 -268 c 0
 364 -318 412 -360 506 -392 c 0
 578 -416 642 -428 694 -428 c 0
 768 -428 844 -408 924 -370 c 0
 1004 -332 1068 -286 1114 -230 c 1
EndSplineSet
Ligature2: "'psts' Post Base Substitutions lookup 6-1" ta_rra ta_uu_sign
EndChar

StartChar: ta_nnuu
Encoding: 161 -1 115
Width: 3110
Flags: HW
HStem: -636 164<578 1356> -230 154<370 1740 2038 2288> -26 164<566 754 1252 1420> 422 152<564 752> 892 160<2438 2692 2860 3110> 916 160<658 1176 1470 1764>
VStem: 200 170<-352 -230> 226 166<266 678> 424 108<266 388> 784 164<172 388> 1034 168<184 666> 1472 178<186 674> 1968 166<74 680> 2288 152<-76 892> 2692 168<-228 892>
LayerCount: 2
Fore
SplineSet
3110 892 m 1xf9fe
 2860 892 l 1
 2860 -228 l 1
 2692 -228 l 1
 2692 892 l 1
 2438 892 l 1
 2438 -230 l 1
 1960 -230 l 1
 1762 -500 1434 -636 974 -636 c 0
 458 -636 200 -512 200 -264 c 0xfafe
 200 -216 220 -172 260 -134 c 0
 300 -96 346 -76 398 -76 c 2
 1844 -76 l 1
 1928 58 1968 220 1968 412 c 0
 1968 544 1940 656 1880 748 c 0
 1812 854 1718 908 1598 908 c 0
 1542 908 1498 898 1468 880 c 1
 1588 764 1648 604 1648 396 c 0
 1648 280 1628 186 1588 112 c 1
 1536 20 1456 -26 1348 -26 c 0
 1238 -26 1156 24 1102 124 c 0
 1058 204 1034 304 1034 422 c 0
 1034 602 1082 748 1180 864 c 1
 1096 900 1006 916 912 916 c 0
 772 916 652 878 552 800 c 0
 444 716 392 606 392 470 c 0
 392 386 408 316 440 264 c 1
 430 292 424 318 424 338 c 0
 424 406 448 464 496 508 c 0
 544 552 602 574 670 574 c 0
 754 574 820 544 872 486 c 0
 924 428 948 356 948 272 c 0
 948 184 920 112 864 56 c 0
 808 0 736 -26 648 -26 c 0
 520 -26 416 22 336 120 c 0
 262 210 226 320 226 452 c 0
 226 646 292 798 424 914 c 1
 552 1022 716 1078 912 1078 c 0
 1082 1078 1214 1042 1312 974 c 1
 1388 1042 1482 1078 1592 1078 c 0xf5fe
 1764 1078 1900 1010 2000 874 c 0
 2090 750 2134 596 2134 412 c 0
 2134 226 2102 64 2038 -76 c 1
 2288 -76 l 1
 2288 1054 l 1
 3110 1052 l 1
 3110 892 l 1xf9fe
1472 408 m 0
 1472 592 1424 716 1330 776 c 1
 1246 684 1202 560 1202 408 c 0
 1202 236 1246 148 1334 148 c 0
 1426 148 1472 236 1472 408 c 0
784 280 m 256
 784 318 774 352 750 380 c 0
 726 408 696 422 660 422 c 0
 622 422 592 408 568 380 c 0
 544 352 532 318 532 280 c 256
 532 242 544 208 568 180 c 0
 592 152 622 136 660 136 c 0
 696 136 726 152 750 180 c 0
 774 208 784 242 784 280 c 256
1740 -230 m 1
 404 -230 l 2
 382 -230 370 -242 370 -268 c 0
 370 -340 458 -396 636 -434 c 0
 754 -460 866 -472 974 -472 c 0
 1122 -472 1268 -450 1408 -406 c 0
 1548 -362 1660 -302 1740 -230 c 1
EndSplineSet
Ligature2: "'psts' Post Base Substitutions lookup 6-1" ta_nnna ta_uu_sign
EndChar

StartChar: ta_suu
Encoding: 162 -1 116
Width: 3708
Flags: HW
HStem: -26 164<566 758 1734 2018> 0 50G<1080 1244> 94 176<2700 3204> 422 152<568 756> 436 170<2720 2948> 920 160<580 996 1270 1500> 926 172<2190 2498 2668 2962> 1526 168<2882 3324>
VStem: 200 164<278 700> 422 116<258 390> 786 166<172 390> 1080 166<0 838> 1526 168<192 890> 2116 168<254 802> 2498 170<660 916 1100 1318> 2994 172<658 890> 3542 166<650 1276>
LayerCount: 2
Fore
SplineSet
3708 970 m 0x03ff80
 3708 724 3644 520 3516 356 c 0
 3380 182 3196 94 2964 94 c 0
 2744 94 2554 174 2396 334 c 1
 2496 466 l 1
 2624 334 2776 268 2956 268 c 0x23ff80
 3142 268 3286 338 3392 478 c 1
 3492 606 3542 770 3542 968 c 0
 3542 1136 3510 1266 3444 1360 c 0
 3368 1470 3254 1526 3104 1526 c 0
 2978 1526 2874 1488 2792 1408 c 0
 2710 1328 2668 1226 2668 1100 c 1
 2858 1100 l 2
 2950 1100 3026 1072 3082 1016 c 0
 3138 960 3168 886 3168 794 c 0
 3168 694 3136 612 3074 542 c 0
 3012 472 2932 436 2834 436 c 0
 2738 436 2658 474 2594 548 c 0
 2530 622 2498 708 2498 806 c 2
 2498 926 l 1
 2190 926 l 1
 2252 826 2284 700 2284 552 c 0
 2284 390 2256 260 2200 160 c 0
 2130 36 2020 -26 1872 -26 c 0x8bff80
 1772 -26 1686 10 1622 80 c 0
 1558 150 1526 236 1526 336 c 2
 1526 794 l 2
 1526 828 1512 858 1484 882 c 0
 1456 906 1428 920 1392 920 c 0
 1294 920 1244 870 1244 770 c 2
 1244 0 l 1
 1080 0 l 1x45ff80
 1080 676 l 2
 1080 838 980 920 784 920 c 0
 668 920 568 878 486 794 c 0
 404 710 364 608 364 490 c 0
 364 408 384 330 428 256 c 1
 424 276 422 294 422 314 c 0
 422 390 446 452 492 500 c 0
 538 548 598 574 674 574 c 0
 758 574 824 544 876 486 c 0
 928 428 952 356 952 272 c 0
 952 184 924 112 868 56 c 0
 812 0 740 -26 650 -26 c 0
 516 -26 404 28 318 136 c 0
 240 236 200 356 200 496 c 0
 200 656 256 794 366 908 c 0
 476 1022 610 1080 770 1080 c 0x95ff80
 958 1080 1078 1028 1130 926 c 1x03ff80
 1142 974 1174 1014 1230 1042 c 0
 1278 1068 1330 1080 1386 1080 c 0x05ff80
 1464 1080 1532 1060 1592 1016 c 0
 1660 968 1694 906 1694 830 c 2
 1694 336 l 2
 1694 276 1706 228 1732 190 c 0
 1762 146 1806 122 1864 122 c 0
 1956 122 2024 170 2068 264 c 0
 2100 334 2116 422 2116 526 c 0
 2116 746 2040 902 1892 994 c 1
 2008 1100 l 1
 2498 1100 l 1
 2498 1276 2556 1418 2670 1528 c 0
 2784 1638 2928 1694 3104 1694 c 0
 3304 1694 3458 1624 3564 1484 c 0
 3660 1356 3708 1184 3708 970 c 0x03ff80
2994 794 m 0
 2994 876 2934 916 2810 916 c 2
 2668 916 l 1
 2668 806 l 2
 2668 754 2684 710 2712 672 c 0
 2744 628 2784 608 2834 608 c 256x09ff80
 2884 608 2924 626 2952 662 c 0
 2980 698 2994 742 2994 794 c 0
786 280 m 256
 786 320 774 354 752 382 c 0
 730 410 700 422 662 422 c 256
 624 422 592 410 570 382 c 0
 548 354 536 320 536 280 c 256
 536 240 548 208 568 182 c 0
 592 152 624 136 662 136 c 256x91ff80
 700 136 732 152 756 182 c 0
 776 208 786 240 786 280 c 256
EndSplineSet
Ligature2: "'psts' Post Base Substitutions lookup 6-1" ta_sa ta_uu_sign
EndChar

StartChar: ta_juu
Encoding: 163 -1 117
Width: 3254
Flags: HW
HStem: -578 164<480 808 1312 1540> -38 160<1242 1532> 46 176<2162 2684> 146 166<486 1444> 368 154<398 566> 388 170<2148 2374> 724 124<426 564> 878 178<1678 1960 2130 2390> 908 168<460 860 1164 1490> 1534 168<2360 2794>
VStem: 200 166<-302 26 546 700> 586 172<542 702> 926 180<398 842> 1108 170<-382 -296> 1588 164<-364 -94 456 804> 1960 170<1056 1294> 1960 134<612 868> 2420 208<610 842> 3088 166<638 1198>
LayerCount: 2
Fore
SplineSet
3254 922 m 0x837f60
 3254 682 3176 478 3020 308 c 0
 2860 134 2662 46 2426 46 c 0
 2206 46 2016 126 1858 286 c 1
 1958 418 l 1
 2086 286 2238 220 2418 220 c 0
 2610 220 2770 290 2898 430 c 1
 3024 564 3088 728 3088 920 c 0
 3088 1084 3044 1224 2956 1340 c 0
 2860 1470 2732 1534 2576 1534 c 0
 2444 1534 2336 1488 2254 1396 c 0
 2172 1304 2130 1190 2130 1056 c 1xa37f60
 2320 1056 l 2
 2412 1056 2488 1028 2544 970 c 0
 2600 912 2630 838 2630 746 c 0
 2630 646 2598 564 2536 494 c 0
 2474 424 2394 388 2296 388 c 0
 2200 388 2120 426 2056 500 c 0
 1992 574 1960 660 1960 758 c 2
 1960 878 l 1
 1678 878 l 1xa77ee0
 1726 804 1750 724 1750 634 c 0
 1750 496 1710 382 1630 290 c 0
 1546 194 1438 146 1304 146 c 2
 652 146 l 2
 574 146 506 120 450 64 c 0
 394 8 366 -58 366 -136 c 256
 366 -214 392 -280 446 -334 c 0
 500 -388 566 -416 646 -416 c 0
 744 -416 826 -368 894 -276 c 0
 986 -146 984 -146 1076 -16 c 1
 1164 76 1280 122 1426 122 c 0
 1514 122 1590 88 1654 20 c 0
 1718 -48 1750 -128 1750 -220 c 0
 1750 -316 1722 -400 1664 -468 c 1
 1604 -542 1532 -578 1442 -578 c 256
 1352 -578 1274 -554 1210 -502 c 0
 1142 -446 1108 -378 1108 -296 c 1
 1278 -296 l 1
 1278 -332 1292 -358 1322 -382 c 0
 1352 -406 1386 -418 1426 -418 c 0
 1472 -418 1512 -400 1542 -362 c 0
 1572 -324 1588 -280 1588 -228 c 0
 1588 -180 1570 -138 1538 -98 c 0
 1506 -58 1468 -38 1426 -38 c 0
 1312 -38 1220 -86 1148 -178 c 1
 1088 -264 1030 -352 970 -440 c 1
 890 -532 782 -578 646 -578 c 0
 522 -578 420 -534 332 -446 c 0
 244 -358 200 -254 200 -130 c 0
 200 -8 244 96 332 182 c 0
 420 268 522 312 644 312 c 2
 1258 312 l 2
 1350 312 1428 340 1490 400 c 0
 1552 460 1582 536 1582 628 c 0
 1582 706 1562 772 1520 824 c 0
 1474 880 1412 908 1336 908 c 0
 1182 908 1106 836 1106 694 c 2
 1106 398 l 1
 926 398 l 1
 926 694 l 2
 926 840 834 912 652 912 c 0
 554 912 478 884 426 824 c 1
 456 842 488 850 520 850 c 0
 586 850 640 828 688 784 c 0
 736 740 760 686 760 620 c 0
 760 544 734 482 682 436 c 0
 630 390 564 368 488 368 c 0
 404 368 336 396 284 454 c 0
 232 512 206 584 206 668 c 0
 206 788 250 886 340 962 c 0
 424 1036 528 1072 652 1072 c 0
 812 1072 928 1030 1004 946 c 1
 1072 1032 1180 1076 1324 1076 c 0xdafee0
 1416 1076 1496 1048 1570 996 c 1
 1570 1056 l 1
 1960 1056 l 1
 1960 1240 2018 1392 2132 1516 c 0
 2246 1640 2394 1702 2576 1702 c 0
 2782 1702 2950 1622 3076 1460 c 1
 3194 1312 3254 1134 3254 922 c 0x837f60
2420 746 m 0
 2420 828 2360 868 2236 868 c 2
 2094 868 l 1
 2094 758 l 2
 2094 706 2110 662 2138 624 c 0
 2170 580 2210 560 2260 560 c 256x867ee0
 2310 560 2350 578 2378 614 c 0
 2406 650 2420 694 2420 746 c 0
586 622 m 0
 586 650 576 674 554 694 c 0
 532 714 506 724 478 724 c 0
 448 724 424 716 404 696 c 0
 384 676 376 652 376 622 c 0
 376 594 386 570 406 550 c 0
 426 530 454 520 484 520 c 0x8a7e60
 512 520 536 530 556 548 c 0
 576 566 586 592 586 622 c 0
EndSplineSet
Ligature2: "'psts' Post Base Substitutions lookup 6-1" ta_ja ta_uu_sign
EndChar

StartChar: ta_shuu
Encoding: 164 -1 118
Width: 4000
Flags: HW
HStem: -26 164<568 760> -2 168<1264 1928 2100 2310> 46 176<2908 3430> 316 170<1710 1928 2100 2238> 388 170<2928 3156> 422 152<566 758> 878 178<2088 2706 2876 3170> 914 164<584 1018 1650 1890> 1534 168<3106 3540>
VStem: 200 164<278 698> 424 112<258 390> 788 164<162 390> 1204 166<262 726> 1432 168<590 862> 1928 172<-532 -2 166 312 488 872> 2310 172<166 410> 2346 136<586 718> 2706 170<612 868 1056 1294> 3202 172<610 842> 3834 166<638 1198>
LayerCount: 2
Fore
SplineSet
4000 922 m 0x02fef0
 4000 682 3922 478 3766 308 c 0
 3606 134 3408 46 3172 46 c 0
 2952 46 2762 126 2604 286 c 1
 2704 418 l 1
 2832 286 2984 220 3164 220 c 0
 3356 220 3516 290 3644 430 c 1
 3770 564 3834 728 3834 920 c 0
 3834 1084 3790 1224 3702 1340 c 0
 3606 1470 3478 1534 3322 1534 c 0
 3190 1534 3082 1488 3000 1396 c 0
 2918 1304 2876 1190 2876 1056 c 1
 3066 1056 l 2
 3158 1056 3234 1028 3290 970 c 0
 3346 912 3376 838 3376 746 c 0
 3376 646 3344 564 3282 494 c 0
 3220 424 3140 388 3042 388 c 0x2afef0
 2946 388 2866 426 2802 500 c 0
 2738 574 2706 660 2706 758 c 2
 2706 878 l 1
 2088 878 l 1
 2096 850 2100 822 2100 790 c 2
 2100 488 l 1
 2166 500 2222 524 2266 562 c 0
 2318 606 2346 658 2346 718 c 1
 2482 718 l 1
 2482 -2 l 1
 2100 -2 l 1
 2100 -532 l 1
 1928 -532 l 1
 1928 -2 l 1
 1928 -2 1928 -2 1048 -2 c 1x52fef0
 1036 116 l 1
 1148 210 1204 332 1204 484 c 0
 1204 616 1168 720 1098 798 c 0
 1028 876 930 914 802 914 c 0
 680 914 578 874 492 794 c 0
 406 714 364 612 364 490 c 0
 364 408 384 330 428 256 c 1
 424 276 424 294 424 314 c 0
 424 390 446 452 492 500 c 0
 538 548 598 574 672 574 c 0
 756 574 826 544 876 486 c 0
 926 428 952 356 952 272 c 0
 952 184 924 112 868 56 c 0
 812 0 740 -26 652 -26 c 0
 516 -26 404 28 320 136 c 0x85fef0
 240 236 200 356 200 496 c 0
 200 668 260 808 376 916 c 0
 492 1024 634 1078 804 1078 c 0
 968 1078 1104 1024 1210 916 c 0
 1316 808 1368 670 1368 502 c 0
 1368 384 1334 272 1264 166 c 1
 1264 166 1264 166 1928 166 c 1
 1928 312 l 1
 1794 312 1678 348 1584 424 c 0
 1482 504 1432 610 1432 742 c 0
 1432 844 1466 926 1534 986 c 0
 1602 1046 1690 1078 1796 1078 c 0x41fef0
 1912 1078 1996 1038 2052 956 c 1
 2052 1056 l 1
 2706 1056 l 1
 2706 1240 2764 1392 2878 1516 c 0
 2992 1640 3140 1702 3322 1702 c 0
 3528 1702 3696 1622 3822 1460 c 1
 3940 1312 4000 1134 4000 922 c 0x02fef0
3202 746 m 0
 3202 828 3142 868 3018 868 c 2
 2876 868 l 1
 2876 758 l 2
 2876 706 2892 662 2920 624 c 0
 2952 580 2992 560 3042 560 c 256
 3092 560 3132 578 3160 614 c 0
 3188 650 3202 694 3202 746 c 0
2310 166 m 1x50ff70
 2310 410 l 1
 2248 352 2176 320 2100 316 c 1
 2100 166 l 1
 2310 166 l 1x50ff70
1928 778 m 2
 1928 818 1912 850 1884 874 c 0
 1856 898 1822 910 1782 910 c 0
 1728 910 1684 894 1650 862 c 0
 1616 830 1600 788 1600 736 c 0
 1600 656 1634 592 1704 542 c 0
 1768 498 1844 478 1928 478 c 1
 1928 778 l 2
788 280 m 256
 788 320 776 354 754 382 c 0
 732 410 702 422 664 422 c 0
 624 422 592 408 570 380 c 0
 548 352 536 318 536 280 c 256
 536 242 548 208 570 180 c 0
 592 152 624 136 664 136 c 0x84fe70
 702 136 732 152 754 182 c 1
 776 208 788 240 788 280 c 256
EndSplineSet
Ligature2: "'psts' Post Base Substitutions lookup 6-1" ta_sha ta_uu_sign
EndChar

StartChar: ta_huu
Encoding: 165 -1 119
Width: 4336
Flags: HW
HStem: -264 156<398 2438> -26 164<592 784> -2 168<1288 1604> 46 176<3244 3766> 388 170<3264 3492> 422 152<590 782> 878 178<2718 3042 3212 3506> 912 170<606 1048 1816 2014 2272 2522> 1534 168<3442 3876>
VStem: 200 168<-476 -284> 224 164<278 698> 448 112<258 390> 812 164<162 390> 1228 166<262 726> 1604 180<166 880> 2050 180<-2 864> 2648 166<156 750> 3042 170<612 868 1056 1294> 3538 172<610 842> 4170 166<638 1198>
LayerCount: 2
Fore
SplineSet
4336 922 m 0x82bff0
 4336 682 4258 478 4102 308 c 0
 3942 134 3744 46 3508 46 c 0
 3288 46 3098 126 2940 286 c 1
 3040 418 l 1
 3168 286 3320 220 3500 220 c 0
 3692 220 3852 290 3980 430 c 1
 4106 564 4170 728 4170 920 c 0
 4170 1084 4126 1224 4038 1340 c 0
 3942 1470 3814 1534 3658 1534 c 0
 3526 1534 3418 1488 3336 1396 c 0
 3254 1304 3212 1190 3212 1056 c 1
 3402 1056 l 2
 3494 1056 3570 1028 3626 970 c 0
 3682 912 3712 838 3712 746 c 0
 3712 646 3680 564 3618 494 c 0
 3556 424 3476 388 3378 388 c 0
 3282 388 3202 426 3138 500 c 0
 3074 574 3042 660 3042 758 c 2
 3042 878 l 1
 2718 878 l 1x9abff0
 2782 762 2814 618 2814 442 c 0
 2814 250 2770 90 2680 -40 c 0
 2576 -188 2432 -264 2250 -264 c 2
 472 -264 l 2
 444 -264 418 -272 398 -292 c 0
 378 -312 368 -336 368 -364 c 0
 368 -406 388 -434 426 -446 c 1
 312 -556 l 1
 236 -510 200 -442 200 -350 c 0
 200 -282 226 -226 276 -178 c 0
 326 -130 384 -108 452 -108 c 2
 2254 -108 l 2
 2386 -108 2488 -44 2560 82 c 0
 2620 188 2648 312 2648 454 c 0
 2648 568 2632 664 2598 746 c 0
 2552 856 2480 912 2382 912 c 0
 2340 912 2304 898 2274 868 c 0
 2244 838 2230 802 2230 760 c 2
 2230 -2 l 1
 2050 -2 l 1
 2050 760 l 2
 2050 800 2038 836 2012 866 c 0
 1986 896 1954 912 1914 912 c 0
 1878 912 1846 898 1822 866 c 0
 1798 834 1784 798 1784 760 c 2
 1784 -2 l 1
 1072 -2 l 1xa1dff0
 1060 116 l 1
 1172 210 1228 332 1228 484 c 0
 1228 616 1192 720 1122 798 c 0
 1052 876 954 914 826 914 c 0
 704 914 602 874 516 794 c 0
 430 714 388 612 388 490 c 0
 388 408 408 330 452 256 c 1
 448 276 448 294 448 314 c 0
 448 390 470 452 516 500 c 0
 562 548 622 574 696 574 c 0
 780 574 850 544 900 486 c 0
 950 428 976 356 976 272 c 0
 976 184 948 112 892 56 c 0
 836 0 764 -26 676 -26 c 0
 540 -26 428 28 344 136 c 0xc4bff0
 264 236 224 356 224 496 c 0
 224 668 284 808 400 916 c 0
 516 1024 658 1078 828 1078 c 0
 992 1078 1128 1024 1234 916 c 0
 1340 808 1392 670 1392 502 c 0
 1392 384 1358 272 1288 166 c 1
 1384 168 1488 168 1604 166 c 1
 1604 772 l 2
 1604 856 1636 932 1698 992 c 0
 1760 1052 1834 1082 1918 1082 c 0
 2008 1082 2082 1048 2142 980 c 1
 2200 1048 2280 1082 2384 1082 c 0xa1bff0
 2482 1082 2562 1054 2628 994 c 1
 2628 1056 l 1
 3042 1056 l 1
 3042 1240 3100 1392 3214 1516 c 0
 3328 1640 3476 1702 3658 1702 c 0
 3864 1702 4032 1622 4158 1460 c 1
 4276 1312 4336 1134 4336 922 c 0x82bff0
3538 746 m 0
 3538 828 3478 868 3354 868 c 2
 3212 868 l 1
 3212 758 l 2
 3212 706 3228 662 3256 624 c 0
 3288 580 3328 560 3378 560 c 256
 3428 560 3468 578 3496 614 c 0
 3524 650 3538 694 3538 746 c 0
812 280 m 256
 812 320 800 354 778 382 c 0
 756 410 726 422 688 422 c 0
 648 422 616 408 594 380 c 0
 572 352 560 318 560 280 c 256
 560 242 572 208 594 180 c 0
 616 152 648 136 688 136 c 0xc49ff0
 726 136 756 152 778 182 c 1
 800 208 812 240 812 280 c 256
EndSplineSet
Ligature2: "'psts' Post Base Substitutions lookup 6-1" ta_ha ta_uu_sign
EndChar

